<svg xml:space="preserve" style="enable-background:new 0 0 1200 1200;" viewBox="0 0 1200 1200" y="0px" x="0px" xmlns:xlink="http://www.w3.org/1999/xlink" xmlns="http://www.w3.org/2000/svg" id="图层_1" version="1.1">
<style type="text/css">
	.st0{fill-rule:evenodd;clip-rule:evenodd;fill:#3D3F47;}
	.st1{fill-rule:evenodd;clip-rule:evenodd;fill:#E2D9B3;}
	.st2{fill-rule:evenodd;clip-rule:evenodd;fill:url(#SVGID_1_);}
	.st3{fill-rule:evenodd;clip-rule:evenodd;fill:url(#SVGID_00000049181108378816817380000005492547300231275952_);}
	.st4{fill-rule:evenodd;clip-rule:evenodd;fill:url(#SVGID_00000099657974920153302470000018442322137640913564_);}
	.st5{fill-rule:evenodd;clip-rule:evenodd;fill:url(#SVGID_00000003786678446554029610000004743522581605727921_);}
	.st6{fill-rule:evenodd;clip-rule:evenodd;fill:url(#SVGID_00000119094171331972499020000012285741409888860081_);}
	.st7{fill-rule:evenodd;clip-rule:evenodd;fill:url(#SVGID_00000070813939626094756830000011219696337439000981_);}
	.st8{fill-rule:evenodd;clip-rule:evenodd;fill:url(#SVGID_00000106855576151336484400000009807309272509854890_);}
	.st9{fill-rule:evenodd;clip-rule:evenodd;fill:url(#SVGID_00000127014559950888985210000001883189064525311409_);}
	.st10{fill-rule:evenodd;clip-rule:evenodd;fill:url(#SVGID_00000165205822849672651580000001778164808839308990_);}
	.st11{fill-rule:evenodd;clip-rule:evenodd;fill:url(#SVGID_00000173128509567994409160000004971474730650233770_);}
	.st12{fill-rule:evenodd;clip-rule:evenodd;fill:#373E54;}
	.st13{fill:#FFCBBB;}
	.st14{fill-rule:evenodd;clip-rule:evenodd;fill:#3A302E;}
	.st15{fill-rule:evenodd;clip-rule:evenodd;fill:#FFF9F8;}
	.st16{fill-rule:evenodd;clip-rule:evenodd;fill:#FFC2C2;}
	.st17{fill-rule:evenodd;clip-rule:evenodd;fill:#C9C19F;}
	.st18{fill-rule:evenodd;clip-rule:evenodd;fill:#30443D;}
	.st19{fill:#FFB094;}
	.st20{fill-rule:evenodd;clip-rule:evenodd;fill:#FCC9BB;}
	.st21{fill-rule:evenodd;clip-rule:evenodd;fill:#193054;}
	.st22{fill-rule:evenodd;clip-rule:evenodd;fill:#D8D8D8;}
	.st23{fill-rule:evenodd;clip-rule:evenodd;fill:#D1D1D1;}
	.st24{fill-rule:evenodd;clip-rule:evenodd;fill:#EAEAEA;}
	.st25{fill-rule:evenodd;clip-rule:evenodd;fill:url(#SVGID_00000078003133669951763820000006819810446472529305_);}
	.st26{fill-rule:evenodd;clip-rule:evenodd;fill:#B2A87B;}
	.st27{fill-rule:evenodd;clip-rule:evenodd;fill:#EDDC8C;}
</style>
<g>
	<path d="M277.02,500.34c0,0-15.57,208.42,13.35,263.58s64.84,8.87,41.84,170.49c-7.01,49.24-3.92,82.24,19.41,123.06
		c23.32,40.82,122.69,101.28,125.12,85.13c2.43-16.15,31.27-296.72,31.27-296.72S554.5,461.13,277.02,500.34z" class="st0"></path>
	<path d="M943.37,451.26c0,0-30.21,289.7-28.2,352.35c3.67,114.38,14,278.06-7.95,308.07
		c-27.76,37.95-176,86.76-178.42,70.61c-2.43-16.15-31.27-296.72-31.27-296.72S665.89,412.05,943.37,451.26z" class="st0"></path>
	<path d="M499.58,858.11c-43.98,23.7-115.05,72.92-136.42,78.58c-72.03,19.09-143.11,73.59-192.15,263.31l857.97,0
		c0,0-62.61-203.64-174.81-259.32c-32.23-14.71-107.19-53.3-144.64-79.27c-29.73-16.3-52.8,69.39-115.56,73.3
		C540.1,938.06,519.02,864.85,499.58,858.11z" class="st1"></path>
	<linearGradient y2="826.3212" x2="605.2003" y1="959.6361" x1="603.2576" gradientUnits="userSpaceOnUse" id="SVGID_1_">
		<stop style="stop-color:#FFDBD4" offset="9.920130e-07"></stop>
		<stop style="stop-color:#FFBFAA" offset="1"></stop>
	</linearGradient>
	<path d="M697.31,825.17l-96.25,1.38l-96.25-1.38c0,0,2.5,58.33-8.24,99.97c-5.51,21.37,14.77,39.85,36.83,39.85h64.99
		h5.34h74.43c23.62,0,37.99-21.34,32.29-44.26C700.16,879.44,697.31,825.17,697.31,825.17z" class="st2"></path>
	
		<linearGradient y2="893.6771" x2="602.2466" y1="1116.3531" x1="605.4915" gradientUnits="userSpaceOnUse" id="SVGID_00000054958945470398024350000012610761047140567999_">
		<stop style="stop-color:#E3D6D3" offset="8.769970e-07"></stop>
		<stop style="stop-color:#DEDEDE" offset="1"></stop>
	</linearGradient>
	
		<polygon points="505.94,895.08 592.76,1116.16 618.77,1116.16 698.63,897.33" style="fill-rule:evenodd;clip-rule:evenodd;fill:url(#SVGID_00000054958945470398024350000012610761047140567999_);"></polygon>
	
		<linearGradient y2="849.879" x2="505.0689" y1="849.879" x1="501.1953" gradientUnits="userSpaceOnUse" id="SVGID_00000038406897617185693930000013428364422286968744_">
		<stop style="stop-color:#FFDBD4" offset="9.920130e-07"></stop>
		<stop style="stop-color:#FFDCD1" offset="1"></stop>
	</linearGradient>
	<path d="M504.92,853.88c-8.46-1.06,0.15-8,0.15-8L504.92,853.88z" style="fill-rule:evenodd;clip-rule:evenodd;fill:url(#SVGID_00000038406897617185693930000013428364422286968744_);"></path>
	
		<linearGradient gradientTransform="matrix(-1 0 0 1 7286.0684 0)" y2="849.0447" x2="6587.4385" y1="849.0447" x1="6582.5356" gradientUnits="userSpaceOnUse" id="SVGID_00000042739122852866843240000012476903825899336585_">
		<stop style="stop-color:#FFDBD4" offset="9.920130e-07"></stop>
		<stop style="stop-color:#FFDCD1" offset="1"></stop>
	</linearGradient>
	<path d="M698.63,844.39c0,0,10.37,9.79,0.94,9.3L698.63,844.39z" style="fill-rule:evenodd;clip-rule:evenodd;fill:url(#SVGID_00000042739122852866843240000012476903825899336585_);"></path>
	<g>
		
			<linearGradient y2="527.5762" x2="870.0115" y1="670.7267" x1="808.9999" gradientUnits="userSpaceOnUse" id="SVGID_00000110430848486583471800000008461655927985300619_">
			<stop style="stop-color:#FFDBD4" offset="4.984026e-07"></stop>
			<stop style="stop-color:#FFD1BF" offset="1"></stop>
		</linearGradient>
		<path d="M801.37,534.04c0,0,84.26-46.44,105.63-4.56c21.37,41.87-30.64,182.26-105.63,152.86V534.04z" style="fill-rule:evenodd;clip-rule:evenodd;fill:url(#SVGID_00000110430848486583471800000008461655927985300619_);"></path>
		
			<linearGradient y2="669.634" x2="854.4109" y1="537.7667" x1="856.9492" gradientUnits="userSpaceOnUse" id="SVGID_00000098931619212752350090000017846978504100737214_">
			<stop style="stop-color:#FAC1B6" offset="2.587860e-07"></stop>
			<stop style="stop-color:#FFDED1" offset="1"></stop>
		</linearGradient>
		<path d="M855.49,537.78c0,0,44.5-12.62,41.72,22.46c-2.79,35.09-22.75,106.52-83.56,109L855.49,537.78z" style="fill-rule:evenodd;clip-rule:evenodd;fill:url(#SVGID_00000098931619212752350090000017846978504100737214_);"></path>
		
			<linearGradient y2="669.6422" x2="854.4109" y1="537.7748" x1="856.9492" gradientUnits="userSpaceOnUse" id="SVGID_00000045597735754974526390000009346249548560105616_">
			<stop style="stop-color:#FAC1B6" offset="2.587860e-07"></stop>
			<stop style="stop-color:#FFDED1" offset="1"></stop>
		</linearGradient>
		<path d="M855.49,537.79c0,0,44.5-12.62,41.72,22.46c-2.79,35.09-22.75,106.52-83.56,109L855.49,537.79z" style="fill-rule:evenodd;clip-rule:evenodd;fill:url(#SVGID_00000045597735754974526390000009346249548560105616_);"></path>
	</g>
	<g>
		
			<linearGradient gradientTransform="matrix(-1 0 0 1 1717.3657 0)" y2="527.5762" x2="1399.6693" y1="670.7267" x1="1338.6577" gradientUnits="userSpaceOnUse" id="SVGID_00000059279750647604588890000003611412532237946260_">
			<stop style="stop-color:#FFDBD4" offset="4.984026e-07"></stop>
			<stop style="stop-color:#FFD1BF" offset="1"></stop>
		</linearGradient>
		<path d="M386.34,682.34c-74.99,29.4-127-110.98-105.63-152.86c21.37-41.87,105.63,4.56,105.63,4.56V682.34z" style="fill-rule:evenodd;clip-rule:evenodd;fill:url(#SVGID_00000059279750647604588890000003611412532237946260_);"></path>
		
			<linearGradient gradientTransform="matrix(-1 0 0 1 1717.3657 0)" y2="669.634" x2="1384.0687" y1="537.7667" x1="1386.6071" gradientUnits="userSpaceOnUse" id="SVGID_00000022552166217247833810000011355692821798498212_">
			<stop style="stop-color:#FAC1B6" offset="2.587860e-07"></stop>
			<stop style="stop-color:#FFDED1" offset="1"></stop>
		</linearGradient>
		<path d="M332.22,537.78c0,0-44.5-12.62-41.72,22.46c2.79,35.09,22.75,106.52,83.56,109L332.22,537.78z" style="fill-rule:evenodd;clip-rule:evenodd;fill:url(#SVGID_00000022552166217247833810000011355692821798498212_);"></path>
	</g>
	
		<linearGradient y2="859.4402" x2="595.7006" y1="222.956" x1="607.9523" gradientUnits="userSpaceOnUse" id="SVGID_00000175324075686675344980000014624335569145947814_">
		<stop style="stop-color:#FFDBD4" offset="4.984026e-07"></stop>
		<stop style="stop-color:#FFD1BF" offset="1"></stop>
	</linearGradient>
	<path d="M856.6,595.02c0,212.17-153.92,266.39-255.52,266.39c-41.6,0-93.23-9.53-139.17-36.24c-33.34-19.38-63.68-47.81-85.01-88.2
		c-19.39-36.71-31.33-83.29-31.33-141.95c0-212.17,10.75-384.17,255.52-384.17C819.29,210.85,856.6,382.85,856.6,595.02z" style="fill-rule:evenodd;clip-rule:evenodd;fill:url(#SVGID_00000175324075686675344980000014624335569145947814_);"></path>
	<path d="M482.46,864.8" class="st12"></path>
	<path d="M620.42,696.4c0,6.54-9.92,11.84-22.15,11.84c-12.23,0-22.15-5.3-22.15-11.84c0-6.54,9.92-19.94,22.15-19.94
		C610.51,676.46,620.42,689.86,620.42,696.4z" class="st13"></path>
	<g>
		<g>
			<path d="M487.86,537.07c-10.65,0-20.13,7.31-26.21,18.67l5.26,5.48h-7.8c-2.84,7.13-4.47,15.4-4.47,24.24
				c0,26.73,14.88,48.4,33.23,48.4c18.35,0,33.23-21.67,33.23-48.4C521.09,558.74,506.21,537.07,487.86,537.07z" class="st14"></path>
			<ellipse ry="14.19" rx="7.71" cy="576.43" cx="498.74" class="st15"></ellipse>
		</g>
		<g>
			<path d="M714.3,537.07c10.65,0,20.13,7.31,26.21,18.67l-5.26,5.48l9.54,5.02c2.84,7.13,2.73,10.39,2.73,19.22
				c0,26.73-14.88,48.4-33.23,48.4c-18.35,0-33.22-21.67-33.22-48.4C681.07,558.74,695.95,537.07,714.3,537.07z" class="st14"></path>
			<ellipse ry="14.19" rx="7.71" cy="576.43" cx="698.87" class="st15"></ellipse>
		</g>
	</g>
	<ellipse ry="19.22" rx="40.56" cy="693.19" cx="464.42" class="st16"></ellipse>
	<ellipse ry="19.22" rx="40.56" cy="693.19" cx="745.01" class="st16"></ellipse>
	<path d="M370.11,1059.89c0,0-71.19,24.58-84.18,140.11h40.4C326.32,1200,333.14,1129.97,370.11,1059.89z" class="st17"></path>
	<path d="M817.75,1066.56c0,0,66.02,72.41,78.01,133.44h-46.46C849.29,1200,854.72,1136.64,817.75,1066.56z" class="st17"></path>
	<polygon points="579.75,928.34 546.01,1084.95 599.96,1113.64 663.29,1077.98 628.31,929.02" class="st18"></polygon>
	<g>
		<path d="M604.28,768.97c-10.43,0-22.62-1.99-35.77-7.95c-2.52-1.14-3.63-4.1-2.49-6.62c1.14-2.51,4.1-3.63,6.62-2.49
			c34.12,15.46,60.56,0.84,61.67,0.21c2.4-1.36,5.45-0.53,6.82,1.86c1.37,2.39,0.55,5.44-1.84,6.81
			C638.44,761.28,624.75,768.97,604.28,768.97z" class="st19"></path>
	</g>
	<path d="M584.15,776.3c8.54,1.15,23.73,2.56,37.56,0.47c1.94-0.29,2.93,2.3,1.3,3.42c-4.62,3.16-11.4,6.73-18.83,7.14
		c-8.17,0.45-16.19-3.99-21.3-7.62C581.3,778.58,582.26,776.04,584.15,776.3z" class="st20"></path>
	<path d="M579.53,929.66l-0.74,3.42c-0.12,0.55,0.29,1.06,0.85,1.07l48.4,0.78c0.85,0.01,1.48-0.78,1.28-1.6
		l-0.72-2.97L579.53,929.66z" class="st21"></path>
	<path d="M511.21,901.57c0,0,44.32,32.5,52.99,32.83c8.67,0.34,11.58-13.74,11.58-13.74l-4.3-10.73L511.21,901.57z" class="st22"></path>
	<path d="M697.8,901.57c0,0-44.32,32.5-52.99,32.83c-8.67,0.34-11.58-13.74-11.58-13.74l4.3-10.73L697.8,901.57z" class="st23"></path>
	<path d="M579.63,878c0,0,40.58,2.5,49.16-0.22l7.18,29.13l-7.11,22.9c-0.33,1.05-1.3,1.75-2.4,1.74l-45.05-0.65
		c-1.01-0.01-1.9-0.64-2.27-1.58l-8.17-20.99L579.63,878z" class="st18"></path>
	<path d="M501.17,851.96c0,0-13.38,26.96-10.62,34.82c2.76,7.87,68.68,40.84,75.93,39.03
		c5.75-1.44,10.01-26.07,13.56-47.14c0.23-1.37-0.72-2.64-2.1-2.84C537.21,870.16,501.17,851.96,501.17,851.96z" class="st24"></path>
	<path d="M703.33,851.93c1.82-0.5,17.04,28.66,14.85,34.89c-2.76,7.87-68.68,40.84-75.93,39.03
		c-5.76-1.44-12.09-12.36-13.64-46.4c-0.1-2.2,1.59-4.05,3.78-4.19C666.46,873.05,703.33,851.93,703.33,851.93z" class="st24"></path>
	<path d="M703.33,851.05c37.06,24.5,57.21,36.76,57.21,36.76c8.82,5.25,7.98,18.28-1.43,22.37l-46.21,20.05
		l33.77,42.82c3.68,4.67,3.6,11.28-0.2,15.85c0,0-98.34,123.33-164.14,153.7C600,1118.88,716.59,895.08,703.33,851.05z" class="st17"></path>
	<path d="M501.17,851.05c-6.66,6.25-30.53,25.96-52.71,41.55c-9.35,6.57-14.13,16.99-3.14,20.13l44.89,12.84
		l-33.27,42.18c-3.98,5.04-3.88,12.18,0.22,17.11l129.67,149.77l13.16-21.79C600,1112.83,510.24,945.13,501.17,851.05z" class="st17"></path>
	
		<linearGradient y2="845.675" x2="698.8567" y1="845.675" x1="698.8567" gradientUnits="userSpaceOnUse" id="SVGID_00000014599956766453246410000002502899216719036562_">
		<stop style="stop-color:#FFDBD4" offset="9.920130e-07"></stop>
		<stop style="stop-color:#FFDCD1" offset="1"></stop>
	</linearGradient>
	<path d="M698.86,845.68" style="fill-rule:evenodd;clip-rule:evenodd;fill:url(#SVGID_00000014599956766453246410000002502899216719036562_);"></path>
	<polygon points="582.33,1142.6 580.26,1200 590.74,1200" class="st17"></polygon>
	<circle r="6.08" cy="1152.29" cx="600.25" class="st26"></circle>
	<circle r="6.08" cy="1185.87" cx="600.25" class="st26"></circle>
	<ellipse ry="35.01" rx="10.8" cy="697.76" cx="859.72" class="st27"></ellipse>
	<ellipse ry="35.01" rx="10.8" cy="697.76" cx="336.01" class="st27"></ellipse>
	<path d="M569.69,150.51c0,0-195.64-27.23-254.63,127.67c-32.38,85.01-36.14,228.66-39.18,257.39
		c-7.72,72.96,49.33,301.06,69.68-9.05c1.72-26.22,7.6-212.04,121.96-170.9c310.11-115.26,378.28,207.44,387.97,182.16
		c19.46-58.33,58.25,0.16,60.6,16.01c33.65-47.93,38.79-159.04,2.74-256.25C868.18,160.94,633.17,64.6,569.69,150.51z" class="st0"></path>
	<path d="M508.01,845.88c0,0-138.17,167.42-28.84,320.5c0,0-149.39,10.67-153.39-122.1
		c-2.38-79.26,12.82-166.5,12.82-166.5L508.01,845.88z" class="st0"></path>
	<path d="M323.08,571.34c0,0-5.32,69.05,2.13,94.06c0,0,27.65-69.12,16.29-123.34
		C330.13,487.84,323.08,571.34,323.08,571.34z" class="st0"></path>
	<path d="M320.43,498.12c0,0-20.73,120.09,56.47,208.43c0,0-27.72-80.14-30.92-189.23
		C343.51,432.96,320.43,498.12,320.43,498.12z" class="st0"></path>
	<path d="M408.46,1116.16c0,0,48.92,47.8,89.16,59.9C497.62,1176.06,454.51,1191.94,408.46,1116.16z" class="st1"></path>
	<path d="M413.73,509.39c7.08-11.99,33.26-40.83,112.66-12.22c3.46,1.25,5.8,4.6,5.8,8.37v4.24
		c0,6.18-5.98,10.45-11.61,8.28c-19.59-7.57-61.31-19.52-104.48-5.57C414.32,513.06,412.76,511.04,413.73,509.39z" class="st14"></path>
	<path d="M773.38,509.39c-7.08-11.99-33.26-40.83-112.66-12.22c-3.46,1.25-5.8,4.6-5.8,8.37v4.24
		c0,6.18,5.98,10.45,11.61,8.28c19.59-7.57,61.31-19.52,104.48-5.57C772.8,513.06,774.35,511.04,773.38,509.39z" class="st14"></path>
</g>
</svg>
