<svg xmlns="http://www.w3.org/2000/svg" fill="none" viewBox="0 0 1024 1024" height="1024" width="1024">
<g clip-path="url(#clip0_604_2752)">
<rect fill="url(#paint0_linear_604_2752)" rx="160" height="1024" width="1024"></rect>
<circle fill="url(#paint1_linear_604_2752)" r="512" cy="512" cx="512"></circle>
<path fill="#E9E9F1" d="M269.734 290.978H376.666C409.608 290.978 436.312 264.132 436.312 231.014C436.312 197.897 409.608 171.051 376.666 171.051C366.725 171.051 357.352 173.495 349.11 177.819C337.633 144.353 306.031 120.312 268.843 120.312C221.965 120.312 183.962 158.517 183.962 205.645C183.962 206.611 183.978 207.573 184.01 208.531C170.325 215.922 161.021 230.448 161.021 247.159C161.021 271.36 180.536 290.978 204.609 290.978H268.843C268.977 290.978 269.734 290.978 269.734 290.978H268.843H269.734Z" clip-rule="evenodd" fill-rule="evenodd" opacity="0.9"></path>
<path fill="#9AD190" d="M517.513 1004.91C517.513 1055.97 476.093 1097.35 424.996 1097.35C373.899 1097.35 332.479 1055.97 332.479 1004.91C332.479 953.862 373.899 912.478 424.996 912.478C476.093 912.478 517.513 953.862 517.513 1004.91" clip-rule="evenodd" fill-rule="evenodd"></path>
<path fill="#8DBBA5" d="M517.513 1004.91C517.513 1055.97 476.093 1097.35 424.996 1097.35C373.899 1097.35 332.479 1055.97 332.479 1004.91C332.479 953.862 373.899 912.478 424.996 912.478C476.093 912.478 517.513 953.862 517.513 1004.91" clip-rule="evenodd" fill-rule="evenodd"></path>
<path fill="#9AD190" d="M571.935 899.792C571.935 950.845 530.514 992.229 479.418 992.229C428.321 992.229 386.901 950.845 386.901 899.792C386.901 848.74 428.321 807.355 479.418 807.355C530.514 807.355 571.935 848.74 571.935 899.792" clip-rule="evenodd" fill-rule="evenodd"></path>
<path fill="#8DBBA5" d="M571.935 899.792C571.935 950.845 530.514 992.229 479.418 992.229C428.321 992.229 386.901 950.845 386.901 899.792C386.901 848.74 428.321 807.355 479.418 807.355C530.514 807.355 571.935 848.74 571.935 899.792" clip-rule="evenodd" fill-rule="evenodd"></path>
<path fill="#D4A3C6" d="M764.223 1184.12H1335.65V601.536H764.223V1184.12Z" clip-rule="evenodd" fill-rule="evenodd"></path>
<path fill="#98567D" d="M1259.92 466.604H586.449V670.059H1386.45L1259.92 466.604" clip-rule="evenodd" fill-rule="evenodd"></path>
<path fill="#DCAFD2" d="M769.442 1186.16H399.374V603.575L588.033 470.231L769.442 603.575V1186.16" clip-rule="evenodd" fill-rule="evenodd"></path>
<path fill="#76486D" d="M372.8 664.246L352.479 638.712L588.68 451.048L805.459 629.838L784.675 654.997L588.299 493.036L372.8 664.246" clip-rule="evenodd" fill-rule="evenodd"></path>
<path fill="#98567D" d="M1319.64 964.362H797.039C792.653 964.362 790.068 959.447 792.56 955.836L862.955 853.884C863.967 852.416 865.643 851.535 867.434 851.535H1257.74C1259.64 851.535 1261.41 852.524 1262.39 854.15L1324.29 956.103C1326.49 959.73 1323.88 964.362 1319.64 964.362" clip-rule="evenodd" fill-rule="evenodd"></path>
<path fill="#8C736A" d="M464 1187.07H706.177V950.54H464V1187.07Z" clip-rule="evenodd" fill-rule="evenodd"></path>
<path fill="#DDDEFE" d="M714.34 1187.07H698.014V958.696H472.163V1187.07H455.837V950.54C455.837 946.038 459.488 942.384 464 942.384H706.177C710.683 942.384 714.34 946.038 714.34 950.54V1187.07" clip-rule="evenodd" fill-rule="evenodd"></path>
<path fill="#8DA6DC" d="M868.305 818.23H952.958V716.071H868.305V818.23Z" clip-rule="evenodd" fill-rule="evenodd"></path>
<path fill="#DDDEFE" d="M876.468 810.074H944.795V724.232H876.468V810.074ZM952.958 826.386H868.305C863.799 826.386 860.142 822.732 860.142 818.23V716.076C860.142 711.574 863.799 707.92 868.305 707.92H952.958C957.469 707.92 961.121 711.574 961.121 716.076V818.23C961.121 822.732 957.469 826.386 952.958 826.386V826.386Z" clip-rule="evenodd" fill-rule="evenodd"></path>
<path fill="#9E764F" d="M863.543 1187.98H954.699V998.569H863.543V1187.98Z" clip-rule="evenodd" fill-rule="evenodd"></path>
<path fill="#FCFCFC" d="M962.863 1187.98H946.536V1006.73H871.706V1187.98H855.38V998.575C855.38 994.072 859.037 990.418 863.543 990.418H954.7C959.211 990.418 962.863 994.072 962.863 998.575V1187.98" clip-rule="evenodd" fill-rule="evenodd"></path>
<path fill="#8DA6DC" d="M654.269 699.394C652.136 660.391 619.902 629.386 580.326 629.386C540.751 629.386 508.517 660.391 506.384 699.394H506.177V835.902H654.476V699.394H654.269" clip-rule="evenodd" fill-rule="evenodd"></path>
<path fill="#DDDEFE" d="M514.34 827.745H646.313V701.194L646.117 699.84C644.207 664.909 615.309 637.542 580.327 637.542C545.344 637.542 516.446 664.909 514.531 699.84L514.34 701.226V827.745ZM654.476 844.058H506.177C501.665 844.058 498.014 840.404 498.014 835.902V699.394C498.014 698.578 498.133 697.784 498.357 697.039C501.671 654.377 537.312 621.23 580.327 621.23C623.342 621.23 658.977 654.377 662.291 697.039C662.514 697.784 662.64 698.578 662.64 699.394V835.902C662.64 840.404 658.982 844.058 654.476 844.058V844.058Z" clip-rule="evenodd" fill-rule="evenodd"></path>
<path fill="#DDDEFE" d="M572.163 832.732H588.49V628.826H572.163V832.732Z" clip-rule="evenodd" fill-rule="evenodd"></path>
<path fill="#DDDEFE" d="M507.537 708.572H653.567V692.26H507.537V708.572Z" clip-rule="evenodd" fill-rule="evenodd"></path>
<path fill="#9CC1DC" d="M880.327 1100.07H937.921V1021.23H880.327V1100.07Z" clip-rule="evenodd" fill-rule="evenodd"></path>
<path fill="#B99068" d="M483.048 1186.62H500.577V958.724H483.048V1186.62Z" clip-rule="evenodd" fill-rule="evenodd"></path>
<path fill="#A78885" d="M483.048 1186.62H500.577V958.724H483.048V1186.62Z" clip-rule="evenodd" fill-rule="evenodd"></path>
<path fill="#B99068" d="M514.215 1186.62H531.744V958.724H514.215V1186.62Z" clip-rule="evenodd" fill-rule="evenodd"></path>
<path fill="#A78885" d="M514.215 1186.62H531.744V958.724H514.215V1186.62Z" clip-rule="evenodd" fill-rule="evenodd"></path>
<path fill="#B99068" d="M545.382 1186.62H562.912V958.724H545.382V1186.62Z" clip-rule="evenodd" fill-rule="evenodd"></path>
<path fill="#A78885" d="M545.382 1186.62H562.912V958.724H545.382V1186.62Z" clip-rule="evenodd" fill-rule="evenodd"></path>
<path fill="#B99068" d="M576.55 1186.62H594.079V958.724H576.55V1186.62Z" clip-rule="evenodd" fill-rule="evenodd"></path>
<path fill="#A78885" d="M576.55 1186.62H594.079V958.724H576.55V1186.62Z" clip-rule="evenodd" fill-rule="evenodd"></path>
<path fill="#B99068" d="M607.711 1186.62H625.246V958.724H607.711V1186.62Z" clip-rule="evenodd" fill-rule="evenodd"></path>
<path fill="#A78885" d="M607.711 1186.62H625.246V958.724H607.711V1186.62Z" clip-rule="evenodd" fill-rule="evenodd"></path>
<path fill="#B99068" d="M638.884 1186.62H656.419V958.724H638.884V1186.62Z" clip-rule="evenodd" fill-rule="evenodd"></path>
<path fill="#A78885" d="M638.884 1186.62H656.419V958.724H638.884V1186.62Z" clip-rule="evenodd" fill-rule="evenodd"></path>
<path fill="#B99068" d="M670.052 1186.62H687.586V958.724H670.052V1186.62Z" clip-rule="evenodd" fill-rule="evenodd"></path>
<path fill="#A78885" d="M670.052 1186.62H687.586V958.724H670.052V1186.62Z" clip-rule="evenodd" fill-rule="evenodd"></path>
<path fill="#32424F" d="M794.188 979.767H1322.58V963.454H794.188V979.767Z" clip-rule="evenodd" fill-rule="evenodd"></path>
<path fill="#6C3D62" d="M769.442 685.24H1386.32V668.928H769.442V685.24Z" clip-rule="evenodd" fill-rule="evenodd"></path>
<path fill="#DDDEFE" d="M868.985 764.307H953.796V747.994H868.985V764.307Z" clip-rule="evenodd" fill-rule="evenodd"></path>
<path fill="#32424F" d="M1264.9 945.102H956.517C952.006 945.102 948.354 941.448 948.354 936.946C948.354 932.444 952.006 928.79 956.517 928.79H1264.9C1269.42 928.79 1273.07 932.444 1273.07 936.946C1273.07 941.448 1269.42 945.102 1264.9 945.102" clip-rule="evenodd" fill-rule="evenodd"></path>
<path fill="#32424F" d="M1096.2 912.477H857.649C853.143 912.477 849.486 908.823 849.486 904.321C849.486 899.819 853.143 896.165 857.649 896.165H1096.2C1100.71 896.165 1104.36 899.819 1104.36 904.321C1104.36 908.823 1100.71 912.477 1096.2 912.477" clip-rule="evenodd" fill-rule="evenodd"></path>
<path fill="#32424F" d="M1136.11 881.669H942.911C938.4 881.669 934.748 878.015 934.748 873.513C934.748 869.01 938.4 865.356 942.911 865.356H1136.11C1140.61 865.356 1144.27 869.01 1144.27 873.513C1144.27 878.015 1140.61 881.669 1136.11 881.669" clip-rule="evenodd" fill-rule="evenodd"></path>
<path fill="#32424F" d="M918.422 943.292H837.693C833.186 943.292 829.529 939.638 829.529 935.136C829.529 930.633 833.186 926.979 837.693 926.979H918.422C922.928 926.979 926.585 930.633 926.585 935.136C926.585 939.638 922.928 943.292 918.422 943.292" clip-rule="evenodd" fill-rule="evenodd"></path>
<path fill="#6C3D62" d="M1127.04 642.42H852.207C847.701 642.42 844.043 638.766 844.043 634.264C844.043 629.761 847.701 626.107 852.207 626.107H1127.04C1131.55 626.107 1135.2 629.761 1135.2 634.264C1135.2 638.766 1131.55 642.42 1127.04 642.42" clip-rule="evenodd" fill-rule="evenodd"></path>
<path fill="#6C3D62" d="M1175.11 603.45H816.833C812.327 603.45 808.669 599.796 808.669 595.293C808.669 590.791 812.327 587.137 816.833 587.137H1175.11C1179.62 587.137 1183.27 590.791 1183.27 595.293C1183.27 599.796 1179.62 603.45 1175.11 603.45" clip-rule="evenodd" fill-rule="evenodd"></path>
<path fill="#6C3D62" d="M1291.21 562.668H828.626C824.114 562.668 820.462 559.014 820.462 554.512C820.462 550.01 824.114 546.356 828.626 546.356H1291.21C1295.72 546.356 1299.37 550.01 1299.37 554.512C1299.37 559.014 1295.72 562.668 1291.21 562.668" clip-rule="evenodd" fill-rule="evenodd"></path>
<path fill="#6C3D62" d="M1000.05 528.233H712.522C708.016 528.233 704.359 524.579 704.359 520.077C704.359 515.574 708.016 511.92 712.522 511.92H1000.05C1004.56 511.92 1008.22 515.574 1008.22 520.077C1008.22 524.579 1004.56 528.233 1000.05 528.233" clip-rule="evenodd" fill-rule="evenodd"></path>
<path fill="#6C3D62" d="M1235.88 496.511H678.966C674.454 496.511 670.803 492.857 670.803 488.354C670.803 483.852 674.454 480.198 678.966 480.198H1235.88C1240.39 480.198 1244.04 483.852 1244.04 488.354C1244.04 492.857 1240.39 496.511 1235.88 496.511" clip-rule="evenodd" fill-rule="evenodd"></path>
<path fill="#E9E9F1" d="M805.094 400.693H690.525C655.23 400.693 626.618 371.928 626.618 336.445C626.618 300.963 655.23 272.198 690.525 272.198C701.176 272.198 711.218 274.818 720.049 279.451C732.346 243.594 766.205 217.835 806.049 217.835C856.276 217.835 896.993 258.769 896.993 309.264C896.993 310.299 896.976 311.33 896.942 312.356C911.604 320.275 921.573 335.839 921.573 353.743C921.573 379.672 900.664 400.693 874.872 400.693H806.049C805.905 400.693 805.094 400.693 805.094 400.693H806.049H805.094Z" clip-rule="evenodd" fill-rule="evenodd" opacity="0.9"></path>
</g>
<defs>
<linearGradient gradientUnits="userSpaceOnUse" y2="613.396" x2="662.588" y1="2.76389e-06" x1="209.82" id="paint0_linear_604_2752">
<stop stop-color="#4460DF"></stop>
<stop stop-color="#4C73C4" offset="1"></stop>
</linearGradient>
<linearGradient gradientUnits="userSpaceOnUse" y2="1412.9" x2="548.578" y1="462.056" x1="-229.222" id="paint1_linear_604_2752">
<stop stop-color="#445FE2"></stop>
<stop stop-color="#5385AC" offset="1"></stop>
</linearGradient>
<clipPath id="clip0_604_2752">
<rect fill="white" rx="160" height="1024" width="1024"></rect>
</clipPath>
</defs>
</svg>
