<svg xml:space="preserve" style="enable-background:new 0 0 1024 1024;" viewBox="0 0 1024 1024" y="0px" x="0px" xmlns:xlink="http://www.w3.org/1999/xlink" xmlns="http://www.w3.org/2000/svg" id="图层_1" version="1.1">
<style type="text/css">
	.st0{fill:#F2F2F2;}
	.st1{fill:url(#SVGID_1_);}
	.st2{fill:#CECECE;}
	.st3{fill:url(#SVGID_2_);}
	.st4{fill:url(#SVGID_3_);}
	.st5{fill:url(#SVGID_4_);}
	.st6{fill:url(#SVGID_5_);}
	.st7{fill:url(#SVGID_6_);}
	.st8{fill:url(#SVGID_7_);}
	.st9{fill:#FFFFFF;}
	.st10{fill:url(#SVGID_8_);}
</style>
<rect height="1024" width="1024" class="st0"></rect>
<g>
	<linearGradient y2="596.1411" x2="176.5602" y1="626.7813" x1="176.5602" gradientUnits="userSpaceOnUse" id="SVGID_1_">
		<stop style="stop-color:#F2F2F2" offset="0"></stop>
		<stop style="stop-color:#D8D8D8" offset="1"></stop>
	</linearGradient>
	<path d="M143.9,624.4c0,0,5.1-28,26.7-28.3s38.7,30.6,38.7,30.6" class="st1"></path>
	<path d="M680.7,645.3h-284c-10.9,0-19.7-8.8-19.7-19.7V248.7c0-10.9,8.8-19.7,19.7-19.7h284c10.9,0,19.7,8.8,19.7,19.7
		v376.9C700.4,636.5,691.6,645.3,680.7,645.3z" class="st2"></path>
	<linearGradient y2="529.9476" x2="245.6459" y1="603.3235" x1="245.6459" gradientUnits="userSpaceOnUse" id="SVGID_2_">
		<stop style="stop-color:#F2F2F2" offset="0"></stop>
		<stop style="stop-color:#D8D8D8" offset="1"></stop>
	</linearGradient>
	<path d="M167.4,597.7c0,0,12.2-67,63.9-67.7s92.7,73.4,92.7,73.4" class="st3"></path>
	<linearGradient y2="669.8868" x2="714.8035" y1="714.1881" x1="714.8035" gradientUnits="userSpaceOnUse" id="SVGID_3_">
		<stop style="stop-color:#F2F2F2" offset="0"></stop>
		<stop style="stop-color:#D8D8D8" offset="1"></stop>
	</linearGradient>
	<path d="M667.5,710.8c0,0,7.4-40.4,38.6-40.9c31.2-0.5,56,44.3,56,44.3" class="st4"></path>
	<linearGradient y2="692.4841" x2="499.2911" y1="771.821" x1="499.2911" gradientUnits="userSpaceOnUse" id="SVGID_4_">
		<stop style="stop-color:#F2F2F2" offset="0"></stop>
		<stop style="stop-color:#D8D8D8" offset="1"></stop>
	</linearGradient>
	<path d="M414.7,765.7c0,0,13.2-72.4,69.1-73.2c55.8-0.8,100.2,79.3,100.2,79.3" class="st5"></path>
	<linearGradient y2="692.9776" x2="754.4461" y1="723.4935" x1="754.4461" gradientUnits="userSpaceOnUse" id="SVGID_5_">
		<stop style="stop-color:#F2F2F2" offset="0"></stop>
		<stop style="stop-color:#D8D8D8" offset="1"></stop>
	</linearGradient>
	<path d="M721.9,721.1c0,0,5.1-27.8,26.6-28.2c21.5-0.3,38.5,30.5,38.5,30.5" class="st6"></path>
	<path d="M592.4,302H413.6c-5.9,0-10.6-4.8-10.6-10.6v-5.8c0-5.9,4.8-10.6,10.6-10.6h178.8c5.9,0,10.6,4.8,10.6,10.6
		v5.8C603,297.2,598.2,302,592.4,302z" class="st0"></path>
	<path d="M543.8,361H412.2c-5.1,0-9.2-4.1-9.2-9.2v-8.6c0-5.1,4.1-9.2,9.2-9.2h131.6c5.1,0,9.2,4.1,9.2,9.2v8.6
		C553,356.9,548.9,361,543.8,361z" class="st0"></path>
	<path d="M657.4,551H478.6c-5.9,0-10.6-4.8-10.6-10.6v-5.8c0-5.9,4.8-10.6,10.6-10.6h178.8c5.9,0,10.6,4.8,10.6,10.6
		v5.8C668,546.2,663.2,551,657.4,551z" class="st0"></path>
	<path d="M658.8,610H527.2c-5.1,0-9.2-4.1-9.2-9.2v-8.6c0-5.1,4.1-9.2,9.2-9.2h131.6c5.1,0,9.2,4.1,9.2,9.2v8.6
		C668,605.9,663.9,610,658.8,610z" class="st0"></path>
	<g>
		
			<linearGradient gradientTransform="matrix(-1 0 0 1 1531.212 0)" y2="540.5425" x2="1129.4369" y1="540.5425" x1="970.3832" gradientUnits="userSpaceOnUse" id="SVGID_6_">
			<stop style="stop-color:#F2F2F2" offset="0"></stop>
			<stop style="stop-color:#D8D8D8" offset="1"></stop>
		</linearGradient>
		<path d="M401.8,622.9c4.8,2.4,9.8,4.1,14.9,5.3c0.6,0.1,1.2,0.3,1.8,0.4c0.4,0.1,0.8,0.2,1.2,0.2
			c0.6,0.1,1.2,0.2,1.7,0.3c0.5,0.1,0.9,0.1,1.4,0.2c0.4,0.1,0.9,0.1,1.3,0.2c0.5,0.1,1,0.1,1.5,0.2c0.4,0,0.9,0.1,1.3,0.1
			c0.5,0,1.1,0.1,1.6,0.1c0.4,0,0.7,0,1.1,0.1c0.6,0,1.2,0,1.7,0.1c0.3,0,0.7,0,1,0c0.8,0,1.7,0,2.5,0c0.1,0,0.1,0,0.2,0
			c0.9,0,1.8-0.1,2.7-0.1c0.3,0,0.5,0,0.8-0.1c0.6,0,1.3-0.1,1.9-0.2c0.3,0,0.6-0.1,0.9-0.1c0.6-0.1,1.3-0.1,1.9-0.2
			c0.3,0,0.5-0.1,0.8-0.1c0.9-0.1,1.8-0.3,2.7-0.4c0.9-0.1,1.8-0.3,2.6-0.5c0.2,0,0.5-0.1,0.7-0.2c0.7-0.1,1.4-0.3,2.1-0.5
			c0.2-0.1,0.4-0.1,0.6-0.2c0.9-0.2,1.8-0.5,2.7-0.7c0.1,0,0.2-0.1,0.3-0.1c0.8-0.2,1.6-0.5,2.4-0.7c0.2-0.1,0.4-0.1,0.6-0.2
			c0.8-0.3,1.6-0.5,2.4-0.8c0.1,0,0.2-0.1,0.3-0.1c0.9-0.3,1.8-0.7,2.8-1c0.1,0,0.1-0.1,0.2-0.1c0.8-0.3,1.7-0.7,2.5-1
			c0.1-0.1,0.3-0.1,0.4-0.2c0.9-0.4,1.8-0.8,2.7-1.2c0,0,0.1,0,0.1,0c1.2-0.6,2.4-1.2,3.5-1.8c0.1-0.1,0.3-0.1,0.4-0.2
			c1.2-0.6,2.3-1.2,3.4-1.9c0.1-0.1,0.2-0.1,0.4-0.2c2.3-1.4,4.7-2.9,6.9-4.5c0.1-0.1,0.3-0.2,0.4-0.3c1.1-0.8,2.2-1.6,3.3-2.4
			c0,0,0.1-0.1,0.1-0.1c1.1-0.9,2.3-1.8,3.4-2.7c0.2-0.1,0.3-0.3,0.5-0.4c0.9-0.8,1.9-1.6,2.8-2.4c0.3-0.2,0.5-0.5,0.8-0.7
			c2.1-1.9,4.1-3.9,6.1-6c0,0,0.1-0.1,0.1-0.1c1.1-1.1,2.1-2.3,3.1-3.5c0.5-0.5,0.9-1.1,1.4-1.6c0.2-0.2,0.4-0.5,0.6-0.7
			c0.6-0.8,1.3-1.6,1.9-2.4c1-1.2,1.9-2.5,2.8-3.7c0.3-0.4,0.5-0.7,0.8-1.1c0.7-1,1.4-2,2.1-3.1c0.2-0.3,0.4-0.6,0.6-0.9
			c0.8-1.3,1.6-2.6,2.4-3.9c0.2-0.3,0.3-0.6,0.5-0.9c0.6-1.1,1.2-2.1,1.8-3.2c0.2-0.4,0.4-0.7,0.6-1.1c0.7-1.3,1.4-2.7,2.1-4
			c0,0,0,0,0,0c0.7-1.4,1.3-2.8,2-4.2c0.1-0.2,0.2-0.5,0.3-0.7c0.6-1.3,1.1-2.7,1.7-4c0.1-0.2,0.2-0.4,0.2-0.6
			c0.5-1.4,1.1-2.8,1.6-4.2c0.1-0.2,0.1-0.4,0.2-0.6c0.4-1.3,0.8-2.5,1.2-3.8c0.1-0.5,0.3-1,0.4-1.4c0.3-1,0.6-2.1,0.9-3.1
			c0.1-0.4,0.2-0.8,0.3-1.1c0.4-1.4,0.7-2.8,1-4.2c0-0.1,0-0.1,0-0.2c0.3-1.4,0.6-2.8,0.8-4.1c0.1-0.3,0.1-0.6,0.2-0.9
			c0.2-1.4,0.4-2.7,0.6-4.1c0-0.2,0.1-0.5,0.1-0.7c0.2-1.4,0.3-2.9,0.5-4.3c0-0.1,0-0.1,0-0.2c0.1-1.5,0.2-2.9,0.3-4.4
			c0-0.1,0-0.2,0-0.3c0.1-1.2,0.1-2.4,0.1-3.7c0-0.9,0-1.7,0-2.6c0-0.8,0-1.5,0-2.2c0-0.8-0.1-1.7-0.1-2.5c0-0.8-0.1-1.5-0.1-2.3
			c-0.1-0.8-0.1-1.6-0.2-2.4c-0.1-0.8-0.1-1.5-0.2-2.3c-0.1-0.8-0.2-1.6-0.3-2.4c-0.1-0.7-0.2-1.5-0.3-2.2c-0.1-0.8-0.3-1.6-0.4-2.4
			c-0.1-0.7-0.3-1.4-0.4-2.2c-0.2-0.8-0.4-1.7-0.6-2.5c-0.2-0.7-0.4-1.5-0.5-2.2c-0.1-0.2-0.1-0.4-0.2-0.6c-0.4-1.3-0.7-2.5-1.1-3.8
			c-0.1-0.2-0.1-0.4-0.2-0.5c-0.4-1.3-0.9-2.6-1.4-3.8c0-0.1,0-0.1-0.1-0.2c-0.5-1.2-1-2.4-1.5-3.6c-0.1-0.2-0.2-0.4-0.3-0.7
			c-0.5-1.2-1.1-2.4-1.7-3.5c-0.1-0.2-0.2-0.5-0.4-0.7c-0.5-0.9-1-1.8-1.5-2.8c-0.2-0.3-0.4-0.7-0.6-1c-0.6-1.1-1.3-2.2-2-3.3
			c0,0,0-0.1-0.1-0.1c-3.2-4.9-6.9-9.4-11.2-13.5c-5.3-5-11.1-9-17.3-12.1l25.4,12.5c6.2,3,12,7.1,17.3,12.1
			c4.3,4.1,8,8.6,11.2,13.5l0,0c0,0,0,0,0,0c0,0,0,0.1,0.1,0.1c0.7,1.1,1.4,2.2,2,3.3c0.2,0.3,0.4,0.7,0.6,1
			c0.2,0.4,0.5,0.8,0.7,1.3c0.3,0.5,0.5,1,0.8,1.5c0.1,0.2,0.2,0.5,0.4,0.7c0.5,1,1,2,1.4,3c0.1,0.2,0.1,0.3,0.2,0.5
			c0.1,0.2,0.2,0.4,0.3,0.7c0.5,1.2,1,2.4,1.5,3.6c0,0.1,0,0.1,0.1,0.2c0,0,0,0,0,0.1c0.5,1.2,0.9,2.5,1.3,3.8
			c0.1,0.2,0.1,0.4,0.2,0.5c0,0.1,0.1,0.3,0.1,0.4c0.4,1.1,0.7,2.2,1,3.4c0.1,0.2,0.1,0.4,0.2,0.6c0.1,0.2,0.1,0.4,0.2,0.7
			c0.1,0.5,0.2,1,0.4,1.5c0.2,0.8,0.4,1.7,0.6,2.5c0,0.2,0.1,0.4,0.1,0.6c0.1,0.5,0.2,1.1,0.3,1.6c0.2,0.8,0.3,1.6,0.4,2.4
			c0,0.2,0.1,0.4,0.1,0.6c0.1,0.5,0.1,1,0.2,1.6c0.1,0.8,0.2,1.6,0.3,2.4c0,0.2,0.1,0.5,0.1,0.7c0.1,0.5,0.1,1,0.1,1.6
			c0.1,0.8,0.2,1.6,0.2,2.4c0,0.3,0.1,0.5,0.1,0.8c0,0.5,0,1,0.1,1.5c0,0.8,0.1,1.7,0.1,2.5c0,0.3,0,0.5,0,0.8c0,0.5,0,1,0,1.4
			c0,0.9,0,1.7,0,2.6c0,0.3,0,0.6,0,0.9c0,0.9-0.1,1.8-0.1,2.7c0,0.1,0,0.2,0,0.4c0,0.7-0.1,1.3-0.1,2c-0.1,0.8-0.1,1.6-0.2,2.4
			c0,0.1,0,0.1,0,0.2c-0.1,0.9-0.2,1.8-0.3,2.8c-0.1,0.5-0.1,1-0.2,1.5c0,0.2-0.1,0.5-0.1,0.7c-0.2,1.1-0.3,2.3-0.5,3.4
			c0,0.2-0.1,0.5-0.1,0.7c-0.1,0.3-0.1,0.6-0.2,0.9c-0.2,1.4-0.5,2.8-0.8,4.1c0,0.1,0,0.1,0,0.2c0,0,0,0,0,0.1
			c-0.3,1.4-0.6,2.8-1,4.2c-0.1,0.4-0.2,0.8-0.3,1.1c-0.1,0.4-0.2,0.9-0.3,1.3c-0.2,0.6-0.4,1.2-0.5,1.8c-0.1,0.5-0.3,1-0.4,1.4
			c-0.4,1.3-0.8,2.5-1.2,3.8c-0.1,0.2-0.1,0.4-0.2,0.6c0,0,0,0.1,0,0.1c-0.5,1.4-1,2.8-1.5,4.1c-0.1,0.2-0.2,0.4-0.2,0.6
			c-0.5,1.4-1.1,2.7-1.7,4c-0.1,0.2-0.2,0.5-0.3,0.7c-0.1,0.3-0.3,0.6-0.4,1c-0.5,1.1-1,2.2-1.5,3.2c0,0,0,0,0,0
			c-0.7,1.4-1.4,2.7-2.1,4c-0.2,0.4-0.4,0.7-0.6,1.1c-0.6,1.1-1.2,2.1-1.8,3.2c-0.2,0.3-0.3,0.6-0.5,0.9c-0.8,1.3-1.6,2.6-2.4,3.9
			c-0.2,0.3-0.4,0.6-0.6,0.9c-0.7,1-1.4,2.1-2.1,3.1c-0.3,0.4-0.5,0.7-0.8,1.1c-0.9,1.3-1.8,2.5-2.8,3.7c-0.6,0.8-1.3,1.6-1.9,2.4
			c-0.2,0.2-0.4,0.5-0.6,0.7c-0.5,0.6-0.9,1.1-1.4,1.6c-0.1,0.1-0.2,0.3-0.4,0.4c-2.1,2.4-4.2,4.6-6.4,6.7c0,0-0.1,0.1-0.1,0.1
			c-0.4,0.3-0.7,0.7-1.1,1c-0.6,0.6-1.2,1.1-1.8,1.7c-0.2,0.2-0.4,0.3-0.6,0.5c-1.2,1-2.3,2-3.5,3c-1,0.9-2.1,1.7-3.2,2.5
			c-0.1,0.1-0.3,0.2-0.4,0.3c-0.6,0.4-1.1,0.9-1.7,1.3c-0.5,0.3-0.9,0.7-1.4,1c-0.1,0.1-0.2,0.2-0.3,0.2c-1,0.7-2,1.4-3.1,2.1
			c-0.1,0.1-0.3,0.2-0.4,0.2c0,0-0.1,0-0.1,0.1c-1.1,0.7-2.3,1.4-3.5,2.1c-0.1,0-0.1,0.1-0.2,0.1c-0.1,0.1-0.3,0.2-0.4,0.2
			c-1,0.6-2,1.1-3,1.7c-0.1,0.1-0.3,0.1-0.4,0.2c-0.3,0.2-0.6,0.3-1,0.5c-0.8,0.4-1.7,0.8-2.5,1.2c-0.1,0-0.2,0.1-0.2,0.1
			c-0.5,0.2-1.1,0.5-1.6,0.7c-1.4,0.6-2.9,1.2-4.3,1.8c-1.4,0.6-2.8,1.1-4.3,1.5c-1.4,0.5-2.8,0.9-4.3,1.3c-1,0.3-2,0.5-3,0.8
			c-0.1,0-0.3,0.1-0.4,0.1c-0.3,0.1-0.6,0.1-0.9,0.2c-0.4,0.1-0.8,0.2-1.2,0.2c-0.2,0-0.4,0.1-0.6,0.1c-0.8,0.2-1.7,0.3-2.5,0.5
			c0,0-0.1,0-0.1,0c-0.9,0.1-1.7,0.3-2.6,0.4c-0.3,0-0.5,0.1-0.8,0.1c-0.4,0-0.8,0.1-1.1,0.1c-0.3,0-0.5,0-0.8,0.1
			c-0.3,0-0.6,0.1-0.9,0.1c-0.6,0.1-1.3,0.1-1.9,0.2c-0.3,0-0.5,0-0.8,0.1c-0.1,0-0.2,0-0.3,0c-0.8,0-1.6,0.1-2.4,0.1
			c-0.1,0-0.1,0-0.2,0c-0.7,0-1.5,0-2.2,0c-0.1,0-0.2,0-0.3,0c-0.3,0-0.7,0-1,0c-0.6,0-1.1,0-1.7-0.1c-0.4,0-0.7,0-1.1-0.1
			c-0.3,0-0.7,0-1-0.1c-0.2,0-0.4,0-0.6-0.1c-0.5,0-0.9-0.1-1.3-0.1c-0.5-0.1-1-0.1-1.5-0.2c-0.4-0.1-0.9-0.1-1.3-0.2
			c-0.3,0-0.5-0.1-0.8-0.1c-0.2,0-0.4-0.1-0.6-0.1c-0.6-0.1-1.2-0.2-1.8-0.3c-0.4-0.1-0.8-0.2-1.2-0.2c-0.6-0.1-1.2-0.3-1.8-0.4
			c-0.3-0.1-0.6-0.1-0.9-0.2l0,0c-4.8-1.2-9.5-2.9-14-5.1L401.8,622.9z" class="st7"></path>
		
			<linearGradient gradientTransform="matrix(-1 0 0 1 1531.212 0)" y2="684.785" x2="1273.3755" y1="684.785" x1="1179.2854" gradientUnits="userSpaceOnUse" id="SVGID_7_">
			<stop style="stop-color:#F2F2F2" offset="0"></stop>
			<stop style="stop-color:#D8D8D8" offset="1"></stop>
		</linearGradient>
		<path d="M257.8,704c0-0.1,0-0.3,0-0.4c0-0.2,0-0.5,0-0.7c0-0.1,0-0.2,0-0.3c0-0.1,0-0.3,0-0.4c0-0.3,0-0.5,0-0.8
			c0-0.1,0-0.2,0-0.3c0-0.1,0-0.2,0-0.3c0-0.3,0-0.6,0.1-0.9c0-0.1,0-0.2,0-0.4c0-0.1,0-0.2,0-0.3c0-0.3,0.1-0.7,0.1-1
			c0-0.1,0-0.3,0.1-0.4c0,0,0-0.1,0-0.1c0.1-0.5,0.2-1.1,0.3-1.6c0,0,0,0,0,0c0,0,0,0,0,0c0.1-0.6,0.3-1.1,0.4-1.7
			c0-0.1,0-0.1,0.1-0.2c0-0.1,0-0.2,0.1-0.2c0.2-0.7,0.4-1.3,0.6-2c0,0,0,0,0,0c0,0,0-0.1,0-0.1c0.2-0.4,0.3-0.9,0.5-1.3
			c0.1-0.2,0.1-0.3,0.2-0.5c0.1-0.3,0.3-0.6,0.4-0.9c0-0.1,0-0.1,0.1-0.2c0-0.1,0.1-0.2,0.1-0.3c0.2-0.5,0.4-0.9,0.7-1.3
			c0.1-0.1,0.1-0.3,0.2-0.4c0.3-0.5,0.6-1.1,0.9-1.6c0.1-0.1,0.1-0.2,0.2-0.3c0.3-0.5,0.6-0.9,0.9-1.3c0.1-0.1,0.2-0.3,0.3-0.4
			c0.4-0.5,0.7-1,1.1-1.6l30.2-38.5c0.4-0.5,0.7-0.9,1.1-1.4c0,0,0.1-0.1,0.1-0.1c0.1-0.1,0.2-0.2,0.3-0.3c0.2-0.2,0.4-0.4,0.6-0.6
			c0.2-0.2,0.3-0.3,0.5-0.5c0.2-0.2,0.4-0.4,0.6-0.6c0.1-0.1,0.1-0.1,0.2-0.2c0.1-0.1,0.1-0.1,0.2-0.2c0.5-0.5,1-0.9,1.5-1.3
			c0,0,0,0,0,0c0,0,0.1,0,0.1-0.1c0.4-0.3,0.8-0.7,1.2-1c0.1,0,0.1-0.1,0.2-0.1c0.1-0.1,0.2-0.1,0.3-0.2c0.3-0.2,0.6-0.4,0.8-0.6
			c0.1-0.1,0.2-0.1,0.3-0.2c0.1,0,0.1-0.1,0.2-0.1c0.3-0.2,0.5-0.3,0.8-0.5c0.1-0.1,0.2-0.1,0.3-0.2c0,0,0.1,0,0.1-0.1
			c0.3-0.1,0.5-0.3,0.8-0.4c0.1-0.1,0.3-0.1,0.4-0.2c0,0,0.1,0,0.1,0c0.3-0.1,0.5-0.2,0.8-0.4c0.1-0.1,0.3-0.1,0.4-0.2c0,0,0,0,0,0
			c0.3-0.1,0.5-0.2,0.8-0.3c0.1-0.1,0.3-0.1,0.4-0.2c0,0,0,0,0,0c0.2-0.1,0.5-0.2,0.7-0.3c0.2-0.1,0.3-0.1,0.5-0.2c0,0,0,0,0,0
			c0.3-0.1,0.5-0.2,0.8-0.2c0.1,0,0.3-0.1,0.4-0.1c0,0,0,0,0,0c0.4-0.1,0.7-0.2,1.1-0.3c0,0,0.1,0,0.1,0c0,0,0,0,0,0
			c0.4-0.1,0.8-0.2,1.2-0.2c0,0,0,0,0,0c0.4-0.1,0.9-0.1,1.3-0.2c0.1,0,0.1,0,0.2,0c0.2,0,0.3,0,0.5,0c0.2,0,0.4,0,0.6-0.1
			c0.1,0,0.3,0,0.4,0c0.2,0,0.4,0,0.6,0c0.1,0,0.3,0,0.4,0c0.2,0,0.4,0,0.6,0c0.2,0,0.4,0,0.6,0c0.1,0,0.2,0,0.3,0
			c0.2,0,0.4,0,0.6,0.1c0.3,0,0.5,0.1,0.8,0.1c0.1,0,0.1,0,0.2,0c0.2,0,0.3,0.1,0.5,0.1c0.3,0.1,0.7,0.1,1,0.2c0.1,0,0.2,0,0.3,0.1
			c0.3,0.1,0.5,0.1,0.8,0.2c0.1,0,0.1,0,0.2,0.1c0.4,0.1,0.8,0.2,1.2,0.4c0,0,0.1,0,0.1,0.1c0.6,0.2,1.2,0.5,1.7,0.7l25.4,12.5
			c-0.6-0.3-1.1-0.5-1.7-0.7c-0.4-0.2-0.9-0.3-1.3-0.5c-0.1,0-0.1,0-0.2-0.1c-0.4-0.1-0.7-0.2-1.1-0.3c-0.3-0.1-0.7-0.1-1-0.2
			c-0.2,0-0.5-0.1-0.7-0.1c-0.3,0-0.5-0.1-0.8-0.1c-0.3,0-0.6-0.1-0.9-0.1c-0.2,0-0.4,0-0.6,0c-0.3,0-0.6,0-1,0c-0.2,0-0.4,0-0.6,0
			c-0.4,0-0.7,0-1.1,0.1c-0.2,0-0.3,0-0.5,0c-0.5,0.1-1,0.1-1.5,0.2c-0.4,0.1-0.8,0.1-1.2,0.2c-0.1,0-0.2,0-0.2,0.1
			c-0.3,0.1-0.7,0.2-1,0.3c-0.2,0-0.3,0.1-0.5,0.1c-0.2,0.1-0.5,0.1-0.7,0.2c-0.2,0.1-0.3,0.1-0.5,0.2c-0.2,0.1-0.5,0.2-0.7,0.3
			c-0.2,0.1-0.3,0.1-0.5,0.2c-0.2,0.1-0.5,0.2-0.7,0.3c-0.2,0.1-0.3,0.1-0.5,0.2c-0.3,0.1-0.5,0.2-0.8,0.4c-0.2,0.1-0.3,0.2-0.5,0.2
			c-0.3,0.1-0.5,0.3-0.8,0.4c-0.2,0.1-0.3,0.2-0.5,0.3c-0.3,0.2-0.5,0.3-0.8,0.5c-0.2,0.1-0.3,0.2-0.5,0.3c-0.3,0.2-0.6,0.4-0.8,0.6
			c-0.1,0.1-0.3,0.2-0.4,0.3c-0.4,0.3-0.8,0.6-1.2,1c0,0-0.1,0.1-0.1,0.1c-0.5,0.4-1,0.9-1.5,1.3c-0.1,0.1-0.3,0.2-0.4,0.4
			c-0.2,0.2-0.4,0.4-0.6,0.6c-0.2,0.2-0.3,0.3-0.5,0.5c-0.2,0.2-0.4,0.4-0.6,0.6c-0.1,0.2-0.3,0.3-0.4,0.5c-0.4,0.4-0.8,0.9-1.1,1.4
			l-30.2,38.5c-0.4,0.5-0.8,1-1.1,1.6c-0.1,0.1-0.2,0.3-0.3,0.4c-0.3,0.4-0.6,0.9-0.9,1.3c-0.1,0.1-0.1,0.2-0.2,0.3
			c-0.3,0.5-0.6,1.1-0.9,1.6c-0.1,0.1-0.1,0.3-0.2,0.4c-0.2,0.4-0.5,0.9-0.7,1.3c-0.1,0.1-0.1,0.3-0.2,0.4c-0.1,0.3-0.3,0.6-0.4,0.9
			c-0.1,0.2-0.1,0.3-0.2,0.5c-0.2,0.4-0.3,0.9-0.5,1.3c0,0,0,0.1-0.1,0.1c-0.2,0.7-0.4,1.3-0.6,2c0,0.1-0.1,0.3-0.1,0.4
			c-0.1,0.6-0.3,1.1-0.4,1.7c0,0,0,0,0,0c-0.1,0.5-0.2,1.1-0.3,1.6c0,0.2-0.1,0.4-0.1,0.5c0,0.3-0.1,0.7-0.1,1c0,0.2,0,0.4-0.1,0.6
			c0,0.3-0.1,0.6-0.1,0.9c0,0.2,0,0.4,0,0.6c0,0.3,0,0.5,0,0.8c0,0.2,0,0.4,0,0.6c0,0.2,0,0.5,0,0.7c0,0.2,0,0.4,0,0.6
			c0,0.2,0,0.5,0,0.7c0,0.2,0,0.4,0,0.6c0,0.2,0,0.5,0.1,0.7c0,0.2,0,0.4,0.1,0.7c0,0.2,0.1,0.5,0.1,0.7c0,0.2,0.1,0.4,0.1,0.6
			c0,0.2,0.1,0.5,0.1,0.7c0,0.2,0.1,0.4,0.1,0.6c0.1,0.2,0.1,0.5,0.2,0.7c0,0.2,0.1,0.4,0.1,0.6c0.1,0.3,0.1,0.5,0.2,0.8
			c0.1,0.2,0.1,0.3,0.2,0.5c0.1,0.3,0.2,0.7,0.4,1c0,0.1,0.1,0.2,0.1,0.3c0.2,0.4,0.4,0.9,0.5,1.3c0.1,0.1,0.1,0.2,0.2,0.3
			c0.2,0.4,0.3,0.7,0.5,1c0.1,0.1,0.1,0.3,0.2,0.4c0.3,0.5,0.6,1,0.9,1.4c0,0,0,0,0,0c0.4,0.6,0.9,1.2,1.3,1.8c0,0,0.1,0.1,0.1,0.1
			c0.2,0.2,0.4,0.4,0.6,0.7c0.1,0.1,0.2,0.2,0.3,0.3c0.3,0.3,0.6,0.6,0.9,0.9c1.5,1.5,3.2,2.6,5,3.5l-25.4-12.5
			c-1.8-0.9-3.5-2-5-3.5c-0.3-0.3-0.6-0.6-0.9-0.9c-0.1-0.1-0.2-0.2-0.3-0.3c-0.2-0.2-0.4-0.4-0.6-0.6c0,0,0,0,0-0.1
			c0,0,0-0.1-0.1-0.1c-0.5-0.6-0.9-1.2-1.3-1.8c0,0,0,0,0,0c0,0,0,0,0,0c-0.3-0.5-0.6-1-0.9-1.4c0-0.1-0.1-0.1-0.1-0.2
			c0-0.1-0.1-0.1-0.1-0.2c-0.2-0.3-0.4-0.7-0.5-1c0-0.1-0.1-0.2-0.1-0.2c0,0,0-0.1,0-0.1c-0.2-0.4-0.4-0.9-0.5-1.3c0,0,0,0,0,0
			c0-0.1-0.1-0.2-0.1-0.3c-0.1-0.3-0.2-0.7-0.4-1c0,0,0-0.1,0-0.1c0-0.1-0.1-0.3-0.1-0.4c-0.1-0.3-0.2-0.5-0.2-0.8c0,0,0-0.1,0-0.1
			c0-0.1-0.1-0.3-0.1-0.4c-0.1-0.2-0.1-0.5-0.2-0.7c0-0.1,0-0.1,0-0.2c0-0.1-0.1-0.3-0.1-0.5c0-0.2-0.1-0.5-0.1-0.7
			c0-0.1,0-0.1,0-0.2c0-0.1,0-0.3-0.1-0.4c0-0.2-0.1-0.5-0.1-0.7c0-0.1,0-0.1,0-0.2c0-0.1,0-0.3,0-0.4c0-0.2,0-0.5-0.1-0.7
			c0-0.1,0-0.1,0-0.2c0-0.1,0-0.3,0-0.4c0-0.2,0-0.5,0-0.7C257.8,704.2,257.8,704.1,257.8,704z" class="st8"></path>
		<g>
			<path d="M339,644.5c-6.5,1.1-13,5-18,11.4l-30.2,38.5c-10,12.8-10.1,30.7-0.2,40.1c4.9,4.7,11.4,6.4,18,5.3
				c6.5-1.1,13-5,18-11.4l30.2-38.5c10-12.8,10.1-30.7,0.2-40.1C352,645,345.5,643.3,339,644.5z" class="st9"></path>
		</g>
		
			<linearGradient gradientTransform="matrix(-1 0 0 1 1531.212 0)" y2="531.9275" x2="1206.0802" y1="531.9275" x1="995.5723" gradientUnits="userSpaceOnUse" id="SVGID_8_">
			<stop style="stop-color:#F2F2F2" offset="0"></stop>
			<stop style="stop-color:#D8D8D8" offset="1"></stop>
		</linearGradient>
		<path d="M325.3,558.4c0-0.6,0-1.2-0.1-1.7c0-0.4,0-0.7,0-1.1c0-0.1,0-0.3,0-0.5c0-0.6,0-1.2,0-1.8c0-0.5,0-1,0-1.5
			c0-0.6,0-1.2,0-1.8c0-0.4,0-0.8,0-1.2c0-0.1,0-0.2,0-0.3c0-0.7,0-1.4,0.1-2.1c0-0.4,0-0.9,0-1.3c0-0.8,0.1-1.5,0.1-2.3
			c0-0.3,0-0.7,0.1-1c0,0,0-0.1,0-0.1c0.1-1.2,0.2-2.3,0.3-3.5c0-0.3,0.1-0.6,0.1-0.8c0.1-0.9,0.2-1.8,0.3-2.7c0-0.1,0-0.2,0-0.3
			c0-0.3,0.1-0.6,0.1-0.9c0.1-0.8,0.2-1.6,0.3-2.5c0.1-0.5,0.1-0.9,0.2-1.4c0.1-0.8,0.2-1.5,0.3-2.3c0-0.2,0.1-0.5,0.1-0.7
			c0-0.2,0.1-0.4,0.1-0.6c0.2-0.9,0.3-1.8,0.5-2.7c0.1-0.4,0.1-0.8,0.2-1.1c0.2-1.3,0.5-2.5,0.8-3.8c0,0,0,0,0-0.1
			c0-0.1,0-0.2,0.1-0.3c0.3-1.3,0.6-2.5,0.9-3.8c0.1-0.4,0.2-0.8,0.3-1.2c0.3-1.1,0.6-2.2,0.8-3.2c0.1-0.2,0.1-0.4,0.2-0.7
			c0-0.1,0-0.2,0.1-0.2c0.4-1.6,0.9-3.1,1.4-4.7c0.1-0.3,0.2-0.7,0.3-1c0.5-1.6,1-3.1,1.6-4.7c0,0,0-0.1,0-0.1
			c0.1-0.3,0.2-0.5,0.3-0.8c0.3-0.9,0.6-1.7,0.9-2.6c0.2-0.4,0.3-0.9,0.5-1.3c0.3-0.7,0.6-1.5,0.8-2.2c0.2-0.5,0.4-0.9,0.6-1.4
			c0.3-0.7,0.6-1.4,0.9-2.1c0.2-0.5,0.4-0.9,0.6-1.4c0.3-0.7,0.6-1.4,0.9-2c0.1-0.3,0.2-0.5,0.4-0.8c0.1-0.2,0.2-0.3,0.2-0.5
			c0.6-1.4,1.3-2.7,1.9-4c0,0,0,0,0,0c0.7-1.3,1.3-2.6,2-4c0.2-0.4,0.4-0.7,0.6-1.1c0.6-1.1,1.2-2.2,1.8-3.3
			c0.1-0.2,0.3-0.5,0.4-0.7c0.7-1.3,1.5-2.6,2.3-3.9c0.2-0.3,0.4-0.6,0.6-1c0.6-1,1.3-2.1,1.9-3.1c0.2-0.3,0.4-0.6,0.6-0.9
			c0.8-1.3,1.7-2.5,2.5-3.8c0.2-0.2,0.3-0.4,0.5-0.7c0.7-1.1,1.5-2.1,2.2-3.1c0.2-0.3,0.5-0.7,0.7-1c0.9-1.2,1.8-2.5,2.8-3.7
			c0.9-1.1,1.8-2.2,2.7-3.3c0.3-0.3,0.6-0.7,0.8-1c0.6-0.8,1.3-1.5,1.9-2.3c0.2-0.2,0.3-0.4,0.5-0.6c0.2-0.2,0.3-0.4,0.5-0.5
			c0.5-0.5,0.9-1,1.4-1.5c0.4-0.4,0.7-0.8,1.1-1.2c0.5-0.5,0.9-1,1.4-1.5c0.4-0.4,0.7-0.8,1.1-1.2c0.5-0.5,1-1,1.5-1.5
			c0.4-0.4,0.7-0.7,1.1-1.1c0.5-0.5,1-1,1.6-1.5c0.3-0.3,0.6-0.6,0.9-0.8c0,0,0.1-0.1,0.1-0.1c1.2-1.1,2.4-2.2,3.5-3.2
			c0.3-0.2,0.5-0.5,0.8-0.7c1.2-1.1,2.4-2.1,3.6-3.1c0,0,0,0,0.1,0c0.1-0.1,0.2-0.1,0.3-0.2c1-0.8,1.9-1.6,2.9-2.3
			c0.3-0.2,0.6-0.5,1-0.7c0.8-0.6,1.7-1.3,2.5-1.9c0.2-0.1,0.4-0.3,0.6-0.4c0.1-0.1,0.2-0.1,0.3-0.2c1-0.7,2-1.4,3-2.1
			c0,0,0.1,0,0.1-0.1c1-0.7,2-1.3,3-2c0.1-0.1,0.2-0.1,0.3-0.2c0.3-0.2,0.5-0.3,0.8-0.5c0.6-0.4,1.3-0.8,1.9-1.2
			c0.4-0.2,0.8-0.5,1.2-0.7c0.6-0.4,1.2-0.7,1.8-1.1c0.2-0.1,0.4-0.3,0.6-0.4c0.2-0.1,0.4-0.2,0.6-0.3c0.6-0.3,1.1-0.6,1.7-0.9
			c0.4-0.2,0.9-0.5,1.3-0.7c0.6-0.3,1.1-0.6,1.7-0.9c0.3-0.1,0.6-0.3,0.9-0.5c0.1-0.1,0.3-0.1,0.4-0.2c0.5-0.3,1.1-0.5,1.6-0.8
			c0.4-0.2,0.9-0.4,1.3-0.6c0.6-0.3,1.1-0.5,1.7-0.8c0.3-0.2,0.7-0.3,1-0.5c0.1,0,0.2-0.1,0.3-0.1c0.5-0.2,1.1-0.5,1.6-0.7
			c0.4-0.2,0.9-0.4,1.3-0.6c0.5-0.2,1.1-0.4,1.6-0.7c0.4-0.1,0.8-0.3,1.1-0.5c0.1,0,0.1,0,0.2-0.1c0.5-0.2,1-0.4,1.6-0.6
			c0.4-0.2,0.9-0.3,1.3-0.5c0.5-0.2,1.1-0.4,1.6-0.6c0.4-0.1,0.8-0.3,1.2-0.4c0,0,0.1,0,0.1,0c0.5-0.2,1.1-0.3,1.6-0.5
			c0.4-0.1,0.9-0.3,1.3-0.4c0.6-0.2,1.1-0.3,1.7-0.5c0.4-0.1,0.8-0.2,1.2-0.3c0,0,0.1,0,0.1,0c0.6-0.2,1.2-0.3,1.8-0.5
			c0.4-0.1,0.8-0.2,1.1-0.3c0.7-0.2,1.4-0.3,2.1-0.5c0.3-0.1,0.6-0.1,0.8-0.2c0,0,0,0,0,0c0.7-0.2,1.4-0.3,2.1-0.4
			c0.3-0.1,0.6-0.1,0.9-0.2c1-0.2,2-0.4,2.9-0.5c0.1,0,0.1,0,0.2,0c1.2-0.2,2.4-0.4,3.6-0.5c0.4,0,0.7-0.1,1.1-0.1
			c0.5-0.1,1.1-0.1,1.6-0.2c0.4,0,0.7-0.1,1.1-0.1c0.4,0,0.8-0.1,1.3-0.1c0.9-0.1,1.8-0.1,2.7-0.2c0.3,0,0.7-0.1,1-0.1
			c0.1,0,0.2,0,0.4,0c1.1-0.1,2.2-0.1,3.4-0.1c0.1,0,0.1,0,0.2,0c1,0,2.1,0,3.1,0c0.1,0,0.3,0,0.4,0c0.5,0,0.9,0,1.4,0
			c0.8,0,1.6,0,2.4,0.1c0.5,0,1,0.1,1.5,0.1c0.5,0,0.9,0,1.4,0.1c0.3,0,0.5,0.1,0.8,0.1c0.6,0.1,1.2,0.1,1.9,0.2
			c0.7,0.1,1.4,0.1,2,0.2c0.6,0.1,1.2,0.2,1.9,0.2c0.4,0.1,0.7,0.1,1.1,0.1c0.3,0,0.5,0.1,0.8,0.1c0.8,0.1,1.6,0.3,2.4,0.4
			c0.6,0.1,1.1,0.2,1.7,0.3c0.8,0.2,1.7,0.4,2.5,0.6c0.4,0.1,0.8,0.2,1.2,0.3c0.2,0,0.4,0.1,0.6,0.1c0.3,0.1,0.6,0.2,0.9,0.2
			c0.9,0.2,1.8,0.5,2.7,0.8c0.3,0.1,0.5,0.1,0.8,0.2c1.1,0.3,2.2,0.7,3.3,1.1c0.2,0.1,0.5,0.2,0.7,0.3c0.5,0.2,1,0.4,1.6,0.6
			c0.4,0.2,0.8,0.3,1.3,0.5c0.2,0.1,0.4,0.2,0.6,0.2c1.1,0.4,2.1,0.9,3.2,1.3c0.2,0.1,0.4,0.2,0.6,0.3c1.1,0.5,2.2,1,3.2,1.5
			l25.4,12.5c-1.1-0.5-2.2-1-3.2-1.5c-0.2-0.1-0.4-0.2-0.6-0.3c-1.1-0.5-2.1-0.9-3.2-1.3c-0.2-0.1-0.4-0.2-0.6-0.2
			c-0.9-0.4-1.9-0.7-2.8-1c-0.2-0.1-0.5-0.2-0.7-0.3c-1.1-0.4-2.2-0.7-3.3-1.1c-0.3-0.1-0.5-0.1-0.8-0.2c-0.9-0.3-1.8-0.5-2.7-0.8
			c-0.3-0.1-0.6-0.2-0.9-0.2c-0.6-0.1-1.2-0.3-1.8-0.4c-0.8-0.2-1.6-0.4-2.5-0.6c-0.6-0.1-1.1-0.2-1.7-0.3c-0.8-0.2-1.6-0.3-2.4-0.4
			c-0.6-0.1-1.3-0.2-1.9-0.3c-0.6-0.1-1.2-0.2-1.9-0.2c-0.7-0.1-1.4-0.2-2-0.2c-0.6-0.1-1.2-0.1-1.9-0.2c-0.7-0.1-1.5-0.1-2.2-0.2
			c-0.5,0-1-0.1-1.5-0.1c-0.8,0-1.6-0.1-2.4-0.1c-0.5,0-0.9,0-1.4,0c-1.2,0-2.3,0-3.5,0c-0.1,0-0.1,0-0.2,0c-1.2,0-2.5,0.1-3.7,0.2
			c-0.3,0-0.7,0-1,0.1c-0.9,0.1-1.8,0.1-2.7,0.2c-0.4,0-0.8,0.1-1.3,0.1c-0.9,0.1-1.8,0.2-2.7,0.3c-0.4,0-0.7,0.1-1.1,0.1
			c-1.2,0.2-2.5,0.4-3.7,0.6c-1,0.2-2,0.3-2.9,0.5c-0.3,0.1-0.6,0.1-1,0.2c-0.7,0.1-1.3,0.3-2,0.4c-0.3,0.1-0.6,0.1-0.8,0.2
			c-0.7,0.2-1.4,0.3-2.1,0.5c-0.4,0.1-0.8,0.2-1.2,0.3c-0.6,0.2-1.2,0.3-1.8,0.5c-0.4,0.1-0.9,0.3-1.3,0.4c-0.5,0.2-1.1,0.3-1.6,0.5
			c-0.4,0.1-0.9,0.3-1.3,0.4c-0.5,0.2-1.1,0.3-1.6,0.5c-0.4,0.1-0.9,0.3-1.3,0.5c-0.5,0.2-1.1,0.4-1.6,0.6c-0.5,0.2-0.9,0.3-1.4,0.5
			c-0.5,0.2-1,0.4-1.6,0.6c-0.4,0.2-0.9,0.3-1.3,0.5c-0.5,0.2-1.1,0.4-1.6,0.7c-0.4,0.2-0.9,0.4-1.3,0.6c-0.5,0.2-1.1,0.5-1.6,0.7
			c-0.4,0.2-0.9,0.4-1.3,0.6c-0.6,0.3-1.1,0.5-1.7,0.8c-0.4,0.2-0.9,0.4-1.3,0.6c-0.5,0.3-1.1,0.5-1.6,0.8c-0.4,0.2-0.8,0.4-1.3,0.6
			c-0.6,0.3-1.1,0.6-1.7,0.9c-0.4,0.2-0.9,0.5-1.3,0.7c-0.6,0.3-1.1,0.6-1.7,0.9c-0.4,0.2-0.8,0.5-1.2,0.7c-0.6,0.4-1.2,0.7-1.8,1.1
			c-0.4,0.2-0.8,0.5-1.2,0.7c-0.6,0.4-1.3,0.8-1.9,1.2c-0.4,0.2-0.7,0.5-1.1,0.7c-1,0.6-2,1.3-3,2c0,0-0.1,0.1-0.1,0.1
			c-1,0.7-2,1.4-3,2.1c-0.3,0.2-0.5,0.4-0.8,0.6c-0.8,0.6-1.7,1.3-2.5,1.9c-0.3,0.2-0.6,0.5-1,0.7c-1,0.8-1.9,1.5-2.9,2.3
			c-0.1,0.1-0.2,0.2-0.3,0.3c-1.2,1-2.4,2.1-3.6,3.1c-0.3,0.2-0.5,0.5-0.8,0.7c-1.2,1.1-2.4,2.1-3.5,3.2c-0.3,0.3-0.7,0.6-1,0.9
			c-0.5,0.5-1.1,1-1.6,1.5c-0.4,0.4-0.7,0.7-1.1,1.1c-0.5,0.5-1,1-1.5,1.5c-0.4,0.4-0.7,0.8-1.1,1.2c-0.5,0.5-0.9,1-1.4,1.5
			c-0.4,0.4-0.7,0.8-1.1,1.2c-0.5,0.5-0.9,1-1.4,1.5c-0.3,0.4-0.7,0.7-1,1.1c-0.7,0.8-1.3,1.5-1.9,2.3c-0.3,0.3-0.6,0.7-0.8,1
			c-0.9,1.1-1.8,2.2-2.7,3.3c-1,1.2-1.9,2.4-2.8,3.7c-0.2,0.3-0.5,0.7-0.7,1c-0.8,1-1.5,2.1-2.2,3.1c-0.2,0.2-0.3,0.4-0.5,0.7
			c-0.9,1.2-1.7,2.5-2.5,3.8c-0.2,0.3-0.4,0.6-0.6,0.9c-0.7,1-1.3,2.1-1.9,3.1c-0.2,0.3-0.4,0.6-0.6,1c-0.8,1.3-1.5,2.6-2.3,3.9
			c-0.1,0.2-0.3,0.5-0.4,0.7c-0.6,1.1-1.2,2.2-1.8,3.3c-0.2,0.4-0.4,0.7-0.6,1.1c-0.7,1.3-1.4,2.6-2,4c0,0,0,0,0,0
			c-0.7,1.3-1.3,2.7-1.9,4c-0.2,0.4-0.4,0.9-0.6,1.3c-0.3,0.7-0.6,1.4-0.9,2c-0.2,0.5-0.4,0.9-0.6,1.4c-0.3,0.7-0.6,1.4-0.9,2.1
			c-0.2,0.5-0.4,0.9-0.6,1.4c-0.3,0.7-0.6,1.5-0.8,2.2c-0.2,0.4-0.3,0.9-0.5,1.3c-0.3,0.9-0.6,1.7-0.9,2.6c-0.1,0.3-0.2,0.6-0.3,0.9
			c-0.5,1.6-1.1,3.1-1.6,4.7c-0.1,0.3-0.2,0.7-0.3,1c-0.5,1.6-0.9,3.1-1.4,4.7c-0.1,0.3-0.2,0.6-0.2,0.9c-0.3,1.1-0.6,2.2-0.8,3.2
			c-0.1,0.4-0.2,0.8-0.3,1.2c-0.3,1.3-0.6,2.5-0.9,3.8c0,0.1,0,0.2-0.1,0.3c-0.3,1.3-0.5,2.5-0.8,3.8c-0.1,0.4-0.1,0.8-0.2,1.1
			c-0.2,0.9-0.3,1.8-0.5,2.7c-0.1,0.5-0.2,0.9-0.2,1.4c-0.1,0.8-0.2,1.5-0.3,2.3c-0.1,0.5-0.1,0.9-0.2,1.4c-0.1,0.8-0.2,1.6-0.3,2.5
			c0,0.4-0.1,0.8-0.1,1.2c-0.1,0.9-0.2,1.8-0.3,2.7c0,0.3-0.1,0.6-0.1,0.8c-0.1,1.2-0.2,2.3-0.3,3.5c0,0.4,0,0.8-0.1,1.1
			c0,0.8-0.1,1.5-0.1,2.3c0,0.4,0,0.9,0,1.3c0,0.7-0.1,1.4-0.1,2.1c0,0.5,0,1,0,1.5c0,0.6,0,1.2,0,1.8c0,0.5,0,1,0,1.5
			c0,0.6,0,1.2,0,1.8c0,0.5,0,1,0,1.6c0,0.6,0,1.2,0.1,1.7c0,0.5,0,1,0.1,1.6c0,0.6,0.1,1.1,0.1,1.7c0,0.5,0.1,1,0.1,1.6
			c0,0.6,0.1,1.1,0.1,1.7c0,0.5,0.1,1,0.1,1.6c0.1,0.5,0.1,1.1,0.2,1.6c0.1,0.5,0.1,1,0.2,1.6c0.1,0.5,0.1,1.1,0.2,1.6
			c0.1,0.5,0.1,1,0.2,1.6c0.1,0.5,0.2,1.1,0.2,1.6c0.1,0.5,0.2,1,0.2,1.5c0.1,0.5,0.2,1.1,0.3,1.6c0.1,0.5,0.2,1,0.3,1.5
			c0.1,0.5,0.2,1.1,0.3,1.6c0.1,0.5,0.2,1,0.3,1.5c0.1,0.6,0.2,1.1,0.4,1.7c0.1,0.5,0.2,1,0.3,1.5c0.1,0.6,0.3,1.1,0.4,1.7
			c0.1,0.5,0.2,1,0.4,1.4c0.2,0.6,0.3,1.2,0.5,1.8c0.1,0.5,0.3,0.9,0.4,1.4c0.2,0.6,0.4,1.2,0.5,1.8c0.1,0.4,0.3,0.9,0.4,1.3
			c0.2,0.7,0.4,1.3,0.7,2c0.1,0.4,0.3,0.8,0.4,1.2c0.3,0.8,0.6,1.5,0.8,2.3c0.1,0.3,0.2,0.5,0.3,0.8c0.4,1.1,0.8,2.1,1.3,3.2
			c0.1,0.3,0.3,0.6,0.4,0.9c0.3,0.8,0.6,1.5,1,2.3c0.2,0.4,0.3,0.7,0.5,1.1c0.4,0.8,0.8,1.6,1.1,2.4c0.2,0.3,0.3,0.7,0.5,1
			c0.5,1.1,1.1,2.2,1.7,3.2c0,0,0,0,0,0c0.6,1.2,1.3,2.4,2,3.5c0.2,0.3,0.3,0.6,0.5,0.9c0.7,1.2,1.4,2.3,2.2,3.4
			c0.5,0.8,1.1,1.6,1.6,2.4c0.2,0.2,0.4,0.5,0.5,0.7c0.4,0.6,0.8,1.1,1.2,1.7c0.2,0.3,0.5,0.6,0.7,0.9c0.4,0.5,0.7,1,1.1,1.4
			c0.3,0.3,0.5,0.6,0.8,1c0.4,0.4,0.7,0.9,1.1,1.3c0.4,0.5,0.8,0.9,1.2,1.4c0.3,0.3,0.6,0.7,0.9,1c0.4,0.5,0.8,0.9,1.3,1.4
			c0.3,0.3,0.6,0.6,0.8,0.9c0.5,0.5,1,1,1.4,1.5c0.2,0.2,0.5,0.5,0.7,0.7c0.7,0.7,1.5,1.5,2.2,2.2c3.7,3.5,7.5,6.6,11.5,9.4
			c4,2.8,8.1,5.2,12.4,7.3l0,0c0,0,0,0,0,0l-25.4-12.5c-8.5-4.2-16.6-9.8-23.9-16.7c-0.8-0.7-1.5-1.5-2.2-2.2
			c-0.2-0.2-0.5-0.5-0.7-0.7c-0.5-0.5-1-1-1.4-1.5c-0.3-0.3-0.6-0.6-0.8-0.9c-0.4-0.5-0.8-0.9-1.3-1.4c-0.3-0.3-0.6-0.7-0.9-1
			c-0.4-0.5-0.8-0.9-1.2-1.4c-0.1-0.1-0.1-0.1-0.2-0.2c-0.3-0.4-0.6-0.7-0.9-1.1c-0.3-0.3-0.5-0.6-0.8-1c-0.4-0.5-0.7-1-1.1-1.4
			c-0.2-0.3-0.5-0.6-0.7-0.9c-0.4-0.6-0.8-1.1-1.2-1.7c-0.2-0.2-0.4-0.5-0.5-0.7c-0.6-0.8-1.1-1.6-1.6-2.4c0,0,0,0,0,0
			c-0.7-1.1-1.5-2.3-2.1-3.4c-0.2-0.3-0.3-0.6-0.5-0.9c-0.7-1.2-1.4-2.3-2-3.5c0,0,0,0,0,0c0,0,0,0,0,0c-0.6-1.1-1.1-2.1-1.7-3.2
			c-0.2-0.3-0.3-0.7-0.5-1c-0.4-0.8-0.8-1.6-1.1-2.4c-0.1-0.2-0.2-0.4-0.3-0.6c-0.1-0.1-0.1-0.3-0.2-0.4c-0.3-0.8-0.7-1.5-1-2.3
			c-0.1-0.3-0.3-0.6-0.4-0.9c-0.4-1.1-0.9-2.1-1.3-3.2c0,0,0,0,0-0.1c-0.1-0.2-0.2-0.4-0.2-0.7c-0.3-0.8-0.6-1.6-0.9-2.3
			c-0.1-0.4-0.3-0.8-0.4-1.1c-0.2-0.7-0.4-1.3-0.7-2c0-0.1-0.1-0.3-0.1-0.4c-0.1-0.3-0.2-0.6-0.3-0.9c-0.2-0.6-0.4-1.2-0.5-1.8
			c-0.1-0.5-0.3-0.9-0.4-1.4c-0.2-0.6-0.3-1.2-0.5-1.8c-0.1-0.2-0.1-0.4-0.2-0.6c-0.1-0.3-0.1-0.5-0.2-0.8c-0.1-0.6-0.3-1.1-0.4-1.7
			c-0.1-0.5-0.2-1-0.3-1.5c-0.1-0.6-0.3-1.1-0.4-1.7c-0.1-0.3-0.1-0.5-0.2-0.8c0-0.2-0.1-0.5-0.1-0.7c-0.1-0.5-0.2-1.1-0.3-1.6
			c-0.1-0.5-0.2-1-0.3-1.5c-0.1-0.5-0.2-1.1-0.3-1.6c0-0.3-0.1-0.6-0.2-0.9c0-0.2-0.1-0.4-0.1-0.6c-0.1-0.5-0.2-1.1-0.2-1.6
			c-0.1-0.5-0.1-1-0.2-1.6c-0.1-0.5-0.1-1.1-0.2-1.6c0-0.3-0.1-0.6-0.1-1c0-0.2,0-0.4-0.1-0.6c-0.1-0.6-0.1-1.1-0.2-1.7
			c-0.1-0.5-0.1-1-0.1-1.6c0-0.6-0.1-1.1-0.1-1.7c0-0.3-0.1-0.7-0.1-1c0-0.2,0-0.4,0-0.5c0-0.6-0.1-1.1-0.1-1.7
			C325.3,559.5,325.3,559,325.3,558.4z" class="st10"></path>
		<g>
			<path d="M386.7,461.6c-47.9,61.2-48.4,147.6-1,192.5c23.7,22.5,54.9,30.5,86.2,25.1c31.3-5.3,62.7-23.9,86.6-54.5
				c47.9-61.2,48.4-147.6,1-192.5c-23.7-22.5-54.9-30.5-86.2-25.1C442,412.4,410.7,431,386.7,461.6z M409.9,623.3
				c-34.2-32.5-33.9-94.9,0.7-139.1c17.3-22.1,40-35.5,62.6-39.3c22.6-3.8,45.2,1.9,62.3,18.2c34.2,32.5,33.9,94.9-0.7,139.1
				c-17.3,22.1-40,35.5-62.6,39.4C449.5,645.3,427,639.6,409.9,623.3" class="st9"></path>
		</g>
	</g>
	<polygon points="308.2,426.1 331.8,437 308.2,447.9 301,474 293.2,447.9 270.2,437 293.2,426.1 301,400" class="st9"></polygon>
	<polygon points="764,552.6 782.3,561 764,569.4 758.5,589.5 752.5,569.4 734.8,561 752.5,552.6 758.5,532.5" class="st9"></polygon>
	<polygon points="811.5,635.2 819.8,639 811.5,642.8 809,652 806.3,642.8 798.2,639 806.3,635.2 809,626" class="st9"></polygon>
	<polygon points="344.3,388.7 353.6,393 344.3,397.3 341.5,407.5 338.4,397.3 329.4,393 338.4,388.7 341.5,378.5" class="st9"></polygon>
	<path d="M742.1,610.6h-4.7v-4.7c0-1.6-1.3-2.9-2.9-2.9s-2.9,1.3-2.9,2.9v4.7h-4.7c-1.6,0-2.9,1.3-2.9,2.9
		s1.3,2.9,2.9,2.9h4.7v4.7c0,1.6,1.3,2.9,2.9,2.9s2.9-1.3,2.9-2.9v-4.7h4.7c1.6,0,2.9-1.3,2.9-2.9S743.7,610.6,742.1,610.6z" class="st9"></path>
	<path d="M238.1,365.6h-4.7v-4.7c0-1.6-1.3-2.9-2.9-2.9s-2.9,1.3-2.9,2.9v4.7h-4.7c-1.6,0-2.9,1.3-2.9,2.9
		s1.3,2.9,2.9,2.9h4.7v4.7c0,1.6,1.3,2.9,2.9,2.9s2.9-1.3,2.9-2.9v-4.7h4.7c1.6,0,2.9-1.3,2.9-2.9S239.7,365.6,238.1,365.6z" class="st9"></path>
</g>
</svg>
