<svg xmlns="http://www.w3.org/2000/svg" fill="none" viewBox="0 0 1024 1024" height="1024" width="1024">
<g clip-path="url(#clip0_610_4570)">
<rect fill="url(#paint0_linear_610_4570)" rx="160" height="1024" width="1024"></rect>
<path fill="url(#paint1_linear_610_4570)" d="M883.31 335.25C938.503 373.98 953.902 366.735 975.406 359.115C1022.08 342.576 1057.56 328.832 1098.36 345.35V544.532L545.344 527.049C480.957 524.71 554.165 492.974 570.706 487.956C587.247 482.938 601.597 478.358 613.131 472.296C626.827 465.098 637.074 452.899 649.048 443.388C660.043 434.654 670.481 431.075 683.691 427.06C707.895 419.704 741.807 416.378 758.721 396.005C796.213 350.844 839.771 304.698 883.31 335.25Z"></path>
<path fill="url(#paint2_linear_610_4570)" d="M-70.3906 510H1098.36V555.156C1098.36 877.898 836.726 1139.53 513.984 1139.53V1139.53C191.243 1139.53 -70.3906 877.898 -70.3906 555.156V510Z"></path>
<path fill="#6FEBDB" d="M1272 696.304C1262.12 696.304 803.482 589.221 790.845 584.294C734.021 562.139 957.771 534.213 916.23 522.75C876.082 511.672 674.667 523.922 674.667 523.922C774.11 525.569 867.094 521.509 869.564 526.612C872.033 531.715 638.827 550.255 680.902 593.941C754.403 670.255 944.579 748.001 944.579 748.001L1272 748.001L1272 696.304Z"></path>
<path fill="#1E646A" d="M1106.33 741.094C1174 1088 579 1133.5 188 1069C-203 1004.5 0.900227 997.773 -28 928C-76.3012 811.388 -1.87135 510.001 -1.87135 510.001L401.094 510C401.094 510 547.045 503.105 487.422 536.563C395.117 588.36 1106.33 741.094 1106.33 741.094Z"></path>
<path fill-opacity="0.4" fill="black" d="M750.857 930.283C562.857 971.617 86.8573 759.616 336.191 716.95C585.524 674.283 938.857 888.95 750.857 930.283Z"></path>
<path fill="#36AA96" d="M71.0545 642.812C47.6996 659.959 19.2576 690.625 19.2576 690.625C19.2576 690.625 -10.5756 620.251 -17.9299 572.421C-25.2999 524.489 -17.9299 449.57 -17.9299 449.57C-17.9299 449.57 9.24272 465.298 27.8904 472.812C46.5381 480.326 89.6564 476.687 134.14 484.101C191.637 493.684 260.14 523.842 279.533 532.739C282.965 534.314 285.485 537.305 286.54 540.93L295.508 571.757C295.508 571.757 268.727 579.76 258.32 583.71C186.601 610.937 108.906 615.022 71.0545 642.812Z"></path>
<path fill="#247E7E" d="M71.0553 642.812C47.7004 659.959 19.2584 690.625 19.2584 690.625C19.2584 690.625 -10.5748 620.251 -17.9291 572.421C-19.6721 561.086 -20.5906 548.241 -20.9772 535.234L37.1881 564.453L201.876 588.359L268.282 560.468L284.883 535.234L295.508 571.757C295.508 571.757 268.728 579.76 258.321 583.71C186.602 610.937 108.907 615.022 71.0553 642.812Z"></path>
<path fill-opacity="0.1" fill="url(#paint3_linear_610_4570)" d="M71.0553 642.812C47.7004 659.959 19.2584 690.625 19.2584 690.625C19.2584 690.625 -10.5748 620.251 -17.9291 572.421C-19.6721 561.086 -20.5906 548.241 -20.9772 535.234L37.1881 564.453L201.876 588.359L268.282 560.468L284.883 535.234L295.508 571.757C295.508 571.757 268.728 579.76 258.321 583.71C186.602 610.937 108.907 615.022 71.0553 642.812Z"></path>
<path fill="#20686F" d="M27.8906 472.812C46.5383 480.326 89.6566 476.687 134.141 484.101C165.556 489.337 200.256 500.715 228.437 511.412L144.765 491.406L105.586 494.726L164.687 530.585L17.2653 489.414L-16.6019 470.156L-17.9297 449.57C-17.9297 449.57 9.24291 465.298 27.8906 472.812Z"></path>
<path fill="#575563" d="M462.721 776.672C470.348 784.794 475.184 795.171 478.557 805.791C483.581 821.608 485.611 838.371 484.508 854.93C483.728 866.653 481.335 878.42 475.987 888.881C471.707 897.254 464.067 905.381 454.678 904.862C449.233 904.562 444.358 901.346 440.418 897.576C430.648 888.228 425.14 875.254 421.656 862.188C415.643 839.639 415.013 815.371 422.002 793.105C424.024 786.663 426.764 780.265 431.425 775.381C436.086 770.497 442.978 767.339 449.619 768.551C454.762 769.489 459.142 772.861 462.721 776.672Z"></path>
<path fill="#282630" d="M470.405 828.937C472.814 844.076 472.777 860.172 466.248 874.042C464.355 878.064 461.503 882.166 457.173 883.17C451.411 884.507 446.014 879.771 442.824 874.791C437.792 866.938 435.35 857.699 433.893 848.487C431.701 834.625 431.631 820.137 436.212 806.871C437.381 803.485 438.896 800.125 441.389 797.552C443.882 794.979 447.511 793.293 451.047 793.87C454.648 794.459 457.506 797.203 459.708 800.112C465.958 808.367 468.777 818.711 470.405 828.937Z"></path>
<path fill="#575563" d="M252.032 711.52C252.996 730.697 249.41 759.026 238.669 758.838C229.463 758.678 220.325 730.348 218.972 710.943C217.64 691.85 220.953 662.993 231.693 663.181C242.434 663.368 251.003 691.065 252.032 711.52Z"></path>
<path fill="black" d="M219.299 676.635C219.992 673.101 220.886 669.493 223.007 666.583C228.238 659.409 238.589 658.973 247.465 659.22C250.125 659.294 252.901 659.398 255.236 660.675C256.929 661.601 258.25 663.072 259.463 664.573C270.728 678.507 275.237 696.73 277.109 714.55C278.44 727.216 277.991 740.47 272.293 751.859C271.382 753.68 270.268 755.498 268.544 756.581C266.997 757.554 265.126 757.829 263.316 758.083C257.803 758.856 252.29 759.63 246.777 760.403C243.784 760.823 241.181 761.358 238.253 760.606C231.788 758.945 228.075 752.273 225.627 746.063C216.989 724.149 214.765 699.75 219.299 676.635ZM219.32 706.644C220.233 722.684 222.836 739.186 231.485 752.725C233.288 755.547 235.726 758.442 239.058 758.784C242.065 759.092 244.457 756.992 246.072 754.437C247.686 751.881 248.28 748.83 248.788 745.85C253.338 719.17 253.384 690.002 238.341 667.502C237.278 665.912 236.062 664.295 234.303 663.542C231.911 662.517 229.025 663.4 227.079 665.127C225.133 666.855 223.965 669.285 223.038 671.716C218.836 682.74 218.649 694.865 219.32 706.644Z"></path>
<path fill="#090427" d="M510.746 805.204C516.988 818.528 521.624 832.716 523.149 847.35C524.673 861.983 522.992 877.099 517.086 890.575C515.09 895.129 512.535 899.586 508.677 902.723C506.132 904.792 503.122 906.203 500.086 907.444C483.929 914.045 464.762 916.083 449.448 907.71C435.638 900.16 427.193 885.461 422.087 870.574C415.721 852.009 413.485 832.04 415.589 812.527C416.891 800.452 419.949 788.301 426.678 778.191C428.986 774.724 431.769 771.476 435.33 769.315C439.716 766.654 444.94 765.827 450.022 765.134C454.738 764.491 459.499 763.916 464.245 764.261C475.057 765.047 485.134 770.644 492.855 778.253C500.576 785.863 506.148 795.387 510.746 805.204ZM478.557 805.794C475.184 795.174 470.348 784.797 462.72 776.675C459.142 772.864 454.761 769.492 449.619 768.553C442.977 767.342 436.086 770.5 431.425 775.384C426.764 780.268 424.023 786.666 422.002 793.108C415.013 815.374 415.643 839.641 421.656 862.191C425.139 875.257 430.648 888.231 440.418 897.579C444.358 901.349 449.233 904.565 454.678 904.865C464.067 905.384 471.706 897.257 475.986 888.884C481.334 878.423 483.727 866.656 484.508 854.933C485.61 838.374 483.58 821.611 478.557 805.794Z"></path>
<path fill="url(#paint4_linear_610_4570)" d="M217.946 667.647C218.252 667.412 221.768 669.012 221.591 670.077C221.646 675.548 221.589 681.019 221.643 686.49C221.665 688.733 220.014 689.764 218.442 690.091C216.223 690.552 213.667 690.725 211.899 688.723C210.33 686.948 209.234 684.921 210.136 682.368C210.314 681.865 210.166 681.246 210.166 680.68C210.166 672.899 210.204 665.118 210.146 657.337C210.124 654.329 210.523 651.107 209.6 648.362C207.973 643.522 208.316 639.002 209.708 634.293C210.635 631.155 212.784 628.986 215.109 627.019C219.408 623.383 224.696 621.771 230.07 620.68C234.371 619.807 238.785 619.494 243.147 618.918C248.444 618.219 253.734 617.476 259.035 616.808C262.814 616.332 266.597 615.826 270.394 615.591C271.752 615.507 272.225 614.843 272.541 613.882C276.103 603.047 279.68 592.216 283.147 581.351C284.825 576.092 286.171 570.728 287.873 565.477C289.114 561.648 291.931 559.569 295.975 559.057C300.927 558.429 305.853 557.603 310.805 556.975C313.927 556.579 317.083 556.454 320.211 556.089C324.511 555.587 328.795 554.947 333.092 554.42C334.864 554.202 336.658 554.177 338.431 553.972C343.081 553.437 347.722 552.818 352.373 552.296C355.432 551.953 358.505 551.732 361.57 551.433C367.278 550.877 372.985 550.303 378.693 549.741C378.903 549.72 379.117 549.743 379.329 549.738C385.283 549.597 391.238 549.469 397.191 549.309C401.59 549.191 405.987 549.019 410.385 548.893C415.773 548.738 421.165 548.429 426.548 548.539C432.259 549.067 466.056 552.987 471.763 553.56C475.903 553.975 480.041 554.417 484.181 554.829C489.958 555.404 495.738 555.954 501.515 556.532C505.585 556.94 509.65 557.399 513.721 557.797C519.71 558.383 525.703 558.92 531.692 559.505C535.763 559.903 539.833 560.312 543.897 560.783C548.407 561.306 552.902 561.962 557.415 562.449C559.889 562.716 562.392 562.709 564.876 562.904C572.369 563.494 578.596 566.748 582.963 572.767C585.26 575.933 586.083 579.972 586.668 583.942C587.38 588.775 588.371 593.565 589.17 598.386C589.797 602.173 590.258 605.988 590.894 609.774C591.68 614.456 592.615 619.113 593.404 623.795C594.041 627.58 594.669 631.373 595.094 635.185L595.111 635.339C595.57 639.47 595.591 639.664 599.811 640.55C607.501 642.164 615.221 643.636 622.912 645.248C629.279 646.582 635.611 648.08 641.977 649.415C647.133 650.496 652.323 651.413 657.486 652.459C662.438 653.462 667.373 654.546 672.319 655.58C677.529 656.668 682.743 657.739 687.956 658.817C692.908 659.84 697.863 660.85 702.813 661.888C707.3 662.829 711.779 663.811 716.266 664.756C721.278 665.811 726.298 666.829 731.309 667.89C736.313 668.951 741.307 670.055 746.31 671.123C751.381 672.205 756.454 673.281 761.531 674.335C766.681 675.403 771.838 676.43 776.989 677.495C782.003 678.531 787.012 679.595 792.026 680.639C796.52 681.576 801.016 682.501 805.511 683.434C810.656 684.502 815.803 685.564 820.946 686.645C827.256 687.971 869.986 701.486 876.302 702.785L887.236 816.956C883.556 819.281 879.044 824.993 874.7 825.715C868.433 826.756 862.195 827.964 855.942 829.084C851.132 829.947 846.311 830.751 841.507 831.643C836.392 832.592 831.301 833.671 826.181 834.59C820.307 835.644 814.399 836.51 808.531 837.597C802.969 838.628 797.451 839.9 791.892 840.953C786.955 841.888 781.978 842.614 777.037 843.531C770.546 844.736 764.08 846.079 757.589 847.284C752.582 848.213 747.545 848.977 742.537 849.898C738.345 850.669 734.184 851.615 729.992 852.385C724.983 853.304 719.945 854.065 714.937 854.991C709.365 856.021 703.819 857.194 698.25 858.24C693.972 859.043 689.672 859.726 685.389 860.5C680.524 861.379 675.667 862.304 670.806 863.201C666.467 864.002 662.129 864.802 657.787 865.585C654.558 866.167 651.317 866.681 648.094 867.295C643.841 868.106 639.6 868.984 635.354 869.832C630.388 870.823 625.431 871.864 620.453 872.788C616.233 873.571 611.979 874.167 607.756 874.94C603.496 875.719 599.287 877.026 595 877.343C590.594 877.669 587.269 880.846 582.857 880.358C580.636 880.112 578.818 881.374 576.786 880.358C565.614 876.602 543.699 872.336 532.563 868.474C525.701 866.094 518.889 863.571 512.033 861.173C508.939 860.092 507.027 856.023 504.046 854.703C499.802 852.825 498.992 850.143 496.634 845.928C492.606 838.732 492.561 834.259 490.491 826.363C488.241 817.783 490.901 808.085 486.316 800.357C482.498 793.922 474.726 790.342 469.599 784.936C464.771 779.844 466.338 770.706 460.178 767.479C453.719 764.097 443.822 758.693 436.579 757.341C433.603 756.786 417.323 756.411 416.013 759.143C413.839 763.679 409.223 769.152 409.267 774.156C409.304 778.383 406.498 779.606 406.936 783.842C407.818 792.352 409.945 798.382 411.942 806.624C412.302 808.108 421.218 821.643 419.097 821.759C418.12 821.813 416.995 821.689 416.151 821.242C407.795 816.807 399.496 812.264 391.156 807.798C383.053 803.46 374.914 799.191 366.805 794.865C357.939 790.135 349.096 785.361 340.23 780.632C332.121 776.307 323.987 772.028 315.876 767.705C307.531 763.256 299.208 758.766 290.862 754.318C284.374 750.859 277.863 747.446 271.37 743.997C266.498 741.41 261.779 738.471 256.726 736.312C253.345 734.868 251.405 732.754 250.486 729.398C250.12 728.064 249.784 726.721 249.369 725.404C246.922 717.647 244.63 709.836 241.951 702.159C239.045 693.827 235.987 685.533 232.578 677.396C230.616 672.712 226.615 669.69 221.895 667.874C220.752 667.435 218.289 667.072 217.946 667.647Z"></path>
<path fill="url(#paint5_linear_610_4570)" d="M874.699 828.727C879.043 828.005 883.213 826.705 886.893 824.38L886.496 718.986C886.46 709.43 878.076 702.056 868.593 703.24L584.64 729.936L582.027 884.006C586.314 883.689 603.496 879.564 607.756 878.785C611.978 878.012 616.233 876.583 620.453 875.8C625.431 874.876 630.388 873.836 635.353 872.845C639.6 871.997 643.84 871.118 648.094 870.308C651.317 869.694 654.558 869.179 657.787 868.597C662.128 867.815 666.467 867.015 670.805 866.214C675.667 865.317 680.524 864.392 685.388 863.513C689.672 862.739 693.972 862.056 698.25 861.252C703.819 860.206 709.364 859.034 714.936 858.004C719.944 857.078 724.982 856.317 729.991 855.397C734.184 854.628 738.344 853.681 742.536 852.911C747.545 851.99 752.582 851.226 757.588 850.296C764.079 849.091 770.545 847.748 777.036 846.544C781.978 845.627 786.954 844.901 791.892 843.965C797.45 842.912 802.968 841.641 808.531 840.61C814.398 839.523 820.306 838.657 826.18 837.602C831.3 836.683 836.392 835.605 841.507 834.655C846.311 833.764 851.131 832.959 855.941 832.097C862.194 830.976 868.433 829.769 874.699 828.727Z"></path>
<path fill-opacity="0.21" fill="black" d="M874.699 828.727C879.043 828.005 883.213 826.705 886.893 824.38L886.496 718.986C886.46 709.43 878.076 702.056 868.593 703.24L584.64 729.936L582.027 884.006C586.314 883.689 603.496 879.564 607.756 878.785C611.978 878.012 616.233 876.583 620.453 875.8C625.431 874.876 630.388 873.836 635.353 872.845C639.6 871.997 643.84 871.118 648.094 870.308C651.317 869.694 654.558 869.179 657.787 868.597C662.128 867.815 666.467 867.015 670.805 866.214C675.667 865.317 680.524 864.392 685.388 863.513C689.672 862.739 693.972 862.056 698.25 861.252C703.819 860.206 709.364 859.034 714.936 858.004C719.944 857.078 724.982 856.317 729.991 855.397C734.184 854.628 738.344 853.681 742.536 852.911C747.545 851.99 752.582 851.226 757.588 850.296C764.079 849.091 770.545 847.748 777.036 846.544C781.978 845.627 786.954 844.901 791.892 843.965C797.45 842.912 802.968 841.641 808.531 840.61C814.398 839.523 820.306 838.657 826.18 837.602C831.3 836.683 836.392 835.605 841.507 834.655C846.311 833.764 851.131 832.959 855.941 832.097C862.194 830.976 868.433 829.769 874.699 828.727Z"></path>
<path fill="#F83059" d="M217.843 667.193C218.148 666.959 221.665 668.559 221.487 669.624C221.542 675.094 221.486 680.566 221.539 686.036C221.561 688.28 219.91 689.311 218.339 689.638C216.119 690.099 213.563 690.272 211.795 688.27C210.226 686.494 209.13 684.467 210.033 681.914C210.21 681.411 210.062 680.792 210.062 680.227C210.062 672.446 210.1 664.665 210.043 656.884C210.02 653.876 210.419 650.654 209.496 647.909C207.869 643.069 208.212 638.548 209.604 633.839C210.532 630.702 212.68 628.533 215.006 626.565C219.304 622.929 224.592 621.317 229.966 620.227C234.267 619.354 238.681 619.041 243.044 618.465C248.34 617.766 253.684 617.581 258.984 616.914L371.875 659.414L584.375 729.804L578.398 882.539C578.275 881.026 571.273 881.244 569.903 880.784C558.731 877.028 543.595 871.883 532.459 868.02C525.597 865.64 518.785 863.118 511.929 860.72C508.835 859.638 506.923 855.569 503.942 854.25C499.699 852.372 498.889 849.689 496.53 845.475C492.502 838.279 492.458 833.806 490.387 825.91C488.137 817.329 490.797 807.632 486.212 799.904C482.394 793.469 474.622 789.889 469.496 784.482C464.667 779.39 466.234 770.253 460.074 767.026C453.616 763.644 443.718 758.239 436.475 756.888C433.499 756.332 417.219 755.958 415.909 758.69C413.735 763.225 409.119 768.698 409.163 773.703C409.2 777.929 406.394 779.153 406.833 783.388C407.714 791.899 409.841 797.929 411.839 806.171C412.198 807.655 421.114 821.189 418.993 821.306C418.017 821.36 416.891 821.236 416.047 820.788C407.691 816.354 399.392 811.811 391.052 807.345C382.949 803.007 374.81 798.737 366.701 794.411C357.835 789.682 348.993 784.908 340.127 780.179C332.017 775.853 323.883 771.575 315.772 767.252C307.427 762.803 299.104 758.313 290.758 753.864C284.27 750.406 277.759 746.992 271.266 743.544C266.394 740.956 261.675 738.017 256.622 735.858C253.242 734.414 251.302 732.3 250.382 728.944C250.017 727.611 249.68 726.268 249.265 724.95C246.819 717.193 244.526 709.382 241.848 701.706C238.941 693.374 235.883 685.079 232.475 676.943C230.513 672.259 226.511 669.237 221.791 667.421C220.649 666.982 218.185 666.618 217.843 667.193Z"></path>
<path fill="url(#paint6_linear_610_4570)" d="M354.797 681.084C353.993 683.765 353.841 686.648 353.491 689.453L346.641 784.205L416.53 821.361C416.53 821.361 419.384 823.129 420.562 821.361C423.958 816.268 415.255 799.951 415.255 781.488C415.255 771.705 420.348 763.025 420.348 763.025C441.103 759.038 473.827 784.883 493.987 850.458C496.98 860.194 582.481 884.043 582.481 884.043L584.603 729.92L375.572 661.058C373.248 660.388 370.618 659.798 368.321 660.221C363.88 661.037 361.461 664.896 359.529 668.429C357.387 672.344 356.09 676.77 354.797 681.084Z"></path>
<path fill="#AFF1F6" d="M301.384 567.427C296.049 566.272 292.976 567.864 291.504 573.479L278.592 622.733C278.469 623.206 278.598 624.024 278.924 624.279C279.85 625.004 280.884 625.661 281.974 626.094C286.53 627.904 291.154 629.541 295.693 631.389C305.132 635.233 314.514 639.219 323.956 643.056C333.096 646.769 342.277 650.386 351.459 653.995C352.061 654.232 354.489 654.998 356.791 655.712C359.135 656.439 361.538 654.785 361.709 652.337L365.71 595.23C365.928 592.125 365.296 589.02 363.882 586.247C361.686 581.942 357.767 578.783 353.014 577.909C350.188 577.389 347.336 576.903 345.169 576.454C340.68 575.525 336.204 574.537 331.718 573.594L331.113 573.467C325.718 572.332 320.323 571.198 314.92 570.101C310.413 569.185 305.879 568.401 301.384 567.427Z"></path>
<path fill="#F6FFDD" d="M596.578 800.967C589.505 792.733 591.572 781.419 599.097 775.677C606.453 770.063 616.229 773.354 619.438 782.574C622.782 792.183 617.025 802.006 609.654 804.323C604.68 805.887 600.424 804.604 596.578 800.967Z"></path>
<path fill="#F6FFDD" d="M857.111 755.531C857.588 759.038 859.546 761.683 862.162 763.816C865.133 766.237 870.909 765.552 873.099 762.531C877.553 756.387 878.362 749.903 874.609 743.07C872.442 739.123 868.25 737.309 864.378 738.456C858.244 740.273 855.399 749.811 857.111 755.531Z"></path>
<path fill="#39C8BD" d="M374.479 654.85C374.402 655.435 378.501 661.719 383.806 660.658L589.442 644.106L588.726 640.632C588.014 636.837 587.24 633.054 586.459 629.272C585.398 624.127 584.313 618.987 583.241 613.844C582.263 609.156 581.241 604.477 580.33 599.776C579.667 596.355 579.146 592.906 578.573 589.468C578 586.026 577.926 582.405 576.755 579.181C575.169 574.816 573.101 571.852 567.425 572.338C562.884 572.726 558.327 572.938 553.775 573.204C548.66 573.503 543.542 573.767 538.426 574.058C533.592 574.333 528.759 574.624 523.925 574.905C519.021 575.19 514.117 575.47 509.213 575.755L507.642 575.846C503.332 576.096 499.022 576.347 494.712 576.604C490.09 576.881 485.47 577.176 480.848 577.45C475.944 577.741 471.039 578.01 466.135 578.303C461.584 578.575 457.034 578.879 452.483 579.147C447.438 579.443 442.391 579.709 437.346 580C432.583 580.275 427.82 580.566 423.057 580.847C418.224 581.132 413.392 581.455 408.556 581.684C404.303 581.885 400.043 581.928 395.791 582.135C391.289 582.354 385.899 585.481 385.861 590.844C385.854 591.912 385.651 592.987 385.451 594.043L385.448 594.062C384.333 599.961 383.184 605.855 382.064 611.753C381.34 615.559 380.608 619.364 379.949 623.182C379.332 626.757 378.86 630.359 378.226 633.931C377.586 637.54 376.789 641.121 376.129 644.726C375.513 648.09 374.926 651.461 374.479 654.85Z"></path>
<path fill-opacity="0.16" fill="url(#paint7_linear_610_4570)" d="M418.374 670.236C413.879 668.783 414.64 662.203 419.349 661.815L598.261 647.3C598.676 647.266 599.095 647.292 599.503 647.378L824.604 693.49C829.412 694.499 829.078 701.472 824.195 702.016L589.083 724.07C588.475 724.138 587.858 724.075 587.276 723.887L418.374 670.236Z"></path>
<path fill="#282630" d="M242.72 712.442C242.468 726.919 240.088 739.414 235.785 738.258C232.655 737.417 226.508 724.919 226.768 710.002C227.028 695.085 230.34 678.723 234.586 683.12C236.691 686.399 242.981 697.525 242.72 712.442Z"></path>
</g>
<defs>
<linearGradient gradientUnits="userSpaceOnUse" y2="1224.67" x2="512" y1="0" x1="512" id="paint0_linear_610_4570">
<stop stop-color="#A3EED2" offset="0.192906"></stop>
<stop stop-color="#A1F0EB" offset="0.7188"></stop>
</linearGradient>
<linearGradient gradientUnits="userSpaceOnUse" y2="598.985" x2="818.789" y1="325.391" x1="808.828" id="paint1_linear_610_4570">
<stop stop-color="#76E1B9" offset="0.59375"></stop>
<stop stop-color="#3FDAE3" offset="1"></stop>
</linearGradient>
<linearGradient gradientUnits="userSpaceOnUse" y2="1217.23" x2="1079.77" y1="466.836" x1="447.578" id="paint2_linear_610_4570">
<stop stop-color="#4CE0C7" offset="0.078125"></stop>
<stop stop-color="#21D9E4" offset="0.608853"></stop>
</linearGradient>
<linearGradient gradientUnits="userSpaceOnUse" y2="942.304" x2="-369.218" y1="518.632" x1="294.844" id="paint3_linear_610_4570">
<stop stop-color="#47768C" offset="0.264571"></stop>
<stop stop-color="#304763" offset="1"></stop>
</linearGradient>
<linearGradient gradientUnits="userSpaceOnUse" y2="902.272" x2="695.343" y1="504.688" x1="179.961" id="paint4_linear_610_4570">
<stop stop-color="#FD224F" offset="0.109556"></stop>
<stop stop-color="#F32355" offset="0.330093"></stop>
<stop stop-color="#CC1758" offset="0.718347"></stop>
</linearGradient>
<linearGradient gradientUnits="userSpaceOnUse" y2="985.752" x2="582.197" y1="698.316" x1="566.022" id="paint5_linear_610_4570">
<stop stop-color="#F83059" offset="0.202321"></stop>
<stop stop-color="#F91DA1" offset="0.764988"></stop>
</linearGradient>
<linearGradient gradientUnits="userSpaceOnUse" y2="982.149" x2="374.531" y1="660.079" x1="346.641" id="paint6_linear_610_4570">
<stop stop-color="#F83059" offset="0.202321"></stop>
<stop stop-color="#F91DA1" offset="0.764988"></stop>
</linearGradient>
<linearGradient gradientUnits="userSpaceOnUse" y2="740.543" x2="735.566" y1="654.101" x1="338.673" id="paint7_linear_610_4570">
<stop stop-opacity="0.4" offset="0.0721018"></stop>
<stop offset="0.739719"></stop>
</linearGradient>
<clipPath id="clip0_610_4570">
<rect fill="white" rx="160" height="1024" width="1024"></rect>
</clipPath>
</defs>
</svg>
