<svg xmlns="http://www.w3.org/2000/svg" fill="none" viewBox="0 0 1024 1024" height="1024" width="1024">
<g clip-path="url(#clip0_608_3731)">
<rect fill="url(#paint0_linear_608_3731)" rx="160" height="1024" width="1024"></rect>
<circle fill="url(#paint1_linear_608_3731)" r="512" cy="512" cx="512"></circle>
<rect fill="url(#paint2_linear_608_3731)" rx="160" height="1020" width="1020" y="0.000488281"></rect>
<path fill="#9B61FF" d="M-13.1428 279.143C127.537 279.143 251.048 438.436 251.048 591.143C251.048 611.341 234.674 627.714 214.476 627.714C194.278 627.714 177.905 611.341 177.905 591.143C177.905 475.347 82.4868 352.286 -13.1428 352.286C-108.377 352.286 -202.286 474.815 -202.286 591.143C-202.286 611.341 -218.659 627.714 -238.857 627.714C-259.055 627.714 -275.429 611.341 -275.429 591.143C-275.429 438.026 -153.658 279.143 -13.1428 279.143Z"></path>
<path fill="#2195FF" d="M-13.1428 227.714C155.214 227.714 302.476 409.787 302.476 591.143C302.476 611.341 286.103 627.714 265.905 627.714C245.707 627.714 229.333 611.341 229.333 591.143C229.333 447.171 110.993 300.857 -13.1428 300.857C-136.894 300.857 -253.714 446.665 -253.714 591.143C-253.714 611.341 -270.088 627.714 -290.286 627.714C-310.484 627.714 -326.857 611.341 -326.857 591.143C-326.857 409.39 -181.3 227.714 -13.1428 227.714Z"></path>
<path fill="#35E6E6" d="M-13.1428 170.572C186.204 170.572 359.619 378.02 359.619 591.143C359.619 611.341 343.245 627.715 323.048 627.715C302.85 627.715 286.476 611.341 286.476 591.143C286.476 415.806 142.617 243.715 -13.1428 243.715C-168.526 243.715 -310.857 415.32 -310.857 591.143C-310.857 611.341 -327.231 627.715 -347.429 627.715C-367.626 627.715 -384 611.341 -384 591.143C-384 377.632 -212.262 170.572 -13.1428 170.572Z"></path>
<path fill="#14D3A1" d="M-13.1428 121.048C213.187 121.048 409.143 350.527 409.143 591.143C409.143 611.341 392.769 627.715 372.571 627.715C352.374 627.715 336 611.341 336 591.143C336 388.586 170.003 194.191 -13.1428 194.191C-195.915 194.191 -360.381 388.115 -360.381 591.143C-360.381 611.341 -376.755 627.715 -396.952 627.715C-417.15 627.715 -433.524 611.341 -433.524 591.143C-433.524 350.145 -239.227 121.048 -13.1428 121.048Z"></path>
<path fill="#FEDA42" d="M-14.0952 71.5239C239.816 71.5239 458.667 323.486 458.667 592.095C458.667 612.293 442.293 628.667 422.095 628.667C401.897 628.667 385.524 612.293 385.524 592.095C385.524 361.771 196.95 144.667 -14.0952 144.667C-224.77 144.667 -411.81 361.31 -411.81 592.095C-411.81 612.293 -428.183 628.667 -448.381 628.667C-468.579 628.667 -484.952 612.293 -484.952 592.095C-484.952 323.107 -267.748 71.5239 -14.0952 71.5239Z"></path>
<path fill="#FB6849" d="M-13.1428 -36.5713C302.883 -36.5713 572.952 265.937 572.952 597.333C572.952 617.531 556.579 633.905 536.381 633.905C516.183 633.905 499.81 617.531 499.81 597.333C499.81 304.6 260.522 36.5716 -13.1428 36.5716C-286.441 36.5716 -524.19 304.158 -524.19 597.333C-524.19 617.531 -540.564 633.905 -560.762 633.905C-580.96 633.905 -597.333 617.531 -597.333 597.333C-597.333 265.562 -328.889 -36.5713 -13.1428 -36.5713Z"></path>
<path fill="#FFBC01" d="M-13.1429 16.2856C270.495 16.2856 513.905 292.449 513.905 591.143C513.905 611.341 497.531 627.714 477.333 627.714C457.135 627.714 440.762 611.341 440.762 591.143C440.762 330.934 227.9 89.4285 -13.1429 89.4285C-253.817 89.4285 -465.143 330.483 -465.143 591.143C-465.143 611.341 -481.516 627.714 -501.714 627.714C-521.912 627.714 -538.286 611.341 -538.286 591.143C-538.286 292.073 -296.511 16.2856 -13.1429 16.2856Z"></path>
<path fill="#674447" d="M686.722 649.941C681.137 649.941 676.615 645.417 676.615 639.839V531.043C676.615 525.465 681.139 520.941 686.722 520.941C692.308 520.941 696.83 525.465 696.83 531.043V639.839C696.83 645.419 692.308 649.941 686.722 649.941Z"></path>
<path fill="#43AB5F" d="M750.386 521.775C750.386 556.937 721.882 585.441 686.72 585.441C651.558 585.441 623.054 556.937 623.054 521.775C623.054 486.613 651.558 378.525 686.72 378.525C721.882 378.527 750.386 486.613 750.386 521.775Z"></path>
<path fill-opacity="0.3" fill="#BBDBFE" d="M750.386 521.775C750.386 556.937 721.882 585.441 686.72 585.441C651.558 585.441 623.054 556.937 623.054 521.775C623.054 486.613 651.558 378.525 686.72 378.525C721.882 378.527 750.386 486.613 750.386 521.775Z"></path>
<path fill="#71BE63" d="M686.72 378.525C677.894 378.525 669.488 385.347 661.846 396.107H661.848C694.03 396.107 720.118 495.035 720.118 527.217C720.118 555.211 700.362 578.551 674.042 584.163C678.14 584.991 682.376 585.441 686.718 585.441C721.88 585.441 750.384 556.937 750.384 521.775C750.386 486.613 721.88 378.525 686.72 378.525Z"></path>
<path fill-opacity="0.3" fill="#BADAFD" d="M686.72 378.525C677.894 378.525 669.488 385.347 661.846 396.107H661.848C694.03 396.107 720.118 495.035 720.118 527.217C720.118 555.211 700.362 578.551 674.042 584.163C678.14 584.991 682.376 585.441 686.718 585.441C721.88 585.441 750.384 556.937 750.384 521.775C750.386 486.613 721.88 378.525 686.72 378.525Z"></path>
<path fill="#9BF4AF" d="M992.857 915.858L518.857 661.99L530.857 636.094C645.627 636.094 844.789 519.426 1206.86 560.76C1206.86 688.294 1160.12 804.84 1082.98 894.472C1034.53 906.046 992.857 915.858 992.857 915.858Z"></path>
<path fill-opacity="0.4" fill="#477468" d="M992.857 915.858L518.857 661.99L530.857 636.094C645.627 636.094 844.789 519.426 1206.86 560.76C1206.86 688.294 1160.12 804.84 1082.98 894.472C1034.53 906.046 992.857 915.858 992.857 915.858Z"></path>
<path fill="#9CFFB2" d="M530.857 636.096C636.103 636.096 812.419 538.078 1120.14 553.67C846.553 553.906 678.773 676.376 592.857 676.376L568.857 667.424L530.143 637.64L530.857 636.096Z"></path>
<path fill-opacity="0.7" fill="#477468" d="M530.857 636.096C636.103 636.096 812.419 538.078 1120.14 553.67C846.553 553.906 678.773 676.376 592.857 676.376L568.857 667.424L530.143 637.64L530.857 636.096Z"></path>
<path fill="#9CFFB2" d="M1029.92 722.568C1140.96 1046.59 730.727 1115.86 523.043 1115.86C377.192 1115.86 103.404 1056.13 -3.01168 947.2C-28.9104 924.663 -10.8052 812.004 -31.1215 771.514C-50.6748 732.544 -3.04087 654.363 11.3183 642.213C64.4166 597.286 157.424 552.65 284.26 562.381C610.913 587.442 753.717 720 1029.92 720V722.568Z"></path>
<path fill-opacity="0.6" fill="#477468" d="M1029.92 722.568C1140.96 1046.59 730.727 1115.86 523.043 1115.86C377.192 1115.86 103.404 1056.13 -3.01168 947.2C-28.9104 924.663 -10.8052 812.004 -31.1215 771.514C-50.6748 732.544 -3.04087 654.363 11.3183 642.213C64.4166 597.286 157.424 552.65 284.26 562.381C610.913 587.442 753.717 720 1029.92 720V722.568Z"></path>
<path fill="#674447" d="M902.957 686.565C896.619 686.565 891.484 681.433 891.484 675.103V551.643C891.484 545.313 896.617 540.181 902.957 540.181C909.297 540.181 914.427 545.313 914.427 551.643V675.103C914.427 681.433 909.295 686.565 902.957 686.565Z"></path>
<path fill="#43AB5F" d="M975.199 541.127C975.199 581.027 942.853 613.373 902.953 613.373C863.053 613.373 830.707 581.027 830.707 541.127C830.707 501.227 863.053 378.571 902.953 378.571C942.853 378.571 975.199 501.225 975.199 541.127Z"></path>
<path fill-opacity="0.3" fill="#BBDBFE" d="M975.199 541.127C975.199 581.027 942.853 613.373 902.953 613.373C863.053 613.373 830.707 581.027 830.707 541.127C830.707 501.227 863.053 378.571 902.953 378.571C942.853 378.571 975.199 501.225 975.199 541.127Z"></path>
<path fill="#71BE63" d="M902.953 378.571C892.937 378.571 883.399 386.313 874.727 398.523H874.729C911.249 398.523 940.853 510.783 940.853 547.303C940.853 579.069 918.435 605.555 888.567 611.925C893.217 612.865 898.025 613.375 902.951 613.375C942.851 613.375 975.199 581.029 975.199 541.129C975.201 501.225 942.853 378.571 902.953 378.571Z"></path>
<path fill-opacity="0.3" fill="#BADAFD" d="M902.953 378.571C892.937 378.571 883.399 386.313 874.727 398.523H874.729C911.249 398.523 940.853 510.783 940.853 547.303C940.853 579.069 918.435 605.555 888.567 611.925C893.217 612.865 898.025 613.375 902.951 613.375C942.851 613.375 975.199 581.029 975.199 541.129C975.201 501.225 942.853 378.571 902.953 378.571Z"></path>
</g>
<defs>
<linearGradient gradientUnits="userSpaceOnUse" y2="1024" x2="512" y1="0" x1="512" id="paint0_linear_608_3731">
<stop stop-color="#C0DCFE"></stop>
<stop stop-opacity="0" stop-color="white" offset="1"></stop>
<stop stop-color="#8ECBF4" offset="1"></stop>
</linearGradient>
<linearGradient gradientUnits="userSpaceOnUse" y2="-158.982" x2="1024" y1="865.017" x1="1341.97" id="paint1_linear_608_3731">
<stop stop-color="#84C8F2"></stop>
<stop stop-color="#C2DDFF" offset="1"></stop>
</linearGradient>
<linearGradient gradientUnits="userSpaceOnUse" y2="1020" x2="510" y1="32.5005" x1="254.5" id="paint2_linear_608_3731">
<stop stop-color="#BFDBFE"></stop>
<stop stop-color="#8FCBF4" offset="1"></stop>
</linearGradient>
<clipPath id="clip0_608_3731">
<rect fill="white" rx="160" height="1024" width="1024"></rect>
</clipPath>
</defs>
</svg>
