<svg xmlns="http://www.w3.org/2000/svg" fill="none" viewBox="0 0 1024 1024" height="1024" width="1024">
<g clip-path="url(#clip0_604_2731)">
<rect fill="url(#paint0_linear_604_2731)" rx="160" height="1024" width="1024"></rect>
<circle fill="url(#paint1_linear_604_2731)" r="512" cy="512" cx="514.84"></circle>
<circle fill-opacity="0.21386" fill="#F0FFA8" r="85.3333" cy="243.81" cx="633.905"></circle>
<path fill="#249189" d="M-230.408 592.652C-436.035 498.086 -653.09 784.678 -653.09 784.678L-509.16 1011.81H512L515.845 810.429C515.845 810.429 477.795 804.929 462.904 801.065C237.48 742.569 -22.0533 688.471 -230.408 592.652Z" clip-rule="evenodd" fill-rule="evenodd"></path>
<path fill="white" d="M432.848 242.198C217.686 231.842 -120.849 -54.3153 175.461 27.0703C628.987 151.637 1265.27 -154.107 1448.59 -20.8079C1631.91 112.491 1413.45 68.2069 1398.56 72.071C1326.23 90.8387 1257.47 141.676 1173.87 128.539C947.182 92.9198 916.081 265.455 432.848 242.198Z" clip-rule="evenodd" fill-rule="evenodd" opacity="0.137416"></path>
<path fill="#235359" d="M751.491 714.557C1171.77 755.653 1230.75 901.108 1230.75 901.108V1255.26H-207.238L-200.441 918.192C-200.441 918.192 -180.021 843.651 -41.1968 834.83C228.855 817.671 597.399 699.489 751.491 714.557Z" clip-rule="evenodd" fill-rule="evenodd"></path>
<path fill="#5C1D1D" d="M643.003 775.623C643.003 780.165 639.321 783.848 634.778 783.848V783.848C630.236 783.848 626.553 780.165 626.553 775.623V750.753C626.553 746.211 630.236 742.528 634.778 742.528V742.528C639.321 742.528 643.003 746.211 643.003 750.753V775.623Z"></path>
<path fill="#328282" d="M592.713 593.527L579.334 586.094L631.08 390.095L696.036 580.374L677.207 586.094L730.238 753.944L539.318 762.919L592.713 593.527Z" clip-rule="evenodd" fill-rule="evenodd"></path>
<path fill="#5C1D1D" d="M802.221 728.88C802.221 732.246 799.492 734.975 796.126 734.975V734.975C792.76 734.975 790.031 732.246 790.031 728.88V708.267C790.031 704.9 792.76 702.171 796.126 702.171V702.171C799.492 702.171 802.221 704.9 802.221 708.267V728.88Z"></path>
<path fill="#328282" d="M763.336 587.412L753.538 582.017L791.435 439.744L839.006 577.864L825.217 582.017L864.055 703.857L724.232 710.372L763.336 587.412Z" clip-rule="evenodd" fill-rule="evenodd"></path>
<path fill="#5C1D1D" d="M950.27 745.281C950.27 748.648 947.541 751.377 944.174 751.377V751.377C940.808 751.377 938.079 748.648 938.079 745.281V732.869C938.079 729.503 940.808 726.774 944.174 726.774V726.774C947.541 726.774 950.27 729.503 950.27 732.869V745.281Z"></path>
<path fill="#328282" d="M922.257 653.002L915.918 649.404L940.439 554.556L971.221 646.636L962.298 649.404L987.429 730.631L896.955 734.975L922.257 653.002Z" clip-rule="evenodd" fill-rule="evenodd"></path>
<path fill="#5C1D1D" d="M366.302 779.576C366.302 782.942 363.573 785.671 360.207 785.671V785.671C356.84 785.671 354.111 782.942 354.111 779.576V758.963C354.111 755.597 356.84 752.868 360.207 752.868V752.868C363.573 752.868 366.302 755.597 366.302 758.963V779.576Z"></path>
<path fill="#328282" d="M334.665 672.392L327.173 668.141L356.153 556.047L392.531 664.869L381.986 668.141L411.686 764.136L304.762 769.269L334.665 672.392Z" clip-rule="evenodd" fill-rule="evenodd"></path>
<path fill="white" d="M-311.764 680.376C-539.404 669.42 -897.571 366.667 -584.078 452.772C-104.251 584.563 568.931 261.088 762.881 402.118C956.831 543.147 732.944 502.604 709.95 500.383C-65.9039 425.422 199.493 704.982 -311.764 680.376Z" clip-rule="evenodd" fill-rule="evenodd" opacity="0.137416"></path>
</g>
<defs>
<linearGradient gradientUnits="userSpaceOnUse" y2="1024" x2="512" y1="0" x1="512" id="paint0_linear_604_2731">
<stop stop-color="#6FA8DE"></stop>
<stop stop-color="#8DD7FB" offset="1"></stop>
</linearGradient>
<linearGradient gradientUnits="userSpaceOnUse" y2="1024" x2="2.84009" y1="0" x1="2.84009" id="paint1_linear_604_2731">
<stop stop-color="#6FA7DE"></stop>
<stop stop-color="#91DDFF" offset="1"></stop>
</linearGradient>
<clipPath id="clip0_604_2731">
<rect fill="white" rx="160" height="1024" width="1024"></rect>
</clipPath>
</defs>
</svg>
