<svg xmlns="http://www.w3.org/2000/svg" fill="none" viewBox="0 0 1024 1024" height="1024" width="1024">
<g clip-path="url(#clip0_604_2875)">
<rect fill="url(#paint0_linear_604_2875)" rx="160" height="1024" width="1024"></rect>
<circle fill="url(#paint1_linear_604_2875)" r="512" cy="512" cx="512"></circle>
<path fill="#F6F6F8" d="M196.591 400.693H303.523C336.465 400.693 363.169 373.846 363.169 340.729C363.169 307.611 336.465 280.765 303.523 280.765C293.582 280.765 284.209 283.209 275.967 287.534C264.49 254.067 232.888 230.026 195.701 230.026C148.822 230.026 110.819 268.231 110.819 315.359C110.819 316.325 110.835 317.287 110.867 318.245C97.1824 325.636 87.8783 340.162 87.8783 356.873C87.8783 381.074 107.393 400.693 131.466 400.693H195.701C195.835 400.693 196.591 400.693 196.591 400.693H195.701H196.591Z" clip-rule="evenodd" fill-rule="evenodd"></path>
<path fill="#BFD881" d="M517.513 1004.91C517.513 1055.97 476.092 1097.35 424.996 1097.35C373.899 1097.35 332.479 1055.97 332.479 1004.91C332.479 953.862 373.899 912.478 424.996 912.478C476.092 912.478 517.513 953.862 517.513 1004.91" clip-rule="evenodd" fill-rule="evenodd"></path>
<path fill="#BFD881" d="M477.605 1093.73C477.605 1144.78 436.185 1186.16 385.088 1186.16C333.992 1186.16 292.571 1144.78 292.571 1093.73C292.571 1042.68 333.992 1001.29 385.088 1001.29C436.185 1001.29 477.605 1042.68 477.605 1093.73" clip-rule="evenodd" fill-rule="evenodd"></path>
<path fill="#BFD881" d="M571.935 899.792C571.935 950.845 530.514 992.229 479.418 992.229C428.321 992.229 386.901 950.845 386.901 899.792C386.901 848.74 428.321 807.355 479.418 807.355C530.514 807.355 571.935 848.74 571.935 899.792" clip-rule="evenodd" fill-rule="evenodd"></path>
<path fill="#FFA9B1" d="M764.223 1184.12H1335.65V601.536H764.223V1184.12Z" clip-rule="evenodd" fill-rule="evenodd"></path>
<path fill="#A9555D" d="M1259.92 466.604H586.449V670.059H1386.45L1259.92 466.604" clip-rule="evenodd" fill-rule="evenodd"></path>
<path fill="#FDC3C9" d="M769.442 1186.16H399.374V603.575L588.033 470.231L769.442 603.575V1186.16" clip-rule="evenodd" fill-rule="evenodd"></path>
<path fill="#8C4F54" d="M372.8 664.246L352.479 638.712L588.68 451.048L805.458 629.838L784.675 654.997L588.299 493.036L372.8 664.246" clip-rule="evenodd" fill-rule="evenodd"></path>
<path fill="#A9555D" d="M1319.64 964.362H797.039C792.653 964.362 790.068 959.447 792.56 955.836L862.955 853.884C863.967 852.416 865.643 851.535 867.434 851.535H1257.74C1259.64 851.535 1261.41 852.524 1262.39 854.15L1324.29 956.103C1326.49 959.73 1323.88 964.362 1319.64 964.362" clip-rule="evenodd" fill-rule="evenodd"></path>
<path fill="#9E764F" d="M464 1187.07H706.177V950.54H464V1187.07Z" clip-rule="evenodd" fill-rule="evenodd"></path>
<path fill="#FCFCFC" d="M714.34 1187.07H698.014V958.696H472.163V1187.07H455.837V950.54C455.837 946.038 459.488 942.384 464 942.384H706.177C710.683 942.384 714.34 946.038 714.34 950.54V1187.07" clip-rule="evenodd" fill-rule="evenodd"></path>
<path fill="#9CC1DC" d="M868.305 818.23H952.958V716.071H868.305V818.23Z" clip-rule="evenodd" fill-rule="evenodd"></path>
<path fill="#FFFFFE" d="M876.468 810.074H944.794V724.232H876.468V810.074ZM952.958 826.386H868.305C863.799 826.386 860.141 822.732 860.141 818.23V716.076C860.141 711.574 863.799 707.92 868.305 707.92H952.958C957.469 707.92 961.121 711.574 961.121 716.076V818.23C961.121 822.732 957.469 826.386 952.958 826.386V826.386Z" clip-rule="evenodd" fill-rule="evenodd"></path>
<path fill="#9E764F" d="M863.543 1187.98H954.699V998.569H863.543V1187.98Z" clip-rule="evenodd" fill-rule="evenodd"></path>
<path fill="#FCFCFC" d="M962.862 1187.98H946.536V1006.73H871.706V1187.98H855.379V998.575C855.379 994.072 859.037 990.418 863.543 990.418H954.699C959.211 990.418 962.862 994.072 962.862 998.575V1187.98" clip-rule="evenodd" fill-rule="evenodd"></path>
<path fill="#A8CBE4" d="M654.269 699.394C652.136 660.391 619.902 629.386 580.326 629.386C540.751 629.386 508.517 660.391 506.384 699.394H506.177V835.902H654.476V699.394H654.269" clip-rule="evenodd" fill-rule="evenodd"></path>
<path fill="#FFFFFE" d="M514.34 827.745H646.313V701.194L646.117 699.84C644.207 664.909 615.309 637.542 580.326 637.542C545.344 637.542 516.446 664.909 514.53 699.84L514.34 701.226V827.745ZM654.476 844.058H506.177C501.665 844.058 498.013 840.404 498.013 835.902V699.394C498.013 698.578 498.133 697.784 498.356 697.039C501.671 654.377 537.311 621.23 580.326 621.23C623.341 621.23 658.977 654.377 662.291 697.039C662.514 697.784 662.639 698.578 662.639 699.394V835.902C662.639 840.404 658.982 844.058 654.476 844.058V844.058Z" clip-rule="evenodd" fill-rule="evenodd"></path>
<path fill="#FFFFFE" d="M572.163 832.732H588.49V628.826H572.163V832.732Z" clip-rule="evenodd" fill-rule="evenodd"></path>
<path fill="#FFFFFE" d="M507.537 708.572H653.567V692.26H507.537V708.572Z" clip-rule="evenodd" fill-rule="evenodd"></path>
<path fill="#9CC1DC" d="M880.326 1100.07H937.921V1021.23H880.326V1100.07Z" clip-rule="evenodd" fill-rule="evenodd"></path>
<path fill="#B99068" d="M483.047 1186.62H500.577V958.724H483.047V1186.62Z" clip-rule="evenodd" fill-rule="evenodd"></path>
<path fill="#B99068" d="M514.215 1186.62H531.744V958.724H514.215V1186.62Z" clip-rule="evenodd" fill-rule="evenodd"></path>
<path fill="#B99068" d="M545.382 1186.62H562.912V958.724H545.382V1186.62Z" clip-rule="evenodd" fill-rule="evenodd"></path>
<path fill="#B99068" d="M576.55 1186.62H594.079V958.724H576.55V1186.62Z" clip-rule="evenodd" fill-rule="evenodd"></path>
<path fill="#B99068" d="M607.711 1186.62H625.246V958.724H607.711V1186.62Z" clip-rule="evenodd" fill-rule="evenodd"></path>
<path fill="#B99068" d="M638.884 1186.62H656.419V958.724H638.884V1186.62Z" clip-rule="evenodd" fill-rule="evenodd"></path>
<path fill="#B99068" d="M670.052 1186.62H687.586V958.724H670.052V1186.62Z" clip-rule="evenodd" fill-rule="evenodd"></path>
<path fill="#32424F" d="M794.188 979.767H1322.58V963.454H794.188V979.767Z" clip-rule="evenodd" fill-rule="evenodd"></path>
<path fill="#813C42" d="M769.442 685.24H1386.32V668.928H769.442V685.24Z" clip-rule="evenodd" fill-rule="evenodd"></path>
<path fill="#FFFFFE" d="M868.985 764.307H953.796V747.994H868.985V764.307Z" clip-rule="evenodd" fill-rule="evenodd"></path>
<path fill="#32424F" d="M1264.9 945.102H956.517C952.005 945.102 948.354 941.448 948.354 936.946C948.354 932.444 952.005 928.79 956.517 928.79H1264.9C1269.41 928.79 1273.07 932.444 1273.07 936.946C1273.07 941.448 1269.41 945.102 1264.9 945.102" clip-rule="evenodd" fill-rule="evenodd"></path>
<path fill="#32424F" d="M1096.2 912.477H857.649C853.143 912.477 849.486 908.823 849.486 904.321C849.486 899.819 853.143 896.165 857.649 896.165H1096.2C1100.71 896.165 1104.36 899.819 1104.36 904.321C1104.36 908.823 1100.71 912.477 1096.2 912.477" clip-rule="evenodd" fill-rule="evenodd"></path>
<path fill="#32424F" d="M1136.11 881.669H942.911C938.4 881.669 934.748 878.015 934.748 873.513C934.748 869.01 938.4 865.356 942.911 865.356H1136.11C1140.61 865.356 1144.27 869.01 1144.27 873.513C1144.27 878.015 1140.61 881.669 1136.11 881.669" clip-rule="evenodd" fill-rule="evenodd"></path>
<path fill="#32424F" d="M918.422 943.292H837.692C833.186 943.292 829.529 939.638 829.529 935.136C829.529 930.633 833.186 926.979 837.692 926.979H918.422C922.928 926.979 926.585 930.633 926.585 935.136C926.585 939.638 922.928 943.292 918.422 943.292" clip-rule="evenodd" fill-rule="evenodd"></path>
<path fill="#813C42" d="M1127.04 642.42H852.207C847.701 642.42 844.043 638.766 844.043 634.264C844.043 629.761 847.701 626.107 852.207 626.107H1127.04C1131.55 626.107 1135.2 629.761 1135.2 634.264C1135.2 638.766 1131.55 642.42 1127.04 642.42" clip-rule="evenodd" fill-rule="evenodd"></path>
<path fill="#813C42" d="M1175.11 603.45H816.833C812.327 603.45 808.669 599.796 808.669 595.293C808.669 590.791 812.327 587.137 816.833 587.137H1175.11C1179.62 587.137 1183.27 590.791 1183.27 595.293C1183.27 599.796 1179.62 603.45 1175.11 603.45" clip-rule="evenodd" fill-rule="evenodd"></path>
<path fill="#813C42" d="M1291.21 562.668H828.626C824.114 562.668 820.462 559.014 820.462 554.512C820.462 550.01 824.114 546.356 828.626 546.356H1291.21C1295.72 546.356 1299.37 550.01 1299.37 554.512C1299.37 559.014 1295.72 562.668 1291.21 562.668" clip-rule="evenodd" fill-rule="evenodd"></path>
<path fill="#813C42" d="M1000.05 528.233H712.522C708.016 528.233 704.359 524.579 704.359 520.077C704.359 515.574 708.016 511.92 712.522 511.92H1000.05C1004.56 511.92 1008.22 515.574 1008.22 520.077C1008.22 524.579 1004.56 528.233 1000.05 528.233" clip-rule="evenodd" fill-rule="evenodd"></path>
<path fill="#813C42" d="M1235.88 496.511H678.966C674.454 496.511 670.802 492.857 670.802 488.354C670.802 483.852 674.454 480.198 678.966 480.198H1235.88C1240.39 480.198 1244.04 483.852 1244.04 488.354C1244.04 492.857 1240.39 496.511 1235.88 496.511" clip-rule="evenodd" fill-rule="evenodd"></path>
<circle fill="#FAE7A3" r="85.3333" cy="182.857" cx="633.905"></circle>
<path fill="#F6F6F8" d="M735.545 339.74H607.695C568.309 339.74 536.381 307.642 536.381 268.046C536.381 228.451 568.309 196.352 607.695 196.352C619.581 196.352 630.787 199.275 640.642 204.445C654.364 164.433 692.147 135.688 736.609 135.688C792.658 135.688 838.095 181.367 838.095 237.714C838.095 238.869 838.076 240.019 838.038 241.165C854.4 250.002 865.524 267.369 865.524 287.349C865.524 316.284 842.191 339.74 813.409 339.74H736.609C736.449 339.74 735.545 339.74 735.545 339.74H736.609H735.545Z" clip-rule="evenodd" fill-rule="evenodd"></path>
</g>
<defs>
<linearGradient gradientUnits="userSpaceOnUse" y2="446.745" x2="964.769" y1="0" x1="512" id="paint0_linear_604_2875">
<stop stop-color="#B8CEE5"></stop>
<stop stop-color="#B1C6F3" offset="1"></stop>
</linearGradient>
<linearGradient gradientUnits="userSpaceOnUse" y2="1527.89" x2="520.108" y1="520.108" x1="-487.676" id="paint1_linear_604_2875">
<stop stop-color="#BBD2DF"></stop>
<stop stop-color="#ADC0FF" offset="1"></stop>
</linearGradient>
<clipPath id="clip0_604_2875">
<rect fill="white" rx="160" height="1024" width="1024"></rect>
</clipPath>
</defs>
</svg>
