<svg xmlns="http://www.w3.org/2000/svg" fill="none" viewBox="0 0 1024 1024" height="1024" width="1024">
<g clip-path="url(#clip0_610_4544)">
<rect fill="url(#paint0_radial_610_4544)" rx="160" height="1024" width="1024"></rect>
<path fill="url(#paint1_linear_610_4544)" d="M883.31 335.25C938.503 373.98 953.902 366.735 975.405 359.115C1022.08 342.576 1057.56 328.832 1098.36 345.35V544.532L545.343 527.049C480.957 524.71 554.165 492.974 570.706 487.956C587.247 482.938 601.597 478.358 613.131 472.296C626.826 465.098 637.074 452.899 649.048 443.388C660.042 434.654 670.48 431.075 683.691 427.06C707.894 419.704 741.807 416.378 758.72 396.005C796.213 350.844 839.77 304.698 883.31 335.25Z"></path>
<path fill="url(#paint2_linear_610_4544)" d="M-72.8574 510H1095.89V555.156C1095.89 877.898 834.259 1139.53 511.518 1139.53V1139.53C188.776 1139.53 -72.8574 877.898 -72.8574 555.156V510Z"></path>
<path fill="#002CD2" d="M1272 696.304C1262.12 696.304 803.481 589.221 790.845 584.294C734.021 562.139 957.77 534.213 916.229 522.75C876.082 511.672 674.667 523.922 674.667 523.922C774.109 525.569 867.094 521.509 869.563 526.612C872.033 531.715 638.826 550.255 680.902 593.941C754.403 670.255 944.578 748.001 944.578 748.001L1272 748.001L1272 696.304Z"></path>
<path fill="#0B09B8" d="M1106.33 741.095C1106.33 1221.5 202.5 1103 69 1005.5C-64.5 908 14.9001 772.773 -14.0001 703C-62.3013 586.388 -1.87296 510.002 -1.87296 510.002L401.092 510.001C401.092 510.001 547.044 503.106 487.42 536.564C395.116 588.361 1106.33 741.095 1106.33 741.095Z"></path>
<path fill-opacity="0.3" fill="black" d="M775.238 905.903C587.238 947.236 111.238 735.236 360.572 692.57C609.905 649.903 963.239 864.57 775.238 905.903Z"></path>
<path fill="url(#paint3_linear_610_4544)" d="M71.0546 642.812C47.6997 659.959 19.2577 690.625 19.2577 690.625C19.2577 690.625 -10.5755 620.251 -17.9298 572.421C-25.2998 524.489 -17.9298 449.57 -17.9298 449.57C-17.9298 449.57 9.24284 465.298 27.8906 472.812C46.5383 480.326 89.6565 476.687 134.141 484.101C191.637 493.684 260.14 523.842 279.533 532.739C282.965 534.314 285.485 537.305 286.54 540.93L295.508 571.757C295.508 571.757 268.727 579.76 258.32 583.71C186.602 610.937 108.906 615.022 71.0546 642.812Z"></path>
<path fill="url(#paint4_linear_610_4544)" d="M71.0552 642.812C47.7004 659.959 19.2584 690.625 19.2584 690.625C19.2584 690.625 -10.5748 620.251 -17.9291 572.421C-19.6721 561.086 -20.5907 548.241 -20.9773 535.234L37.188 564.453L201.876 588.359L268.282 560.468L284.883 535.234L295.508 571.757C295.508 571.757 268.728 579.76 258.321 583.71C186.602 610.937 108.907 615.022 71.0552 642.812Z"></path>
<path fill="url(#paint5_linear_610_4544)" d="M27.8906 472.812C46.5383 480.326 89.6566 476.687 134.141 484.101C165.556 489.337 200.256 500.715 228.437 511.412L144.765 491.406L105.586 494.726L164.687 530.585L17.2653 489.414L-16.6019 470.156L-17.9297 449.57C-17.9297 449.57 9.24291 465.298 27.8906 472.812Z"></path>
<path fill="#322F74" d="M462.719 776.672C470.347 784.794 475.183 795.171 478.555 805.791C483.579 821.608 485.609 838.371 484.507 854.93C483.726 866.653 481.333 878.42 475.985 888.881C471.705 897.254 464.066 905.381 454.677 904.862C449.232 904.562 444.357 901.346 440.417 897.576C430.647 888.228 425.138 875.254 421.655 862.188C415.642 839.639 415.012 815.371 422 793.105C424.022 786.663 426.763 780.265 431.424 775.381C436.085 770.497 442.976 767.339 449.618 768.551C454.76 769.489 459.141 772.861 462.719 776.672Z"></path>
<path fill="#0E0355" d="M470.405 828.937C472.814 844.076 472.776 860.172 466.248 874.042C464.354 878.063 461.502 882.166 457.172 883.17C451.411 884.506 446.014 879.771 442.823 874.791C437.791 866.938 435.35 857.699 433.893 848.486C431.701 834.624 431.63 820.136 436.212 806.871C437.381 803.484 438.896 800.124 441.389 797.551C443.882 794.978 447.511 793.292 451.047 793.87C454.647 794.458 457.506 797.203 459.708 800.111C465.958 808.366 468.777 818.711 470.405 828.937Z"></path>
<path fill="#312E70" d="M252.03 711.52C252.995 730.697 249.408 759.026 238.668 758.838C229.462 758.678 220.324 730.348 218.97 710.943C217.638 691.85 220.951 662.993 231.692 663.181C242.432 663.368 251.002 691.065 252.03 711.52Z"></path>
<path fill="#0A023D" d="M219.297 676.635C219.99 673.101 220.884 669.493 223.005 666.583C228.236 659.409 238.587 658.973 247.463 659.22C250.123 659.294 252.899 659.398 255.234 660.675C256.927 661.601 258.248 663.072 259.461 664.573C270.726 678.507 275.235 696.73 277.107 714.55C278.438 727.216 277.989 740.47 272.291 751.859C271.38 753.68 270.266 755.498 268.542 756.581C266.995 757.554 265.124 757.829 263.314 758.083C257.801 758.856 252.288 759.63 246.775 760.403C243.781 760.823 241.179 761.358 238.251 760.606C231.786 758.945 228.073 752.273 225.625 746.063C216.987 724.149 214.763 699.75 219.297 676.635ZM219.318 706.644C220.231 722.684 222.833 739.186 231.483 752.725C233.286 755.547 235.724 758.442 239.056 758.784C242.062 759.092 244.455 756.992 246.07 754.437C247.684 751.881 248.278 748.83 248.786 745.85C253.336 719.17 253.382 690.002 238.339 667.502C237.276 665.912 236.06 664.295 234.301 663.542C231.909 662.517 229.023 663.4 227.077 665.127C225.131 666.855 223.963 669.285 223.036 671.716C218.834 682.74 218.647 694.865 219.318 706.644Z"></path>
<path fill="#0A023D" d="M510.744 805.204C516.986 818.527 521.622 832.715 523.147 847.349C524.671 861.983 522.99 877.099 517.084 890.574C515.088 895.129 512.533 899.585 508.675 902.722C506.13 904.791 503.12 906.203 500.084 907.443C483.927 914.044 464.76 916.082 449.445 907.709C435.636 900.159 427.191 885.461 422.085 870.573C415.719 852.008 413.483 832.039 415.587 812.526C416.889 800.451 419.947 788.301 426.676 778.191C428.984 774.723 431.767 771.475 435.328 769.314C439.714 766.653 444.938 765.826 450.02 765.134C454.736 764.491 459.497 763.916 464.243 764.261C475.055 765.047 485.132 770.643 492.853 778.253C500.574 785.863 506.146 795.387 510.744 805.204ZM478.555 805.794C475.182 795.174 470.346 784.797 462.718 776.674C459.14 772.863 454.759 769.491 449.617 768.553C442.975 767.341 436.084 770.5 431.423 775.384C426.762 780.267 424.021 786.666 422 793.107C415.011 815.374 415.641 839.641 421.654 862.191C425.137 875.256 430.646 888.23 440.416 897.579C444.356 901.349 449.231 904.564 454.676 904.865C464.065 905.384 471.704 897.257 475.984 888.884C481.332 878.422 483.725 866.656 484.506 854.932C485.608 838.373 483.578 821.611 478.555 805.794Z"></path>
<path fill="url(#paint6_linear_610_4544)" d="M217.946 667.647C218.252 667.412 221.768 669.012 221.591 670.077C221.646 675.548 221.589 681.019 221.643 686.49C221.665 688.733 220.014 689.764 218.443 690.091C216.223 690.552 213.667 690.725 211.899 688.723C210.33 686.948 209.234 684.921 210.137 682.368C210.314 681.865 210.166 681.246 210.166 680.68C210.166 672.899 210.204 665.118 210.146 657.337C210.124 654.329 210.523 651.107 209.6 648.362C207.973 643.522 208.316 639.002 209.708 634.293C210.636 631.155 212.784 628.986 215.11 627.019C219.408 623.383 224.696 621.771 230.07 620.68C234.371 619.807 238.785 619.494 243.147 618.918C248.444 618.219 253.735 617.476 259.035 616.808C262.814 616.332 266.597 615.826 270.394 615.591C271.752 615.507 272.225 614.843 272.541 613.882C276.104 603.047 279.68 592.216 283.147 581.351C284.825 576.092 286.171 570.728 287.873 565.477C289.114 561.648 291.931 559.569 295.975 559.057C300.927 558.429 305.853 557.603 310.805 556.975C313.927 556.579 317.084 556.454 320.211 556.089C324.511 555.587 328.795 554.947 333.092 554.42C334.864 554.202 336.658 554.177 338.431 553.972C343.081 553.437 347.722 552.818 352.373 552.296C355.433 551.953 358.505 551.732 361.57 551.433C367.278 550.877 372.985 550.303 378.693 549.741C378.903 549.72 379.117 549.743 379.329 549.738C385.283 549.597 391.238 549.469 397.191 549.309C401.59 549.191 405.987 549.019 410.385 548.893C415.773 548.738 421.165 548.429 426.548 548.539C432.259 549.067 466.056 552.987 471.763 553.56C475.903 553.975 480.041 554.417 484.181 554.829C489.958 555.404 495.738 555.954 501.515 556.532C505.585 556.94 509.65 557.399 513.721 557.797C519.71 558.383 525.703 558.92 531.692 559.505C535.763 559.903 539.834 560.312 543.897 560.783C548.407 561.306 552.902 561.962 557.415 562.449C559.89 562.716 562.392 562.709 564.876 562.904C572.369 563.494 578.596 566.748 582.963 572.767C585.26 575.933 586.083 579.972 586.668 583.942C587.38 588.775 588.372 593.565 589.17 598.386C589.797 602.173 590.258 605.988 590.894 609.774C591.68 614.456 592.616 619.113 593.404 623.795C594.041 627.58 594.669 631.373 595.094 635.185L595.111 635.339C595.57 639.47 595.591 639.664 599.811 640.55C607.501 642.164 615.221 643.636 622.912 645.248C629.279 646.582 635.611 648.08 641.977 649.415C647.133 650.496 652.323 651.413 657.486 652.459C662.438 653.462 667.373 654.546 672.319 655.58C677.529 656.668 682.743 657.739 687.956 658.817C692.908 659.84 697.863 660.85 702.813 661.888C707.3 662.829 711.779 663.811 716.266 664.756C721.278 665.811 726.299 666.829 731.309 667.89C736.313 668.951 741.307 670.055 746.31 671.123C751.381 672.205 756.454 673.281 761.531 674.335C766.681 675.403 771.839 676.43 776.989 677.495C782.003 678.531 787.012 679.595 792.026 680.639C796.52 681.576 801.016 682.501 805.511 683.434C810.656 684.502 815.803 685.564 820.946 686.645C827.256 687.971 869.986 701.486 876.302 702.785L887.236 816.956C883.556 819.281 879.044 824.993 874.7 825.715C868.433 826.756 862.195 827.964 855.942 829.084C851.132 829.947 846.311 830.751 841.507 831.643C836.392 832.592 831.301 833.671 826.181 834.59C820.307 835.644 814.399 836.51 808.531 837.597C802.969 838.628 797.451 839.9 791.892 840.953C786.955 841.888 781.978 842.614 777.037 843.531C770.546 844.736 764.08 846.079 757.589 847.284C752.582 848.213 747.545 848.977 742.537 849.898C738.345 850.669 734.185 851.615 729.992 852.385C724.983 853.304 719.945 854.065 714.937 854.991C709.365 856.021 703.819 857.194 698.25 858.24C693.973 859.043 689.672 859.726 685.389 860.5C680.524 861.379 675.667 862.304 670.806 863.201C666.467 864.002 662.129 864.802 657.787 865.585C654.559 866.167 651.317 866.681 648.095 867.295C643.841 868.106 639.6 868.984 635.354 869.832C630.388 870.823 625.432 871.864 620.453 872.788C616.233 873.571 611.979 874.167 607.756 874.94C603.496 875.719 599.288 877.026 595 877.343C590.594 877.669 587.269 880.846 582.857 880.358C580.637 880.112 578.818 881.374 576.786 880.358C565.614 876.602 543.699 872.336 532.563 868.474C525.701 866.094 518.889 863.571 512.033 861.173C508.939 860.092 507.027 856.023 504.046 854.703C499.803 852.825 498.993 850.143 496.634 845.928C492.606 838.732 492.562 834.259 490.491 826.363C488.241 817.783 490.901 808.085 486.316 800.357C482.498 793.922 474.726 790.342 469.599 784.936C464.771 779.844 466.338 770.706 460.178 767.479C453.72 764.097 443.822 758.693 436.579 757.341C433.603 756.786 417.323 756.411 416.013 759.143C413.839 763.679 409.223 769.152 409.267 774.156C409.304 778.383 406.498 779.606 406.936 783.842C407.818 792.352 409.945 798.382 411.942 806.624C412.302 808.108 421.218 821.643 419.097 821.759C418.121 821.813 416.995 821.689 416.151 821.242C407.795 816.807 399.496 812.264 391.156 807.798C383.053 803.46 374.914 799.191 366.805 794.865C357.939 790.135 349.097 785.361 340.231 780.632C332.121 776.307 323.987 772.028 315.876 767.705C307.531 763.256 299.208 758.766 290.862 754.318C284.374 750.859 277.863 747.446 271.37 743.997C266.498 741.41 261.779 738.471 256.726 736.312C253.346 734.868 251.406 732.754 250.486 729.398C250.12 728.064 249.784 726.721 249.369 725.404C246.923 717.647 244.63 709.836 241.952 702.159C239.045 693.827 235.987 685.533 232.579 677.396C230.616 672.712 226.615 669.69 221.895 667.874C220.753 667.435 218.289 667.072 217.946 667.647Z"></path>
<path fill="url(#paint7_linear_610_4544)" d="M874.699 828.727C879.044 828.005 883.213 826.705 886.893 824.38L886.496 718.986C886.46 709.43 878.076 702.056 868.593 703.24L584.64 729.936L582.027 884.006C586.314 883.689 603.496 879.564 607.756 878.785C611.978 878.012 616.233 876.583 620.453 875.8C625.431 874.876 630.388 873.836 635.353 872.845C639.6 871.997 643.84 871.118 648.094 870.308C651.317 869.694 654.558 869.179 657.787 868.597C662.128 867.815 666.467 867.015 670.805 866.214C675.667 865.317 680.524 864.392 685.388 863.513C689.672 862.739 693.972 862.056 698.25 861.252C703.819 860.206 709.364 859.034 714.936 858.004C719.944 857.078 724.982 856.317 729.991 855.397C734.184 854.628 738.344 853.681 742.536 852.911C747.545 851.99 752.582 851.226 757.588 850.296C764.079 849.091 770.545 847.748 777.037 846.544C781.978 845.627 786.954 844.901 791.892 843.965C797.451 842.912 802.968 841.641 808.531 840.61C814.398 839.523 820.306 838.657 826.18 837.602C831.3 836.683 836.392 835.605 841.507 834.655C846.311 833.764 851.131 832.959 855.941 832.097C862.194 830.976 868.433 829.769 874.699 828.727Z"></path>
<path fill-opacity="0.31" fill="url(#paint8_linear_610_4544)" d="M874.699 828.727C879.044 828.005 883.213 826.705 886.893 824.38L886.496 718.986C886.46 709.43 878.076 702.056 868.593 703.24L584.64 729.936L582.027 884.006C586.314 883.689 603.496 879.564 607.756 878.785C611.978 878.012 616.233 876.583 620.453 875.8C625.431 874.876 630.388 873.836 635.353 872.845C639.6 871.997 643.84 871.118 648.094 870.308C651.317 869.694 654.558 869.179 657.787 868.597C662.128 867.815 666.467 867.015 670.805 866.214C675.667 865.317 680.524 864.392 685.388 863.513C689.672 862.739 693.972 862.056 698.25 861.252C703.819 860.206 709.364 859.034 714.936 858.004C719.944 857.078 724.982 856.317 729.991 855.397C734.184 854.628 738.344 853.681 742.536 852.911C747.545 851.99 752.582 851.226 757.588 850.296C764.079 849.091 770.545 847.748 777.037 846.544C781.978 845.627 786.954 844.901 791.892 843.965C797.451 842.912 802.968 841.641 808.531 840.61C814.398 839.523 820.306 838.657 826.18 837.602C831.3 836.683 836.392 835.605 841.507 834.655C846.311 833.764 851.131 832.959 855.941 832.097C862.194 830.976 868.433 829.769 874.699 828.727Z"></path>
<path fill="#E80047" d="M217.842 667.193C218.148 666.959 221.664 668.559 221.487 669.624C221.542 675.094 221.485 680.566 221.539 686.036C221.561 688.28 219.91 689.311 218.338 689.638C216.119 690.099 213.563 690.272 211.795 688.27C210.226 686.494 209.13 684.467 210.032 681.914C210.21 681.411 210.061 680.792 210.061 680.227C210.062 672.446 210.1 664.665 210.042 656.884C210.02 653.876 210.419 650.654 209.496 647.909C207.869 643.069 208.212 638.548 209.604 633.839C210.531 630.702 212.679 628.533 215.005 626.565C219.304 622.929 224.592 621.317 229.966 620.227C234.267 619.354 238.681 619.041 243.043 618.465C248.34 617.766 253.684 617.581 258.984 616.914L371.874 659.414L584.374 729.804L578.398 882.539C578.275 881.026 571.273 881.244 569.903 880.784C558.731 877.028 543.594 871.883 532.459 868.02C525.597 865.64 518.785 863.118 511.929 860.72C508.835 859.638 506.923 855.569 503.941 854.25C499.698 852.372 498.888 849.689 496.53 845.475C492.502 838.279 492.457 833.806 490.387 825.91C488.137 817.329 490.796 807.632 486.212 799.904C482.394 793.469 474.622 789.889 469.495 784.482C464.667 779.39 466.234 770.253 460.073 767.026C453.615 763.644 443.718 758.239 436.474 756.888C433.499 756.332 417.219 755.958 415.909 758.69C413.735 763.225 409.119 768.698 409.163 773.703C409.2 777.929 406.394 779.153 406.832 783.388C407.713 791.899 409.841 797.929 411.838 806.171C412.198 807.655 421.113 821.189 418.993 821.306C418.016 821.36 416.891 821.236 416.047 820.788C407.691 816.354 399.392 811.811 391.052 807.345C382.949 803.007 374.81 798.737 366.7 794.411C357.835 789.682 348.992 784.908 340.126 780.179C332.017 775.853 323.883 771.575 315.772 767.252C307.427 762.803 299.103 758.313 290.758 753.864C284.27 750.406 277.759 746.992 271.266 743.544C266.394 740.956 261.675 738.017 256.622 735.858C253.241 734.414 251.301 732.3 250.382 728.944C250.016 727.611 249.68 726.268 249.264 724.95C246.818 717.193 244.525 709.382 241.847 701.706C238.94 693.374 235.882 685.079 232.474 676.943C230.512 672.259 226.511 669.237 221.791 667.421C220.648 666.982 218.185 666.618 217.842 667.193Z"></path>
<path fill="url(#paint9_linear_610_4544)" d="M354.797 681.084C353.993 683.765 353.841 686.648 353.491 689.453L346.641 784.205L416.53 821.362C416.53 821.362 419.384 823.129 420.562 821.362C423.958 816.268 415.255 799.951 415.255 781.488C415.255 771.705 420.348 763.025 420.348 763.025C441.103 759.038 473.826 784.883 493.987 850.458C496.98 860.194 582.481 884.043 582.481 884.043L584.603 729.92L375.572 661.058C373.247 660.388 370.618 659.798 368.321 660.221C363.88 661.037 361.461 664.896 359.529 668.429C357.387 672.344 356.09 676.77 354.797 681.084Z"></path>
<path fill="#019AF5" d="M301.385 567.428C296.05 566.272 292.977 567.865 291.505 573.48L278.593 622.733C278.47 623.206 278.599 624.024 278.925 624.28C279.851 625.005 280.885 625.661 281.975 626.095C286.531 627.904 291.155 629.541 295.694 631.389C305.133 635.233 314.515 639.22 323.957 643.056C333.097 646.77 342.278 650.386 351.46 653.996C352.062 654.232 354.49 654.998 356.792 655.712C359.136 656.439 361.539 654.786 361.71 652.338L365.711 595.23C365.929 592.126 365.297 589.02 363.883 586.248C361.687 581.943 357.768 578.784 353.015 577.91C350.189 577.39 347.337 576.903 345.17 576.455C340.681 575.526 336.205 574.538 331.719 573.594L331.114 573.467C325.719 572.333 320.324 571.198 314.921 570.101C310.414 569.186 305.879 568.401 301.385 567.428Z"></path>
<path fill="#E3FFD8" d="M596.58 800.968C589.506 792.733 591.574 781.42 599.098 775.677C606.455 770.063 616.23 773.355 619.439 782.574C622.784 792.183 617.026 802.007 609.656 804.324C604.682 805.887 600.426 804.604 596.58 800.968Z"></path>
<path fill="#E3FFD8" d="M857.111 755.531C857.588 759.038 859.546 761.683 862.162 763.816C865.133 766.237 870.909 765.552 873.099 762.531C877.553 756.387 878.361 749.903 874.609 743.07C872.441 739.123 868.25 737.309 864.378 738.456C858.244 740.273 855.399 749.811 857.111 755.531Z"></path>
<path fill="#0876B8" d="M374.479 654.849C374.401 655.434 378.5 661.718 383.806 660.657L589.442 644.105L588.726 640.631C588.014 636.836 587.24 633.053 586.459 629.271C585.397 624.126 584.313 618.986 583.24 613.843C582.263 609.155 581.241 604.476 580.33 599.775C579.667 596.354 579.146 592.905 578.573 589.467C577.999 586.025 577.926 582.404 576.755 579.18C575.169 574.815 573.101 571.851 567.425 572.337C562.883 572.725 558.326 572.937 553.775 573.203C548.659 573.502 543.542 573.767 538.426 574.057C533.592 574.332 528.759 574.623 523.925 574.904C519.021 575.189 514.116 575.469 509.212 575.754L507.642 575.845C503.332 576.095 499.021 576.346 494.712 576.604C490.09 576.88 485.469 577.175 480.847 577.449C475.943 577.74 471.038 578.009 466.135 578.302C461.583 578.574 457.034 578.878 452.482 579.146C447.438 579.442 442.391 579.708 437.346 579.999C432.582 580.274 427.82 580.565 423.057 580.846C418.224 581.131 413.392 581.454 408.556 581.683C404.303 581.884 400.043 581.927 395.79 582.134C391.289 582.353 385.898 585.48 385.861 590.843C385.853 591.911 385.65 592.986 385.451 594.042L385.447 594.061C384.333 599.96 383.184 605.854 382.063 611.752C381.34 615.558 380.608 619.363 379.949 623.181C379.332 626.756 378.859 630.358 378.225 633.93C377.585 637.539 376.789 641.12 376.129 644.725C375.513 648.089 374.925 651.461 374.479 654.849Z"></path>
<path fill-opacity="0.16" fill="url(#paint10_linear_610_4544)" d="M418.373 670.236C413.878 668.783 414.639 662.203 419.348 661.815L598.259 647.3C598.675 647.266 599.093 647.292 599.502 647.378L824.603 693.49C829.411 694.499 829.077 701.472 824.194 702.016L589.082 724.07C588.473 724.138 587.857 724.075 587.274 723.887L418.373 670.236Z"></path>
<path fill="#0E0355" d="M242.72 712.441C242.468 726.918 240.088 739.413 235.785 738.257C232.655 737.416 226.508 724.918 226.768 710.001C227.029 695.084 230.34 678.722 234.586 683.119C236.691 686.398 242.981 697.524 242.72 712.441Z"></path>
</g>
<defs>
<radialGradient gradientTransform="translate(512 -444.952) rotate(90) scale(1865.14 2945.06)" gradientUnits="userSpaceOnUse" r="1" cy="0" cx="0" id="paint0_radial_610_4544">
<stop stop-color="#061175" offset="0.172168"></stop>
<stop stop-color="#0856D8" offset="0.443787"></stop>
</radialGradient>
<linearGradient gradientUnits="userSpaceOnUse" y2="598.985" x2="818.789" y1="325.391" x1="808.828" id="paint1_linear_610_4544">
<stop stop-color="#0001A8" offset="0.495209"></stop>
<stop stop-color="#0001B1" offset="1"></stop>
</linearGradient>
<linearGradient gradientUnits="userSpaceOnUse" y2="1217.23" x2="1077.3" y1="425" x1="386.105" id="paint2_linear_610_4544">
<stop stop-color="#0304DA" offset="0.0684094"></stop>
<stop stop-color="#0A07A0" offset="0.626732"></stop>
</linearGradient>
<linearGradient gradientUnits="userSpaceOnUse" y2="485.714" x2="376.428" y1="619.285" x1="-78.9287" id="paint3_linear_610_4544">
<stop stop-color="#223372" offset="0.349214"></stop>
<stop stop-color="#133DD5" offset="1"></stop>
</linearGradient>
<linearGradient gradientUnits="userSpaceOnUse" y2="655.714" x2="-12.1421" y1="491.785" x1="236.786" id="paint4_linear_610_4544">
<stop stop-color="#030E4A"></stop>
<stop stop-color="#142156" offset="1"></stop>
</linearGradient>
<linearGradient gradientUnits="userSpaceOnUse" y2="570.714" x2="248.928" y1="455.357" x1="-54.6432" id="paint5_linear_610_4544">
<stop stop-color="#0809A9" offset="0.180304"></stop>
<stop stop-color="#222372" offset="0.942043"></stop>
</linearGradient>
<linearGradient gradientUnits="userSpaceOnUse" y2="902.272" x2="695.344" y1="504.688" x1="179.961" id="paint6_linear_610_4544">
<stop stop-color="#D9002B" offset="0.109556"></stop>
<stop stop-color="#EC1246" offset="0.385289"></stop>
<stop stop-color="#9D0C40" offset="0.846431"></stop>
</linearGradient>
<linearGradient gradientUnits="userSpaceOnUse" y2="985.752" x2="582.197" y1="698.316" x1="566.022" id="paint7_linear_610_4544">
<stop stop-color="#E1002E" offset="0.202321"></stop>
<stop stop-color="#EB008D" offset="0.764988"></stop>
</linearGradient>
<linearGradient gradientUnits="userSpaceOnUse" y2="1232.5" x2="382.5" y1="734.641" x1="850" id="paint8_linear_610_4544">
<stop></stop>
<stop stop-opacity="0" offset="1"></stop>
</linearGradient>
<linearGradient gradientUnits="userSpaceOnUse" y2="982.149" x2="374.531" y1="660.079" x1="346.641" id="paint9_linear_610_4544">
<stop stop-color="#E80047" offset="0.202321"></stop>
<stop stop-color="#E20088" offset="0.764988"></stop>
</linearGradient>
<linearGradient gradientUnits="userSpaceOnUse" y2="740.543" x2="735.564" y1="654.101" x1="338.671" id="paint10_linear_610_4544">
<stop stop-opacity="0.4" stop-color="#0D153F" offset="0.0721018"></stop>
<stop stop-color="#080E30" offset="0.739719"></stop>
</linearGradient>
<clipPath id="clip0_610_4544">
<rect fill="white" rx="160" height="1024" width="1024"></rect>
</clipPath>
</defs>
</svg>
