<svg xml:space="preserve" style="enable-background:new 0 0 1024 1024;" viewBox="0 0 1024 1024" y="0px" x="0px" xmlns:xlink="http://www.w3.org/1999/xlink" xmlns="http://www.w3.org/2000/svg" id="图层_1" version="1.1">
<style type="text/css">
	.st0{fill:#F2F2F2;}
	.st1{fill:#AFAFAF;}
	.st2{fill:#C9C9C9;}
	.st3{fill:#FFFFFF;}
	.st4{fill:#DDDDDD;}
	.st5{fill:#F4F4F4;}
	.st6{fill:url(#SVGID_1_);}
	.st7{fill:url(#SVGID_2_);}
	.st8{fill:url(#SVGID_3_);}
	.st9{fill:url(#SVGID_4_);}
</style>
<rect height="1024" width="1024" class="st0"></rect>
<g>
	<polygon points="458.8,563.6 259.6,485.8 450.6,426.3 678.9,484.6" class="st1"></polygon>
	<polygon points="449,559.7 259.6,485.8 450.6,426.3" class="st2"></polygon>
	<path d="M666.5,735.4l-207.6,85.4V563.6l219.1-79v233.7C677.9,725.8,673.4,732.5,666.5,735.4z" class="st3"></path>
	<polygon points="704.9,539.3 485.9,629.4 458.8,563.6 677.9,484.6" class="st4"></polygon>
	<path d="M269.8,726.8l189,94V563.6l-199.2-77.8v224.5C259.6,717.3,263.6,723.6,269.8,726.8z" class="st5"></path>
	<polygon points="237.1,541.7 436.3,629.4 458.8,563.6 259.6,485.8" class="st4"></polygon>
	<polygon points="384.8,357.4 363.1,365.9 362.4,352.6 376.3,347.1" class="st1"></polygon>
	<path d="M412.9,232.4c-19.7-50.5-70.4-77.8-113.3-61.1c-42.9,16.7-61.6,71.2-41.9,121.6
		c19.7,50.5,70.4,77.8,113.3,61.1C413.9,337.3,432.6,282.9,412.9,232.4z M351.1,305c-46.4-3-65.6-38.2-50.3-53.4
		c15.3-15.2,29.8,1,29.8,1s1.5-22.4,23.1-21.6S383.3,271.3,351.1,305z" class="st1"></path>
	<g>
		<path d="M426.8,527.8c-0.2,0-0.5,0-0.7-0.1c-1.6-0.4-2.6-2-2.2-3.6c0,0,1.4-6.6,0.1-27.3c-0.7-10.6-5.4-19.5-9.9-28
			c-4.3-8.1-8.4-15.8-8-23.9c0.8-17.1-0.6-38.3-18.8-51.5c-21.7-15.7-15.8-44.6-15.5-45.8c0.3-1.6,1.9-2.6,3.5-2.3
			c1.6,0.3,2.6,1.9,2.3,3.5c-0.1,0.4-5.2,26.4,13.2,39.8c20.4,14.8,22.1,38,21.2,56.5c-0.3,6.4,3.2,13.1,7.3,20.8
			c4.6,8.7,9.8,18.5,10.6,30.4c1.4,21.9-0.1,28.8-0.2,29.1C429.4,526.9,428.2,527.8,426.8,527.8z" class="st1"></path>
	</g>
	<linearGradient y2="452.6331" x2="886.7704" y1="504.1542" x1="886.7704" gradientUnits="userSpaceOnUse" id="SVGID_1_">
		<stop style="stop-color:#F2F2F2" offset="0"></stop>
		<stop style="stop-color:#D8D8D8" offset="1"></stop>
	</linearGradient>
	<path d="M842.5,500.2c0,0,6.9-47,36.1-47.6c29.2-0.5,52.4,51.5,52.4,51.5" class="st6"></path>
	<linearGradient y2="453.923" x2="782.1229" y1="534.2489" x1="782.1229" gradientUnits="userSpaceOnUse" id="SVGID_2_">
		<stop style="stop-color:#F2F2F2" offset="0"></stop>
		<stop style="stop-color:#D8D8D8" offset="1"></stop>
	</linearGradient>
	<path d="M706.3,528.1c0,0,11.9-73.3,61.9-74.1c50-0.8,89.8,80.3,89.8,80.3" class="st7"></path>
	<linearGradient y2="710.7207" x2="276.3762" y1="779.184" x1="276.3762" gradientUnits="userSpaceOnUse" id="SVGID_3_">
		<stop style="stop-color:#F2F2F2" offset="0"></stop>
		<stop style="stop-color:#D8D8D8" offset="1"></stop>
	</linearGradient>
	<path d="M217.6,773.9c0,0,9.2-62.5,48-63.2s69.6,68.5,69.6,68.5" class="st8"></path>
	<linearGradient y2="676.2132" x2="173.5379" y1="782.9535" x1="173.5379" gradientUnits="userSpaceOnUse" id="SVGID_4_">
		<stop style="stop-color:#F2F2F2" offset="0"></stop>
		<stop style="stop-color:#D8D8D8" offset="1"></stop>
	</linearGradient>
	<path d="M72.8,774.8c0,0,15.7-97.4,82.2-98.5C221.5,675.1,274.3,783,274.3,783" class="st9"></path>
	<path d="M611.5,404.4h-6.3v-6.3c0-1.4-1.1-2.5-2.5-2.5c-1.4,0-2.5,1.1-2.5,2.5v6.3h-6.3c-1.4,0-2.5,1.1-2.5,2.5
		c0,1.4,1.1,2.5,2.5,2.5h6.3v6.3c0,1.4,1.1,2.5,2.5,2.5c1.4,0,2.5-1.1,2.5-2.5v-6.3h6.3c1.4,0,2.5-1.1,2.5-2.5
		C614,405.5,612.9,404.4,611.5,404.4z" class="st3"></path>
	<path d="M586.7,320.7h-8.2v-8.2c0-1.8-1.5-3.2-3.2-3.2c-1.8,0-3.2,1.5-3.2,3.2v8.2h-8.2c-1.8,0-3.2,1.5-3.2,3.2
		c0,1.8,1.5,3.2,3.2,3.2h8.2v8.2c0,1.8,1.5,3.2,3.2,3.2c1.8,0,3.2-1.5,3.2-3.2v-8.2h8.2c1.8,0,3.2-1.5,3.2-3.2
		C589.9,322.2,588.5,320.7,586.7,320.7z" class="st3"></path>
	<polygon points="471.1,331.4 478.7,301.1 486.3,331.4 507.8,339 486.3,346.5 478.7,376.8 471.1,346.5 449.6,339" class="st3"></polygon>
	<polygon points="640.4,371.8 645.3,351.9 650.3,371.8 664.4,376.7 650.3,381.7 645.3,401.5 640.4,381.7 626.2,376.7" class="st3"></polygon>
	<polygon points="163.4,534.4 168,516.1 172.5,534.4 185.6,538.9 172.5,543.5 168,561.8 163.4,543.5 150.3,538.9" class="st3"></polygon>
	<path d="M128.2,516.4H120v-8.2c0-1.8-1.5-3.2-3.2-3.2c-1.8,0-3.2,1.5-3.2,3.2v8.2h-8.2c-1.8,0-3.2,1.5-3.2,3.2
		c0,1.8,1.5,3.2,3.2,3.2h8.2v8.2c0,1.8,1.5,3.2,3.2,3.2c1.8,0,3.2-1.5,3.2-3.2v-8.2h8.2c1.8,0,3.2-1.5,3.2-3.2
		C131.5,517.8,130,516.4,128.2,516.4z" class="st3"></path>
	<path d="M648.1,278.5h-6.3v-6.3c0-1.4-1.1-2.5-2.5-2.5c-1.4,0-2.5,1.1-2.5,2.5v6.3h-6.3c-1.4,0-2.5,1.1-2.5,2.5
		c0,1.4,1.1,2.5,2.5,2.5h6.3v6.3c0,1.4,1.1,2.5,2.5,2.5c1.4,0,2.5-1.1,2.5-2.5v-6.3h6.3c1.4,0,2.5-1.1,2.5-2.5
		C650.6,279.6,649.4,278.5,648.1,278.5z" class="st3"></path>
	<path d="M694.6,314.5h-6.1v-6.1c0-1.3-1.1-2.4-2.4-2.4c-1.3,0-2.4,1.1-2.4,2.4v6.1h-6.1c-1.3,0-2.4,1.1-2.4,2.4
		c0,1.3,1.1,2.4,2.4,2.4h6.1v6.1c0,1.3,1.1,2.4,2.4,2.4c1.3,0,2.4-1.1,2.4-2.4v-6.1h6.1c1.3,0,2.4-1.1,2.4-2.4
		C697.1,315.6,696,314.5,694.6,314.5z" class="st3"></path>
	<polygon points="749.7,378.1 753.7,362.2 757.7,378.1 769,382.1 757.7,386.1 753.7,402 749.7,386.1 738.4,382.1" class="st3"></polygon>
</g>
</svg>
