<svg xml:space="preserve" style="enable-background:new 0 0 1024 1024;" viewBox="0 0 1024 1024" y="0px" x="0px" xmlns:xlink="http://www.w3.org/1999/xlink" xmlns="http://www.w3.org/2000/svg" id="图层_1" version="1.1">
<style type="text/css">
	.st0{fill:#F2F2F2;}
	.st1{fill:#E2E2E2;}
	.st2{fill:#AFAFAF;}
	.st3{fill:#CCCCCC;}
	.st4{fill:#FFFFFF;}
	.st5{fill:#DDDDDD;}
	.st6{fill:#F4F4F4;}
	.st7{fill:url(#SVGID_1_);}
	.st8{fill:url(#SVGID_2_);}
	.st9{fill:url(#SVGID_3_);}
	.st10{fill:url(#SVGID_4_);}
</style>
<rect height="1024" width="1024" class="st0"></rect>
<path d="M777.2,760.8H259.8c-2.7,0-5.4-1-7.4-2.8l-86.9-77.7c-7.6-6.8-2.8-19.3,7.4-19.3h517.4c2.7,0,5.4,1,7.4,2.8
	l86.9,77.7C792.2,748.2,787.4,760.8,777.2,760.8z" class="st1"></path>
<polygon points="685.7,500 282.2,500 236.4,477.8 642,477.8" class="st2"></polygon>
<g>
	<g>
		<g>
			<path d="M518,581.7H341.1c-32,0-58-26-58-58V426c0-32,26-58,58-58H518c32,0,58,26,58,58v97.7
				C575.9,555.7,549.9,581.7,518,581.7z M341.1,397c-16,0-29,13-29,29v97.7c0,16,13,29,29,29H518c16,0,29-13,29-29V426
				c0-16-13-29-29-29H341.1z" class="st3"></path>
		</g>
		<g>
			<g>
				<circle r="19.8" cy="474.9" cx="370.2" class="st3"></circle>
			</g>
			<g>
				<circle r="19.8" cy="474.9" cx="429.6" class="st3"></circle>
			</g>
			<g>
				<circle r="19.8" cy="474.9" cx="488.9" class="st3"></circle>
			</g>
		</g>
	</g>
	<g>
		<g>
			<path d="M587.9,528.9h-34.4v-29h34.4c16,0,29-13,29-29v-97.7c0-16-13-29-29-29H411c-16,0-29,13-29,29h-29
				c0-32,26-58,58-58h176.8c32,0,58,26,58,58V471C645.8,502.9,619.8,528.9,587.9,528.9z" class="st3"></path>
		</g>
	</g>
</g>
<g>
	<path d="M670.6,733.5H280.1L279.5,500H685v219.1C685,727,678.6,733.5,670.6,733.5z" class="st4"></path>
	<polygon points="710,546.7 305.1,546.7 280.7,500 685,500" class="st5"></polygon>
	<path d="M280.1,733.5l-35.6-18.4c-4.5-2.3-7.4-6.9-7.4-12l-1.3-225.2l46.2,22.1L280.1,733.5z" class="st6"></path>
	<polygon points="260,546.7 212.3,524.6 235.7,477.9 281.9,500" class="st5"></polygon>
</g>
<path d="M500.6,218h-7.9v-7.9c0-1.7-1.4-3.1-3.1-3.1c-1.7,0-3.1,1.4-3.1,3.1v7.9h-7.9c-1.7,0-3.1,1.4-3.1,3.1
	c0,1.7,1.4,3.1,3.1,3.1h7.9v7.9c0,1.7,1.4,3.1,3.1,3.1c1.7,0,3.1-1.4,3.1-3.1v-7.9h7.9c1.7,0,3.1-1.4,3.1-3.1
	C503.7,219.4,502.3,218,500.6,218z" class="st4"></path>
<path d="M752.6,290.9h-9.2v-9.2c0-2-1.6-3.6-3.6-3.6c-2,0-3.6,1.6-3.6,3.6v9.2h-9.2c-2,0-3.6,1.6-3.6,3.6
	c0,2,1.6,3.6,3.6,3.6h9.2v9.2c0,2,1.6,3.6,3.6,3.6c2,0,3.6-1.6,3.6-3.6v-9.2h9.2c2,0,3.6-1.6,3.6-3.6
	C756.3,292.5,754.6,290.9,752.6,290.9z" class="st4"></path>
<path d="M707.9,405.9h-7.4v-7.4c0-1.6-1.3-2.9-2.9-2.9c-1.6,0-2.9,1.3-2.9,2.9v7.4h-7.4c-1.6,0-2.9,1.3-2.9,2.9
	c0,1.6,1.3,2.9,2.9,2.9h7.4v7.4c0,1.6,1.3,2.9,2.9,2.9c1.6,0,2.9-1.3,2.9-2.9v-7.4h7.4c1.6,0,2.9-1.3,2.9-2.9
	C710.8,407.2,709.5,405.9,707.9,405.9z" class="st4"></path>
<path d="M589.3,224.9H578v-11.3c0-2.5-2-4.5-4.5-4.5c-2.5,0-4.5,2-4.5,4.5v11.3h-11.3c-2.5,0-4.5,2-4.5,4.5
	c0,2.5,2,4.5,4.5,4.5h11.3v11.3c0,2.5,2,4.5,4.5,4.5c2.5,0,4.5-2,4.5-4.5v-11.3h11.3c2.5,0,4.5-2,4.5-4.5
	C593.8,226.9,591.8,224.9,589.3,224.9z" class="st4"></path>
<path d="M195.4,429.9h-7.2v-7.2c0-1.6-1.3-2.9-2.9-2.9c-1.6,0-2.9,1.3-2.9,2.9v7.2h-7.2c-1.6,0-2.9,1.3-2.9,2.9
	c0,1.6,1.3,2.9,2.9,2.9h7.2v7.2c0,1.6,1.3,2.9,2.9,2.9c1.6,0,2.9-1.3,2.9-2.9v-7.2h7.2c1.6,0,2.9-1.3,2.9-2.9
	C198.3,431.2,197,429.9,195.4,429.9z" class="st4"></path>
<path d="M345.9,386.7h-9.1v-9.1c0-2-1.6-3.6-3.6-3.6c-2,0-3.6,1.6-3.6,3.6v9.1h-9.1c-2,0-3.6,1.6-3.6,3.6
	c0,2,1.6,3.6,3.6,3.6h9.1v9.1c0,2,1.6,3.6,3.6,3.6c2,0,3.6-1.6,3.6-3.6v-9.1h9.1c2,0,3.6-1.6,3.6-3.6
	C349.5,388.3,347.9,386.7,345.9,386.7z" class="st4"></path>
<polygon points="619.9,268.1 627,239.6 634.1,268.1 654.4,275.2 634.1,282.3 627,310.8 619.9,282.3 599.6,275.2" class="st4"></polygon>
<polygon points="779.7,346.6 786.8,318.4 793.8,346.6 813.9,353.7 793.8,360.8 786.8,389 779.7,360.8 759.6,353.7" class="st4"></polygon>
<polygon points="196.5,369 198.3,362 200,369 205,370.8 200,372.5 198.3,379.5 196.5,372.5 191.5,370.8" class="st4"></polygon>
<polygon points="233.9,289.6 240.9,261.7 247.9,289.6 267.8,296.6 247.9,303.6 240.9,331.5 233.9,303.6 214,296.6" class="st4"></polygon>
<polygon points="378.5,170.1 383.5,150.2 388.5,170.1 402.7,175.1 388.5,180.1 383.5,200.1 378.5,180.1 364.3,175.1" class="st4"></polygon>
<polygon points="347.6,214.6 350.7,202.2 353.8,214.6 362.7,217.7 353.8,220.8 350.7,233.2 347.6,220.8 338.7,217.7" class="st4"></polygon>
<g>
	<path d="M469.6,627.5h-15.9c-0.1-2.1-0.3-4.2-0.5-6.3c-1.6-14.5-5.6-27.8-11.4-38.8l-16,1.7
		c7.6,9.2,13.2,22.8,14.9,38.4c3.2,30-9.4,56-28.1,58l2.1,19.9c21.3-2.3,36.7-27.2,38.8-59h15.9v20.9h11.2v-55.8h-11.2V627.5z" class="st2"></path>
	<rect height="55.8" width="11.2" class="st2" y="606.6" x="495.7"></rect>
	<path d="M499.4,602.1c0,0,15.3-3.4,14.9-10.4c-0.4-6.3-9.9-3-9.9-3s-4.6-7-9.5-3.5C490,588.5,499.4,602.1,499.4,602.1z" class="st2"></path>
</g>
<linearGradient y2="551.39" x2="939.7051" y1="613.5345" x1="939.7051" gradientUnits="userSpaceOnUse" id="SVGID_1_">
	<stop style="stop-color:#F2F2F2" offset="0"></stop>
	<stop style="stop-color:#D8D8D8" offset="1"></stop>
</linearGradient>
<path d="M873.4,608.8c0,0,10.4-56.7,54.1-57.4s78.5,62.1,78.5,62.1" class="st7"></path>
<linearGradient y2="547.718" x2="836.3455" y1="644.6068" x1="836.3455" gradientUnits="userSpaceOnUse" id="SVGID_2_">
	<stop style="stop-color:#F2F2F2" offset="0"></stop>
	<stop style="stop-color:#D8D8D8" offset="1"></stop>
</linearGradient>
<path d="M733,637.2c0,0,16.2-88.4,84.3-89.4s122.4,96.9,122.4,96.9" class="st8"></path>
<linearGradient y2="709.8127" x2="230.0526" y1="781.5991" x1="230.0526" gradientUnits="userSpaceOnUse" id="SVGID_3_">
	<stop style="stop-color:#F2F2F2" offset="0"></stop>
	<stop style="stop-color:#D8D8D8" offset="1"></stop>
</linearGradient>
<path d="M179.7,776.1c0,0,7.9-65.5,41.1-66.3s59.6,71.8,59.6,71.8" class="st9"></path>
<linearGradient y2="705.571" x2="151.548" y1="817.4923" x1="151.548" gradientUnits="userSpaceOnUse" id="SVGID_4_">
	<stop style="stop-color:#F2F2F2" offset="0"></stop>
	<stop style="stop-color:#D8D8D8" offset="1"></stop>
</linearGradient>
<path d="M73,808.9c0,0,12.3-102.1,64.1-103.3c51.8-1.2,93,111.9,93,111.9" class="st10"></path>
</svg>
