<svg xml:space="preserve" style="enable-background:new 0 0 1024 1024;" viewBox="0 0 1024 1024" y="0px" x="0px" xmlns:xlink="http://www.w3.org/1999/xlink" xmlns="http://www.w3.org/2000/svg" id="图层_1" version="1.1">
<style type="text/css">
	.st0{fill:#F2F2F2;}
	.st1{fill:url(#SVGID_1_);}
	.st2{fill:url(#SVGID_2_);}
	.st3{fill:url(#SVGID_3_);}
	.st4{fill:#DDDDDD;}
	.st5{fill:#AFAFAF;}
	.st6{fill:url(#SVGID_4_);}
	.st7{fill:#FFFFFF;}
	.st8{fill:#BCBCBC;}
	.st9{fill:#C6C6C6;}
</style>
<rect height="1024" width="1024" class="st0"></rect>
<g>
	<linearGradient y2="766.2283" x2="879.8563" y1="822.8552" x1="879.8563" gradientUnits="userSpaceOnUse" id="SVGID_1_">
		<stop style="stop-color:#F2F2F2" offset="0"></stop>
		<stop style="stop-color:#D8D8D8" offset="1"></stop>
	</linearGradient>
	<path d="M831.2,818.5c0,0,7.6-51.7,39.7-52.3c32.1-0.6,57.6,56.6,57.6,56.6" class="st1"></path>
	<linearGradient y2="767.6461" x2="764.8382" y1="855.9323" x1="764.8382" gradientUnits="userSpaceOnUse" id="SVGID_2_">
		<stop style="stop-color:#F2F2F2" offset="0"></stop>
		<stop style="stop-color:#D8D8D8" offset="1"></stop>
	</linearGradient>
	<path d="M681.5,849.2c0,0,13-80.6,68-81.5c55-0.9,98.7,88.3,98.7,88.3" class="st2"></path>
	<linearGradient y2="470.7073" x2="120.1432" y1="558.9935" x1="120.1432" gradientUnits="userSpaceOnUse" id="SVGID_3_">
		<stop style="stop-color:#F2F2F2" offset="0"></stop>
		<stop style="stop-color:#D8D8D8" offset="1"></stop>
	</linearGradient>
	<path d="M28.3,552.2c0,0,14.4-80.6,74.9-81.5C163.8,469.8,212,559,212,559" class="st3"></path>
	<path d="M677.7,760.5l-360.6,44.4V346l355.7-43.5c8.4-1.6,16.2,4.9,16.2,13.4v431.2
		C688.9,753.7,684.2,759.3,677.7,760.5z" class="st4"></path>
	<path d="M290.8,633.7l4.2-15.8c0.4-1.6,2.6-2.1,3.6-0.7l9.9,12.9c0.4,0.5,1.1,0.8,1.7,0.8l16.3-0.8
		c1.7-0.1,2.8,1.8,1.8,3.2l-9.2,13.4c-0.4,0.6-0.5,1.3-0.2,1.9l5.8,15.2c0.6,1.6-0.9,3.2-2.5,2.7l-15.6-4.6
		c-0.7-0.2-1.4-0.1-1.9,0.4l-12.7,10.3c-1.3,1.1-3.3,0.2-3.4-1.5l-0.4-16.3c0-0.7-0.4-1.3-0.9-1.7l-13.7-8.9
		c-1.4-0.9-1.2-3.1,0.4-3.7l15.4-5.4C290.1,634.9,290.6,634.3,290.8,633.7z" class="st5"></path>
	<g>
		<path d="M276.4,347.5c13.7-18.8,39.6-25.1,60.3-14.6c23.6,11.9,32.7,39.9,22.2,62.9c-0.4,0.9-1.6,1.3-2.5,0.7
			l-10.2-6.3c-0.7-0.4-1-1.4-0.7-2.1c6.2-15.4-0.1-33.7-15.8-41.6c-13.9-7-31.2-3-40.7,9.3c-9,11.8-8.7,27.2-1.1,38.5
			c4.8,5.6,8.3,12.4,10.2,20c3.3,13.9-0.3,27.2-7.3,38.6c-0.2,0.3-2.2,3.6-3.4,5.6c-0.5,0.8-1.6,1.1-2.4,0.6l-10-6.2
			c-0.8-0.5-1.1-1.6-0.6-2.4c1.2-2,3.2-5.3,3.4-5.7c4.5-8.2,7.8-17.3,5.5-27c-0.9-3.9-2.6-7.5-4.7-10.7c-1-1.1-1.8-2.3-2.7-3.4
			c-0.2-0.3-0.7-1-0.7-1C264.5,386.6,264,364.6,276.4,347.5z" class="st5"></path>
	</g>
	<g>
		<path d="M293.5,616.4c-11-17.3-6.1-30-0.8-43.4c3.5-8.9,7.4-19.1,7.5-32.3c0.1-17.8-8.9-23.1-18.5-28.8
			c-7.5-4.4-15.2-8.9-18-19.1c-6.4-23.1,16.7-41.8,17.6-42.6l4.4,5.5l-2.2-2.8l2.2,2.8c-0.2,0.2-20.4,16.6-15.2,35.1
			c2.1,7.4,8,10.9,14.8,14.9c9.8,5.8,22.1,13,22,34.9c-0.1,14.6-4.3,25.4-8,34.9c-5.2,13.2-8.9,22.7,0.2,37L293.5,616.4z" class="st5"></path>
	</g>
	<path d="M297.4,617.4l-1.1,0.2c-0.9,0.1-1.7-0.5-1.9-1.4l0,0c-0.1-0.9,0.5-1.7,1.4-1.9l1.1-0.2
		c0.9-0.1,1.7,0.5,1.9,1.4l0,0C298.9,616.4,298.3,617.3,297.4,617.4z" class="st5"></path>
	<linearGradient y2="521.5464" x2="192.7333" y1="574.6197" x1="192.7333" gradientUnits="userSpaceOnUse" id="SVGID_4_">
		<stop style="stop-color:#F2F2F2" offset="0"></stop>
		<stop style="stop-color:#D8D8D8" offset="1"></stop>
	</linearGradient>
	<path d="M137.5,570.5c0,0,8.6-48.4,45-49c36.4-0.6,65.4,53.1,65.4,53.1" class="st6"></path>
	<path d="M203.6,402.7h-10.8V392c0-2.4-1.9-4.3-4.3-4.3c-2.4,0-4.3,1.9-4.3,4.3v10.8h-10.8c-2.4,0-4.3,1.9-4.3,4.3
		c0,2.4,1.9,4.3,4.3,4.3h10.8V422c0,2.4,1.9,4.3,4.3,4.3c2.4,0,4.3-1.9,4.3-4.3v-10.8h10.8c2.4,0,4.3-1.9,4.3-4.3
		C207.8,404.7,205.9,402.7,203.6,402.7z" class="st7"></path>
	<path d="M177.3,350.3h-9v-9c0-2-1.6-3.6-3.6-3.6c-2,0-3.6,1.6-3.6,3.6v9h-9c-2,0-3.6,1.6-3.6,3.6c0,2,1.6,3.6,3.6,3.6
		h9v9c0,2,1.6,3.6,3.6,3.6c2,0,3.6-1.6,3.6-3.6v-9h9c2,0,3.6-1.6,3.6-3.6C180.9,351.9,179.3,350.3,177.3,350.3z" class="st7"></path>
	<polygon points="78.8,414.8 87.1,381.5 95.5,414.8 119.1,423.1 95.5,431.4 87.1,464.7 78.8,431.4 55.1,423.1" class="st7"></polygon>
	<path d="M713.1,241h-9.4v-9.4c0-2-1.7-3.7-3.7-3.7c-2,0-3.7,1.7-3.7,3.7v9.4H687c-2,0-3.7,1.7-3.7,3.7
		c0,2,1.7,3.7,3.7,3.7h9.4v9.4c0,2,1.7,3.7,3.7,3.7c2,0,3.7-1.7,3.7-3.7v-9.4h9.4c2,0,3.7-1.7,3.7-3.7
		C716.8,242.6,715.2,241,713.1,241z" class="st7"></path>
	<polygon points="753.9,293.8 761.1,265 768.3,293.8 788.8,301.1 768.3,308.3 761.1,337.1 753.9,308.3 733.3,301.1" class="st7"></polygon>
	<g>
		<g>
			<g>
				<path d="M584.6,532.5c-5.7-0.1-8.9-0.3-9.1-0.3l0.4-5.2c0,0,3.3,0.2,8.8,0.3L584.6,532.5z" class="st8"></path>
			</g>
			<g>
				<path d="M591.8,532.5l0-5.2c5.9,0,11.9-0.2,17.8-0.5l0.3,5.2C603.9,532.3,597.8,532.5,591.8,532.5z M617.1,531.5
					l-0.4-5.2c6-0.5,12-1.1,17.7-1.9l0.7,5.2C629.3,530.4,623.2,531,617.1,531.5z M642.3,528.6l-0.8-5.2c6-1,11.9-2.1,17.4-3.5
					l1.2,5.1C654.4,526.4,648.4,527.6,642.3,528.6z M667.1,523.2l-1.4-5c5.9-1.6,11.6-3.5,16.8-5.5l1.9,4.9
					C679,519.6,673.2,521.5,667.1,523.2z M691.1,514.7l-2.1-4.8c5.6-2.5,10.8-5.3,15.4-8.4l2.9,4.4
					C702.3,509.1,696.9,512.1,691.1,514.7z M713.2,501.7l-3.2-4.1c0.6-0.5,1.2-1,1.8-1.4c-5.4-0.4-9.2-1.6-11.7-3.6l3.3-4.1
					c1.5,1.2,4.8,2.6,12.6,2.6c0.5,0,1,0,1.4,0c1.8-1.8,3.4-3.6,4.9-5.5l4.1,3.3C722.7,493.4,718.2,497.8,713.2,501.7z M726.5,495.6
					l-0.6-5.2c1.7-0.2,3.5-0.4,5.3-0.7c3.9-0.6,7.9-1.3,11.9-2.3l1.3,5.1c-4.2,1-8.4,1.9-12.5,2.4
					C730.1,495.2,728.2,495.4,726.5,495.6z M751.5,490.5l-1.5-5c5.4-1.7,11-3.7,16.5-6.2l2.1,4.8
					C762.8,486.7,757.1,488.8,751.5,490.5z M702.2,484.6l-5.1-1.2c1.5-6.2,7.9-12.3,11.7-15.4l3.3,4
					C706.7,476.5,703,481.2,702.2,484.6z M730.8,482.8l-4.4-2.8c0.2-0.4,0.5-0.7,0.7-1.1c4.7-7.7,6-11.8,6.3-14l5.2,0.6
					c-0.5,3.9-2.8,9.2-7.1,16.1C731.3,482,731,482.4,730.8,482.8z M775.1,481.1l-2.3-4.7c5.1-2.5,10.3-5.4,15.5-8.5l2.7,4.5
					C785.7,475.6,780.4,478.5,775.1,481.1z M797.1,468.4l-2.9-4.4c4.8-3.1,9.6-6.6,14.5-10.3l3.2,4.1
					C807,461.7,802,465.2,797.1,468.4z M717.7,468l-2.9-4.4c6.4-4.2,12.5-6.6,16.7-6.6c0.6,0,1.2,0,1.7,0.1l-0.9,5.1
					c-0.2,0-0.5-0.1-0.8-0.1c0,0,0,0,0,0C728.4,462.2,723.1,464.4,717.7,468z M817.6,453.5l-3.3-4.1c4.5-3.6,9-7.5,13.5-11.6
					l3.5,3.9C826.8,445.8,822.2,449.8,817.6,453.5z M836.6,436.8L833,433c4.2-4,8.5-8.2,12.6-12.6l3.8,3.6
					C845.2,428.5,840.9,432.8,836.6,436.8z M854.4,418.8l-3.8-3.5c4-4.3,7.9-8.8,11.8-13.3l4,3.4
					C862.4,409.9,858.4,414.5,854.4,418.8z M871,399.7l-4-3.3c3.8-4.6,7.5-9.4,11-14l4.2,3.1C878.5,390.3,874.8,395,871,399.7z" class="st8"></path>
			</g>
			<g>
				<path d="M886.3,379.8l-4.2-3c3.3-4.5,5-7.2,5-7.3l4.4,2.8C891.4,372.4,889.6,375.1,886.3,379.8z" class="st8"></path>
			</g>
		</g>
		<g>
			<g>
				<path d="M895.3,347.5c-0.1-0.1-0.1-0.3-0.1-0.4s0-0.2,0.2-0.4l11.4-10c0.1-0.1,0.2-0.1,0.3-0.1s0.3,0,0.4,0.2
					l9.5,10.7c0.1,0.1,0.1,0.3,0.1,0.4c0,0.1,0,0.2-0.2,0.4l-11.7,10.4L895.3,347.5z" class="st0"></path>
				<g>
					<path d="M906.8,340.1l6.7,7.6l-8.2,7.2l-6.7-7.6L906.8,340.1 M907,334c-0.7,0-1.5,0.3-2.1,0.8l-11.4,10
						c-1.3,1.1-1.4,3.1-0.3,4.4l10.6,12c0.3,0.3,0.7,0.5,1.1,0.5c0.3,0,0.7-0.1,1-0.4l12.6-11.1c1.3-1.1,1.4-3.1,0.3-4.4l-9.5-10.7
						C908.7,334.4,907.9,334,907,334L907,334z" class="st9"></path>
				</g>
			</g>
			<g>
				<polygon points="894.4,347.3 966.9,278.3 942.1,350.8" class="st0"></polygon>
				<path d="M961,287.6L940.2,348l-39.7-2.9L961,287.6 M972.8,269.1l-84.5,80.4l55.5,4L972.8,269.1L972.8,269.1z" class="st9"></path>
			</g>
			<g>
				<polygon points="901.7,305 959.6,278.1 893,341.5" class="st0"></polygon>
				<g>
					<path d="M946.3,287.1l-48.8,46.4l6.4-26.8L946.3,287.1 M972.8,269.1l-73.4,34l-11.1,46.4L972.8,269.1L972.8,269.1z" class="st9"></path>
				</g>
			</g>
		</g>
	</g>
	<path d="M748.9,178.2H742v-6.9c0-1.5-1.2-2.7-2.7-2.7c-1.5,0-2.7,1.2-2.7,2.7v6.9h-6.9c-1.5,0-2.7,1.2-2.7,2.7
		c0,1.5,1.2,2.7,2.7,2.7h6.9v6.9c0,1.5,1.2,2.7,2.7,2.7c1.5,0,2.7-1.2,2.7-2.7v-6.9h6.9c1.5,0,2.7-1.2,2.7-2.7
		C751.7,179.4,750.5,178.2,748.9,178.2z" class="st7"></path>
	<path d="M684.7,118.6h-9v-9c0-2-1.6-3.6-3.6-3.6c-2,0-3.6,1.6-3.6,3.6v9h-9c-2,0-3.6,1.6-3.6,3.6c0,2,1.6,3.6,3.6,3.6
		h9v9c0,2,1.6,3.6,3.6,3.6c2,0,3.6-1.6,3.6-3.6v-9h9c2,0,3.6-1.6,3.6-3.6C688.3,120.2,686.7,118.6,684.7,118.6z" class="st7"></path>
	<polygon points="586.2,183.1 594.5,149.9 602.8,183.1 626.5,191.4 602.8,199.7 594.5,233 586.2,199.7 562.5,191.4" class="st7"></polygon>
	<polygon points="838.9,168.7 843.2,151.2 847.6,168.7 860.1,173 847.6,177.4 843.2,194.9 838.9,177.4 826.4,173" class="st7"></polygon>
	<polygon points="968.7,235.4 973.1,217.9 977.5,235.4 989.9,239.8 977.5,244.1 973.1,261.6 968.7,244.1 956.3,239.8" class="st7"></polygon>
	<path d="M659.5,474.2h-27.8v-73.6c0-7.5-6-13.5-13.4-13.7L317.1,346v459l300.7,40.9c7.6,0.1,13.9-6,13.9-13.7V573.5
		h27.8c4.2,0,7.7-3.4,7.7-7.7v-84C667.2,477.6,663.7,474.2,659.5,474.2z" class="st7"></path>
	<path d="M441.1,572.2l15-28.7c1.6-3,5.9-2.4,7.4,1l13.8,32.7c0.6,1.4,1.7,2.4,3.1,2.8l32.2,9.4c3.4,1,4.6,5.5,2.1,7.7
		L491,617.8c-1,0.9-1.5,2.2-1.3,3.7l4.9,34.5c0.5,3.6-3.1,5.8-6.1,3.7l-28.6-20c-1.2-0.8-2.6-1-3.8-0.5l-29.2,11.9
		c-3.1,1.2-6.5-1.9-5.9-5.4l6.2-33c0.3-1.4-0.2-2.9-1.1-4l-22.9-27.2c-2.4-2.8-1-7,2.4-7.1l32.4-0.4
		C439.3,574.1,440.5,573.4,441.1,572.2z" class="st5"></path>
</g>
</svg>
