<svg xmlns="http://www.w3.org/2000/svg" fill="none" viewBox="0 0 1024 1024" height="1024" width="1024">
<g clip-path="url(#clip0_615_1366)">
<rect fill="url(#paint0_linear_615_1366)" rx="160" height="1024" width="1024"></rect>
<path fill-opacity="0.7" fill="url(#paint1_linear_615_1366)" d="M-236.308 1035.03C-236.308 1035.03 -225.246 687.388 25.5186 633.029C244.768 600.702 413.803 851.611 609.854 851.611C838.343 851.611 946.024 705.996 1167.86 705.996C1329.66 705.996 1487.66 832.594 1707.99 788.711C1781.28 774.114 1890.46 748.994 1890.46 748.994L1886.83 1227.99L-236.308 1260.31V1035.03Z" clip-rule="evenodd" fill-rule="evenodd"></path>
<path fill="#236002" d="M426.156 682.904C560.759 538.944 689.338 543.842 704.036 546.514C682.167 520.822 650.548 504.156 617.317 498.325C584.085 492.494 549.409 497.154 517.952 509.351C472.648 526.915 432.475 562.088 417.492 608.31C409.442 633.145 409.699 662.636 426.156 682.904Z"></path>
<path fill="#358013" d="M456.854 613.869C553.691 532.583 608.117 518.446 704.037 546.514C682.168 520.822 650.548 504.156 617.317 498.325C584.085 492.494 549.41 497.154 517.952 509.351C472.648 526.915 432.475 562.088 417.493 608.31C409.442 633.145 434.392 632.724 456.854 613.869Z"></path>
<path fill="#563913" d="M599.694 570.034C594.494 585.356 591.62 601.903 591.998 618.086C595.081 750.312 609.531 886.709 652.648 1019.59H746.657C691.524 885.295 665.371 722.016 651.117 545.617C651.562 537.149 639.804 533.801 631.683 536.135C616.181 540.591 604.894 554.711 599.694 570.034Z"></path>
<mask height="485" width="156" y="535" x="591" maskUnits="userSpaceOnUse" style="mask-type:alpha" id="mask0_615_1366">
<path fill="#868162" d="M599.694 570.034C594.494 585.356 591.62 601.903 591.998 618.086C595.081 750.312 609.531 886.709 652.648 1019.59H746.657C691.524 885.295 665.371 722.016 651.117 545.617C651.562 537.149 639.804 533.801 631.683 536.135C616.181 540.591 604.894 554.711 599.694 570.034Z"></path>
</mask>
<g mask="url(#mask0_615_1366)">
<path fill="black" d="M638.511 662.641C638.511 656.395 643.574 651.332 649.82 651.332H695.058C701.304 651.332 706.367 656.395 706.367 662.641V662.641C706.367 668.887 701.304 673.951 695.058 673.951H649.82C643.574 673.951 638.511 668.887 638.511 662.641V662.641Z"></path>
<path fill="black" d="M552.277 738.98C552.277 732.734 557.34 727.67 563.586 727.67H608.824C615.07 727.67 620.133 732.734 620.133 738.98V738.98C620.133 745.226 615.07 750.289 608.824 750.289H563.586C557.34 750.289 552.277 745.226 552.277 738.98V738.98Z"></path>
<path fill="black" d="M672.439 847.832C672.439 841.586 677.502 836.523 683.748 836.523H728.986C735.232 836.523 740.295 841.586 740.295 847.832V847.832C740.295 854.078 735.232 859.142 728.986 859.142H683.748C677.502 859.142 672.439 854.078 672.439 847.832V847.832Z"></path>
<path fill="black" d="M586.205 924.171C586.205 917.925 591.268 912.861 597.514 912.861H642.752C648.998 912.861 654.061 917.925 654.061 924.171V924.171C654.061 930.417 648.998 935.48 642.752 935.48H597.514C591.268 935.48 586.205 930.417 586.205 924.171V924.171Z"></path>
</g>
<path fill="#92672D" d="M599.694 570.032C594.494 585.355 591.62 601.902 591.998 618.085C595.081 750.311 609.531 886.708 652.648 1019.59H706.367C706.367 1019.59 615.892 799.06 610.738 550.254C610.581 542.707 602.117 562.893 599.694 570.032Z" opacity="0.4"></path>
<path fill="#358013" d="M643.263 542.778C642.196 546.733 639.834 551.414 635.74 551.261C632.257 546.82 628.703 542.482 625.081 538.248C593.808 501.697 557.394 472.857 516.935 451.32C478.358 430.785 436.103 416.89 391.118 409.283C386.617 408.522 382.089 407.823 377.535 407.188C372.212 407.06 373.915 398.526 377.562 394.646C406.716 363.636 451.991 350.153 494.196 355.666C536.401 361.178 575.214 384.323 603.877 415.789C635.02 449.977 655.305 498.126 643.263 542.778Z"></path>
<path fill="#236002" d="M635.74 551.261C639.834 551.414 642.196 546.733 643.263 542.778C655.305 498.126 635.02 449.977 603.877 415.789C575.214 384.323 536.401 361.178 494.196 355.666C451.991 350.153 406.716 363.636 377.562 394.646C374.152 398.273 372.442 405.969 376.584 407.06C400.084 394.39 426.931 386.976 455.44 386.976C540.657 386.976 606.215 453.22 616.032 528.042C619.094 531.375 622.111 534.777 625.081 538.248C628.703 542.482 632.257 546.82 635.74 551.261Z"></path>
<path fill="#358013" d="M635.852 498.28C635.014 514.538 637.102 531.779 646.744 544.897C707.781 427.972 845.614 423.024 845.614 423.024C890.851 426.558 830.77 357.995 784.826 355.875C769.977 354.117 755.025 355.868 740.83 360.567C682.604 379.841 639.011 437.028 635.852 498.28Z"></path>
<path fill="#236002" d="M635.852 498.28C635.013 514.539 637.101 531.78 646.744 544.897C655.018 532.957 659.805 521.386 669.612 510.673C673.853 453.419 737.783 352.81 839.252 383.442C840.134 383.75 841.01 384.06 841.879 384.37C827.578 368.38 806.058 357.508 784.981 355.012C770.132 353.254 755.025 355.869 740.83 360.568C682.604 379.842 639.011 437.029 635.852 498.28Z"></path>
<path fill="#236002" d="M691.524 573.58C676.698 562.461 653.786 553.131 636.282 547.046C628.717 544.416 625.487 534.596 628.09 527.022C630.694 519.448 637.614 514.092 644.956 510.892C656.378 505.914 669.221 505.17 681.651 506.031C729.449 509.343 775.953 536.14 800.273 577.421C822.995 615.99 840.759 743.05 808.858 699.397C795.428 681.019 760.794 625.533 691.524 573.58Z"></path>
<path fill="#358013" d="M629.322 529.051C694.351 535.412 738.882 579.942 769.983 613.164C801.083 646.386 804.301 571.066 765.035 539.653C697.885 485.934 625.081 507.139 629.322 529.051Z"></path>
<path fill="#264510" d="M641.338 579.235C641.338 608.123 622.161 618.818 593.273 618.818C564.385 618.818 545.208 608.123 545.208 579.235C545.208 550.347 568.534 519.861 593.273 519.861C618.012 519.861 641.338 550.347 641.338 579.235Z"></path>
<path fill="#469B1A" d="M676.68 545.307C676.68 574.195 657.503 584.89 628.615 584.89C599.727 584.89 580.55 574.195 580.55 545.307C580.55 516.42 603.876 485.933 628.615 485.933C653.354 485.933 676.68 516.42 676.68 545.307Z"></path>
<path fill="#173208" d="M713.435 594.783C713.435 623.671 694.258 634.366 665.37 634.366C636.483 634.366 617.306 623.671 617.306 594.783C617.306 565.895 640.631 535.409 665.37 535.409C690.11 535.409 713.435 565.895 713.435 594.783Z"></path>
<path fill="url(#paint2_linear_615_1366)" d="M183.501 334.769H305.887C343.59 334.769 374.154 303.792 374.154 265.58C374.154 227.368 343.59 196.391 305.887 196.391C294.51 196.391 283.782 199.212 274.349 204.201C261.213 165.586 225.044 137.846 182.482 137.846C128.828 137.846 85.3334 181.929 85.3334 236.308C85.3334 237.422 85.3516 238.532 85.3879 239.638C69.7258 248.166 59.0769 264.927 59.0769 284.208C59.0769 312.132 81.4122 334.769 108.964 334.769H182.482C182.635 334.769 183.501 334.769 183.501 334.769H182.482H183.501Z" opacity="0.9"></path>
<path fill="url(#paint3_linear_615_1366)" d="M820.806 236.308H698.421C660.718 236.308 590.769 256 590.769 167.119C590.769 105.74 660.718 97.9295 698.421 97.9295C709.798 97.9295 720.525 100.75 729.959 105.74C743.095 67.125 779.264 39.3848 821.826 39.3848C875.479 39.3848 918.974 83.4675 918.974 137.846C918.974 138.961 918.956 140.071 918.92 141.177C934.582 149.705 945.231 166.465 945.231 185.747C945.231 213.671 922.896 236.308 895.344 236.308H821.826C821.672 236.308 820.806 236.308 820.806 236.308Z" opacity="0.9"></path>
</g>
<defs>
<linearGradient gradientUnits="userSpaceOnUse" y2="727.04" x2="551.936" y1="-35.84" x1="428.032" id="paint0_linear_615_1366">
<stop stop-color="#C0CBCD"></stop>
<stop stop-color="#83A69D" offset="1"></stop>
</linearGradient>
<linearGradient gradientUnits="userSpaceOnUse" y2="1260.31" x2="827.077" y1="630.154" x1="827.077" id="paint1_linear_615_1366">
<stop stop-color="#607942"></stop>
<stop stop-color="#2C5206" offset="1"></stop>
</linearGradient>
<linearGradient gradientUnits="userSpaceOnUse" y2="441.421" x2="144.918" y1="49.2308" x1="128" id="paint2_linear_615_1366">
<stop stop-color="#5C6A77"></stop>
<stop stop-opacity="0" stop-color="#818B97" offset="1"></stop>
</linearGradient>
<linearGradient gradientUnits="userSpaceOnUse" y2="345.965" x2="852.363" y1="-50.0661" x1="867.692" id="paint3_linear_615_1366">
<stop stop-color="#5C6A77"></stop>
<stop stop-opacity="0" stop-color="#818B97" offset="1"></stop>
</linearGradient>
<clipPath id="clip0_615_1366">
<rect fill="white" rx="160" height="1024" width="1024"></rect>
</clipPath>
</defs>
</svg>
