<svg xmlns="http://www.w3.org/2000/svg" fill="none" viewBox="0 0 1024 1024" height="1024" width="1024">
<g clip-path="url(#clip0_610_4596)">
<rect fill="url(#paint0_linear_610_4596)" rx="160" height="1024" width="1024"></rect>
<path fill="url(#paint1_linear_610_4596)" d="M-6.5 653L1020 621L1027 1136H-13L-6.5 653Z"></path>
<path fill="url(#paint2_linear_610_4596)" d="M1142.61 234.505C1244.72 306.252 1273.21 292.831 1312.99 278.715C1399.33 248.077 1464.97 222.615 1540.45 253.215V622.201L517.386 589.814C398.273 585.481 533.706 526.691 564.306 517.394C594.906 508.098 621.453 499.614 642.791 488.383C668.127 475.049 687.085 452.451 709.235 434.831C729.575 418.651 748.885 412.022 773.325 404.584C818.1 390.957 880.837 384.795 912.126 347.054C981.486 263.393 1062.07 177.907 1142.61 234.505Z" opacity="0.4"></path>
<path fill="url(#paint3_linear_610_4596)" d="M0 571.201H1020V571.201C1020 819.066 819.065 1020 571.2 1020H448.8C200.935 1020 0 819.066 0 571.201V571.201Z"></path>
<path fill="#2A3020" d="M1168.58 939.802C1152.26 939.802 394.868 762.327 374 754.161C280.16 717.441 649.661 671.158 581.06 652.161C514.76 633.8 244.46 631.429 244.46 631.429L182.24 635.84C182.24 635.84 174.73 639.472 170 641.96C334.22 644.689 499.918 650.104 503.996 658.561C508.074 667.018 122.957 697.746 192.44 770.149C313.82 896.629 627.876 1025.48 627.876 1025.48H1168.58V939.802Z"></path>
<path fill="url(#paint4_linear_610_4596)" d="M397.833 265.106C295.729 336.852 267.24 323.431 227.46 309.316C141.116 278.677 75.4801 253.216 0 283.816V652.802L1023.06 620.415C1142.17 616.082 1006.74 557.291 976.14 547.995C945.54 538.699 918.993 530.214 897.655 518.984C872.319 505.649 853.361 483.052 831.211 465.432C810.871 449.252 791.561 442.623 767.121 435.184C722.346 421.557 659.609 415.396 628.32 377.655C558.96 293.994 478.38 208.507 397.833 265.106Z"></path>
<path fill="#145335" d="M582.38 603.633C669.893 510.038 753.488 513.223 763.044 514.96C748.826 498.256 728.269 487.421 706.663 483.63C685.058 479.839 662.514 482.869 642.062 490.798C612.607 502.218 586.489 525.085 576.748 555.137C571.514 571.283 571.681 590.456 582.38 603.633Z"></path>
<path fill="#5AAF34" d="M602.339 558.751C665.297 505.902 700.682 496.711 763.044 514.96C748.826 498.256 728.269 487.421 706.664 483.63C685.058 479.839 662.514 482.869 642.062 490.798C612.607 502.218 586.489 525.085 576.748 555.137C571.514 571.283 587.735 571.009 602.339 558.751Z"></path>
<path fill="#412C0E" d="M695.206 530.248C691.825 540.21 689.957 550.968 690.202 561.489C692.207 647.456 701.601 736.134 729.634 822.529H790.754C754.909 735.215 737.906 629.059 728.639 514.373C728.928 508.868 721.283 506.692 716.004 508.209C705.925 511.106 698.587 520.286 695.206 530.248Z"></path>
<mask height="316" width="101" y="507" x="690" maskUnits="userSpaceOnUse" style="mask-type:alpha" id="mask0_610_4596">
<path fill="#372C10" d="M695.206 530.248C691.825 540.21 689.957 550.968 690.202 561.489C692.207 647.456 701.601 736.134 729.634 822.529H790.754C754.909 735.215 737.906 629.059 728.639 514.373C728.928 508.868 721.283 506.692 716.004 508.209C705.925 511.106 698.587 520.286 695.206 530.248Z"></path>
</mask>
<g mask="url(#mask0_610_4596)">
<path fill="#251408" d="M717.629 588.148C717.629 584.103 720.908 580.824 724.953 580.824H754.249C758.294 580.824 761.573 584.103 761.573 588.148V588.148C761.573 592.193 758.294 595.472 754.249 595.472H724.953C720.908 595.472 717.629 592.193 717.629 588.148V588.148Z"></path>
<path fill="#251408" d="M661.783 637.585C661.783 633.54 665.062 630.261 669.107 630.261H698.403C702.448 630.261 705.727 633.54 705.727 637.585V637.585C705.727 641.63 702.448 644.909 698.403 644.909H669.107C665.062 644.909 661.783 641.63 661.783 637.585V637.585Z"></path>
<path fill="#251408" d="M739.601 708.079C739.601 704.034 742.88 700.755 746.925 700.755H776.221C780.266 700.755 783.545 704.034 783.545 708.079V708.079C783.545 712.124 780.266 715.403 776.221 715.403H746.925C742.88 715.403 739.601 712.124 739.601 708.079V708.079Z"></path>
<path fill="#251408" d="M683.755 757.517C683.755 753.472 687.034 750.193 691.079 750.193H720.375C724.42 750.193 727.699 753.472 727.699 757.517V757.517C727.699 761.562 724.42 764.841 720.375 764.841H691.079C687.034 764.841 683.755 761.562 683.755 757.517V757.517Z"></path>
</g>
<path fill="#4D3B17" d="M695.206 530.25C691.825 540.212 689.957 550.969 690.202 561.491C692.207 647.457 701.601 736.135 729.634 822.531H764.559C764.559 822.531 705.737 679.151 702.386 517.39C702.284 512.484 696.781 525.608 695.206 530.25Z" opacity="0.4"></path>
<path fill="#5AAF34" d="M723.532 512.529C722.839 515.1 721.303 518.144 718.642 518.044C716.377 515.157 714.067 512.337 711.711 509.584C691.379 485.82 667.705 467.07 641.4 453.067C616.32 439.717 588.848 430.683 559.601 425.737C556.674 425.242 553.73 424.788 550.769 424.375C547.309 424.292 548.416 418.744 550.787 416.221C569.742 396.06 599.177 387.294 626.617 390.878C654.056 394.462 679.291 409.51 697.926 429.967C718.173 452.195 731.362 483.499 723.532 512.529Z"></path>
<path fill="#145335" d="M715.834 516.021C718.485 516.12 720.015 513.088 720.706 510.527C728.505 481.61 715.368 450.428 695.199 428.287C676.637 407.91 651.501 392.921 624.169 389.351C596.837 385.781 567.516 394.513 548.636 414.595C546.428 416.944 545.32 421.928 548.002 422.634C563.221 414.43 580.607 409.628 599.07 409.628C654.258 409.628 696.714 452.528 703.071 500.984C705.054 503.142 707.008 505.345 708.931 507.593C711.277 510.335 713.579 513.144 715.834 516.021Z"></path>
<path fill="#5AAF34" d="M718.714 483.597C718.169 494.168 719.526 505.377 725.796 513.905C765.479 437.887 855.09 434.67 855.09 434.67C884.502 436.968 845.44 392.392 815.569 391.013C805.915 389.87 796.194 391.009 786.965 394.064C749.11 406.595 720.768 443.775 718.714 483.597Z"></path>
<path fill="#145335" d="M715.907 481.709C715.364 492.239 716.716 503.404 722.961 511.899C728.319 504.167 731.419 496.673 737.77 489.735C740.516 452.657 781.918 387.502 847.631 407.339C848.202 407.539 848.769 407.739 849.332 407.94C840.07 397.585 826.134 390.544 812.484 388.928C802.867 387.789 793.084 389.482 783.891 392.525C746.184 405.008 717.952 442.043 715.907 481.709Z"></path>
<path fill="#145335" d="M754.909 532.557C745.27 525.328 730.374 519.262 718.994 515.306C714.076 513.596 711.975 507.212 713.668 502.287C715.361 497.363 719.86 493.881 724.633 491.801C732.059 488.564 740.409 488.08 748.491 488.64C779.566 490.794 809.8 508.215 825.612 535.054C840.385 560.13 851.934 642.738 831.194 614.357C822.463 602.409 799.945 566.334 754.909 532.557Z"></path>
<path fill="#5AAF34" d="M714.469 503.605C756.747 507.741 785.699 536.692 805.919 558.291C826.139 579.89 828.231 530.921 802.702 510.498C759.045 475.572 711.711 489.359 714.469 503.605Z"></path>
<path fill="#75D745" d="M717.969 533.996C717.969 552.704 705.549 559.63 686.842 559.63C668.134 559.63 655.714 552.704 655.714 533.996C655.714 515.288 670.82 495.545 686.842 495.545C702.863 495.545 717.969 515.288 717.969 533.996Z"></path>
<path fill="#88E45B" d="M740.856 512.023C740.856 530.731 728.437 537.657 709.729 537.657C691.021 537.657 678.602 530.731 678.602 512.023C678.602 493.315 693.708 473.572 709.729 473.572C725.75 473.572 740.856 493.315 740.856 512.023Z"></path>
<path fill="#5AAF34" d="M764.66 544.064C764.66 562.772 752.24 569.698 733.532 569.698C714.824 569.698 702.405 562.772 702.405 544.064C702.405 525.356 717.511 505.612 733.532 505.612C749.554 505.612 764.66 525.356 764.66 544.064Z"></path>
<path fill="#225207" d="M814.24 832.51C796.504 837.781 779.782 832.51 779.782 832.51C779.782 832.51 737.722 842.291 737.722 822.495C737.722 802.7 760.751 796.667 779.782 796.667C798.812 796.667 814.24 812.715 814.24 832.51Z"></path>
<path fill="#225207" d="M763.228 819.756C745.492 825.027 728.77 819.756 728.77 819.756C728.77 819.756 686.711 829.537 686.711 809.741C686.711 789.946 709.739 783.914 728.77 783.914C747.801 783.914 763.228 799.961 763.228 819.756Z"></path>
<path fill="#225207" d="M852.499 807.002C834.763 812.273 818.04 807.002 818.04 807.002C818.04 807.002 775.981 816.783 775.981 796.987C775.981 777.192 799.01 771.16 818.04 771.16C837.071 771.16 852.499 787.207 852.499 807.002Z"></path>
<path fill="#002B23" d="M1168.58 939.802C1152.26 939.802 394.868 762.328 374.001 754.162C280.161 717.442 649.661 671.159 581.06 652.161C514.76 633.801 256.603 643.572 256.603 643.572L194.383 647.984C194.383 647.984 186.873 651.616 182.143 654.104C346.363 656.832 499.918 650.104 503.996 658.561C508.074 667.018 122.957 697.747 192.44 770.149C313.82 896.629 627.876 1025.48 627.876 1025.48H1168.58V939.802Z"></path>
<path fill="#2C4053" d="M209.121 541.077C204.138 532.949 195.808 527.101 186.668 525.315C177.528 523.529 167.711 525.831 160.207 531.519C159.129 532.336 157.99 533.755 158.693 534.931C162.376 533.15 166.708 533.944 170.626 535.066C181.16 538.085 191.114 543.258 199.745 550.198C190.18 551.018 181.124 556.754 176.068 565.198C171.011 573.642 170.076 584.588 173.622 593.819C181.141 581.02 191.371 569.936 203.38 561.577C204.628 565.736 204.581 570.181 204.362 574.53C202.618 609.132 190.425 643.093 169.912 670.476C177.268 669.641 184.511 667.741 191.363 664.848C193.297 664.031 195.247 663.103 196.726 661.575C198.375 659.871 199.296 657.573 200.144 655.326C209.148 631.471 214.481 606.136 215.881 580.566C216.226 574.273 216.305 567.78 214.149 561.885C226.699 566.303 237.825 574.943 245.431 586.179C248.558 577.542 246.757 567.3 241.214 560.077C235.671 552.855 226.673 548.75 217.763 548.941C229.043 540.824 241.968 533.356 255.658 534.546C256.475 533.667 255.679 532.229 254.834 531.379C248.459 524.969 238.674 522.83 230.043 525.025C221.411 527.221 213.992 533.383 209.121 541.077Z"></path>
<path fill="#1B2F2D" d="M206.429 678.622C196.296 681.633 186.743 678.622 186.743 678.622C186.743 678.622 162.714 684.209 162.714 672.9C162.714 661.591 175.87 658.145 186.743 658.145C197.615 658.145 206.429 667.313 206.429 678.622Z"></path>
<path fill="#1B2F2D" d="M189.429 671.335C179.296 674.347 169.743 671.335 169.743 671.335C169.743 671.335 145.714 676.923 145.714 665.614C145.714 654.305 158.87 650.858 169.743 650.858C180.615 650.858 189.429 660.026 189.429 671.335Z"></path>
<path fill="#1B2F2D" d="M221 666.707C212.556 669.216 204.595 666.707 204.595 666.707C204.595 666.707 184.572 671.363 184.572 661.939C184.572 652.515 195.535 649.643 204.595 649.643C213.655 649.643 221 657.282 221 666.707Z"></path>
<path fill-opacity="0.8" fill="url(#paint5_linear_610_4596)" d="M297.217 4.10272C296.97 2.09799 298.396 0.273296 300.401 0.0271465C302.405 -0.219003 304.23 1.20661 304.476 3.21134L319.333 124.207C319.579 126.212 318.153 128.037 316.149 128.283C314.144 128.529 312.319 127.104 312.073 125.099L297.217 4.10272ZM721.387 33.5861C719.382 33.8323 717.957 35.657 718.203 37.6617L730.088 134.459C730.334 136.463 732.159 137.889 734.163 137.643C736.168 137.397 737.594 135.572 737.348 133.567L725.462 36.7703C725.216 34.7656 723.392 33.34 721.387 33.5861ZM732.887 480.901C730.883 481.147 729.457 482.972 729.703 484.977L741.588 581.774C741.834 583.778 743.659 585.204 745.664 584.958C747.669 584.712 749.094 582.887 748.848 580.882L736.963 484.085C736.717 482.081 734.892 480.655 732.887 480.901ZM337.161 272.89C335.156 273.136 333.731 274.961 333.977 276.966L338.434 313.265C338.68 315.269 340.505 316.695 342.509 316.449C344.514 316.203 345.94 314.378 345.694 312.373L341.237 276.074C340.991 274.07 339.166 272.644 337.161 272.89ZM582.192 592.747C584.197 592.501 586.021 593.927 586.268 595.931L590.724 632.23C590.971 634.235 589.545 636.06 587.54 636.306C585.536 636.552 583.711 635.126 583.465 633.122L579.008 596.823C578.762 594.818 580.187 592.993 582.192 592.747ZM289.621 690.271C287.616 690.517 286.19 692.342 286.436 694.346L290.893 730.645C291.14 732.65 292.964 734.076 294.969 733.83C296.974 733.583 298.399 731.759 298.153 729.754L293.696 693.455C293.45 691.45 291.625 690.025 289.621 690.271ZM323.008 828.442C322.762 826.437 324.187 824.612 326.192 824.366C328.197 824.12 330.021 825.546 330.268 827.551L334.725 863.849C334.971 865.854 333.545 867.679 331.54 867.925C329.536 868.171 327.711 866.745 327.465 864.741L323.008 828.442ZM143.335 787.795C141.33 788.041 139.904 789.866 140.151 791.871L144.608 828.17C144.854 830.174 146.678 831.6 148.683 831.354C150.688 831.108 152.113 829.283 151.867 827.278L147.41 790.979C147.164 788.975 145.34 787.549 143.335 787.795ZM627.77 986.918C627.524 984.913 628.949 983.089 630.954 982.843C632.959 982.596 634.783 984.022 635.029 986.027L639.486 1022.33C639.733 1024.33 638.307 1026.16 636.302 1026.4C634.297 1026.65 632.473 1025.22 632.227 1023.22L627.77 986.918ZM374.954 982.843C372.949 983.089 371.524 984.913 371.77 986.918L376.227 1023.22C376.473 1025.22 378.297 1026.65 380.302 1026.4C382.307 1026.16 383.733 1024.33 383.486 1022.33L379.029 986.027C378.783 984.022 376.959 982.596 374.954 982.843ZM826.002 836.557C823.997 836.803 822.571 838.628 822.817 840.632L827.274 876.931C827.52 878.936 829.345 880.361 831.35 880.115C833.355 879.869 834.78 878.044 834.534 876.04L830.077 839.741C829.831 837.736 828.006 836.311 826.002 836.557ZM932.532 779.68C932.285 777.675 933.711 775.85 935.716 775.604C937.721 775.358 939.545 776.784 939.791 778.788L944.248 815.087C944.494 817.092 943.069 818.917 941.064 819.163C939.059 819.409 937.235 817.983 936.989 815.979L932.532 779.68ZM813.811 714.652C811.806 714.898 810.381 716.723 810.627 718.727L815.084 755.026C815.33 757.031 817.155 758.456 819.159 758.21C821.164 757.964 822.59 756.139 822.344 754.135L817.887 717.836C817.641 715.831 815.816 714.406 813.811 714.652ZM79.1983 718.727C78.9521 716.723 80.3778 714.898 82.3825 714.652C84.3872 714.406 86.2119 715.831 86.4581 717.836L90.915 754.135C91.1611 756.139 89.7355 757.964 87.7308 758.21C85.7261 758.456 83.9014 757.031 83.6552 755.026L79.1983 718.727ZM192.097 617.128C190.092 617.374 188.666 619.199 188.913 621.204L193.369 657.502C193.616 659.507 195.44 660.933 197.445 660.687C199.45 660.44 200.875 658.616 200.629 656.611L196.172 620.312C195.926 618.307 194.101 616.882 192.097 617.128ZM237.674 877.204C237.428 875.199 238.854 873.374 240.859 873.128C242.863 872.882 244.688 874.307 244.934 876.312L252.194 919.402C252.44 921.407 251.014 923.232 249.01 923.478C247.005 923.724 245.18 922.298 244.934 920.294L237.674 877.204ZM512.565 583.187C510.561 583.433 508.736 582.007 508.49 580.003L504.033 543.704C503.787 541.699 505.212 539.874 507.217 539.628C509.222 539.382 511.046 540.808 511.293 542.812L515.749 579.111C515.996 581.116 514.57 582.941 512.565 583.187ZM81.5171 298.579C81.2709 296.574 82.6965 294.75 84.7013 294.503C86.706 294.257 88.5307 295.683 88.7768 297.688L96.2051 358.186C96.4512 360.19 95.0256 362.015 93.0209 362.261C91.0161 362.507 89.1914 361.082 88.9453 359.077L81.5171 298.579ZM121.461 563.876L121.461 563.876L114.033 503.378C113.787 501.373 111.962 499.947 109.957 500.194C108.822 500.333 107.873 500.979 107.307 501.876C106.937 502.465 106.731 503.162 106.746 503.896C106.749 504.02 106.758 504.144 106.773 504.27L114.201 564.768C114.324 565.77 114.842 566.628 115.58 567.204C116.317 567.78 117.274 568.075 118.277 567.952C118.448 567.931 118.615 567.898 118.777 567.855C120.513 567.393 121.686 565.71 121.461 563.876ZM157.285 915.656L157.285 915.656L164.713 976.154C164.744 976.405 164.799 976.647 164.877 976.877C165.418 978.489 167.035 979.554 168.789 979.339C169.039 979.308 169.281 979.252 169.511 979.175C171.124 978.633 172.188 977.017 171.973 975.263L164.545 914.765C164.299 912.76 162.474 911.335 160.47 911.581L160.469 911.581C158.465 911.827 157.039 913.651 157.285 915.656ZM354.082 595.615L354.083 595.614C353.868 593.86 354.932 592.244 356.544 591.703C356.775 591.625 357.016 591.569 357.267 591.539C358.599 591.375 359.852 591.95 360.614 592.943C360.856 593.257 361.048 593.613 361.179 594.001C361.256 594.231 361.312 594.472 361.342 594.723L368.771 655.221L368.77 655.221C368.955 656.725 368.199 658.127 366.964 658.838C366.552 659.075 366.087 659.235 365.586 659.297C364.422 659.44 363.319 659.019 362.55 658.249C361.995 657.692 361.614 656.953 361.511 656.113L354.082 595.615ZM9.24925 589.602C9.0031 587.598 10.4287 585.773 12.4334 585.527C14.4382 585.281 16.2629 586.706 16.509 588.711L23.9372 649.209C24.1834 651.214 22.7578 653.039 20.7531 653.285C18.7483 653.531 16.9236 652.105 16.6775 650.101L9.24925 589.602ZM32.5447 439.42C30.5399 439.666 29.1143 441.491 29.3605 443.496L35.3031 491.894C35.5492 493.899 37.3739 495.325 39.3786 495.078C41.3834 494.832 42.809 493.008 42.5628 491.003L36.6203 442.604C36.3741 440.6 34.5494 439.174 32.5447 439.42ZM853.301 289.174C853.055 287.169 854.48 285.345 856.485 285.099C858.49 284.852 860.315 286.278 860.561 288.283L862.046 300.382C862.293 302.387 860.867 304.212 858.862 304.458C856.857 304.704 855.033 303.279 854.787 301.274L853.301 289.174ZM881.528 519.067C881.282 517.062 882.708 515.238 884.712 514.991C886.717 514.745 888.542 516.171 888.788 518.176L890.274 530.275C890.52 532.28 889.094 534.105 887.089 534.351C885.085 534.597 883.26 533.171 883.014 531.167L881.528 519.067ZM490.771 138.813C488.766 139.059 487.341 140.884 487.587 142.888L489.072 154.988C489.319 156.993 491.143 158.418 493.148 158.172C495.153 157.926 496.578 156.101 496.332 154.097L494.847 141.997C494.6 139.992 492.776 138.567 490.771 138.813ZM518.998 368.706C516.993 368.952 515.568 370.776 515.814 372.781L517.3 384.881C517.546 386.886 519.371 388.311 521.375 388.065C523.38 387.819 524.806 385.994 524.559 383.989L523.074 371.89C522.828 369.885 521.003 368.459 518.998 368.706ZM119.677 171.45C117.672 171.696 116.247 173.52 116.493 175.525L131.349 296.521C131.595 298.526 133.42 299.952 135.425 299.705C137.43 299.459 138.855 297.635 138.609 295.63L123.753 174.634C123.507 172.629 121.682 171.203 119.677 171.45ZM560.664 438.634C558.66 438.88 557.234 440.705 557.48 442.71L561.937 479.009C562.183 481.013 564.008 482.439 566.013 482.193C568.018 481.947 569.443 480.122 569.197 478.117L564.74 441.818C564.494 439.814 562.669 438.388 560.664 438.634ZM681.452 162.74C681.206 160.735 682.631 158.91 684.636 158.664C686.641 158.418 688.466 159.843 688.712 161.848L693.169 198.147C693.415 200.152 691.989 201.976 689.985 202.223C687.98 202.469 686.155 201.043 685.909 199.038L681.452 162.74ZM917.989 180.686C917.743 178.681 919.169 176.856 921.173 176.61C923.178 176.364 925.003 177.79 925.249 179.794L932.677 240.292C932.923 242.297 931.498 244.122 929.493 244.368C927.488 244.614 925.664 243.188 925.417 241.184L917.989 180.686ZM943.245 386.376C942.999 384.371 944.425 382.547 946.429 382.301C948.434 382.054 950.259 383.48 950.505 385.485L957.933 445.983C958.179 447.988 956.754 449.812 954.749 450.058C952.744 450.305 950.919 448.879 950.673 446.874L943.245 386.376ZM996.941 793.687C994.936 793.933 993.511 795.758 993.757 797.762L1001.19 858.26C1001.43 860.265 1003.26 861.691 1005.26 861.445C1007.27 861.198 1008.69 859.374 1008.45 857.369L1001.02 796.871C1000.77 794.866 998.946 793.441 996.941 793.687ZM775.203 966.889C774.957 964.884 776.383 963.059 778.388 962.813C780.392 962.567 782.217 963.993 782.463 965.997L789.891 1026.5C790.138 1028.5 788.712 1030.32 786.707 1030.57C784.703 1030.82 782.878 1029.39 782.632 1027.39L775.203 966.889Z" clip-rule="evenodd" fill-rule="evenodd" opacity="0.800059"></path>
</g>
<defs>
<linearGradient gradientUnits="userSpaceOnUse" y2="727.04" x2="551.936" y1="-35.84" x1="428.032" id="paint0_linear_610_4596">
<stop stop-color="#AEC3D8"></stop>
<stop stop-color="#80A6B9" offset="0.47806"></stop>
<stop stop-color="#5E929F" offset="1"></stop>
</linearGradient>
<linearGradient gradientUnits="userSpaceOnUse" y2="904.5" x2="876.5" y1="660.5" x1="14" id="paint1_linear_610_4596">
<stop stop-color="#266A29"></stop>
<stop stop-color="#39661D" offset="1"></stop>
</linearGradient>
<linearGradient gradientUnits="userSpaceOnUse" y2="622.201" x2="1004.82" y1="218.573" x1="1007.86" id="paint2_linear_610_4596">
<stop stop-color="#5E6E7A"></stop>
<stop stop-color="#6C93A6" offset="1"></stop>
</linearGradient>
<linearGradient gradientUnits="userSpaceOnUse" y2="1147.5" x2="-267.143" y1="655.715" x1="564.643" id="paint3_linear_610_4596">
<stop stop-color="#39661E"></stop>
<stop stop-color="#106F36" offset="1"></stop>
</linearGradient>
<linearGradient gradientUnits="userSpaceOnUse" y2="692.145" x2="534.286" y1="-66.784" x1="497.857" id="paint4_linear_610_4596">
<stop stop-color="#597C91" offset="0.611244"></stop>
<stop stop-color="#617981" offset="1"></stop>
</linearGradient>
<linearGradient gradientUnits="userSpaceOnUse" y2="1219.87" x2="701.714" y1="-193.691" x1="396.19" id="paint5_linear_610_4596">
<stop stop-color="#667A7D"></stop>
<stop stop-opacity="0.65" stop-color="white" offset="0.619407"></stop>
</linearGradient>
<clipPath id="clip0_610_4596">
<rect fill="white" rx="160" height="1024" width="1024"></rect>
</clipPath>
</defs>
</svg>
