<svg xmlns="http://www.w3.org/2000/svg" fill="none" viewBox="0 0 1024 1024" height="1024" width="1024">
<g clip-path="url(#clip0_609_3765)">
<rect fill="url(#paint0_linear_609_3765)" rx="160" height="1024" width="1024"></rect>
<circle fill="url(#paint1_linear_609_3765)" r="512" cy="512" cx="512"></circle>
<path fill="#36B294" d="M430 428.068C407.504 409.458 375 426 357.5 411C334.11 390.952 328.798 385.708 307.438 380.232C287.938 375.232 270.282 386.544 251.5 361.5C238 343.5 225.266 345.322 208.974 349.322C192.682 353.322 187.676 348.894 165.75 330.75C151.25 318.75 138.5 309.208 108 315.5C9.53692 335.812 11.9703 310.209 -6.52572 303.185C-24.3117 343.061 -2.93131 383.588 -10.0393 428.068C62.4207 435.674 100.754 434.888 129 444C160 454 461.334 515 466.668 512C472.002 509 475.54 461.392 475.54 461.392C445.278 455.924 444.866 440.366 430 428.068Z"></path>
<path fill-opacity="0.738227" fill="#5D6583" d="M430 428.068C407.504 409.458 375 426 357.5 411C334.11 390.952 328.798 385.708 307.438 380.232C287.938 375.232 270.282 386.544 251.5 361.5C238 343.5 225.266 345.322 208.974 349.322C192.682 353.322 187.676 348.894 165.75 330.75C151.25 318.75 138.5 309.208 108 315.5C9.53692 335.812 11.9703 310.209 -6.52572 303.185C-24.3117 343.061 -2.93131 383.588 -10.0393 428.068C62.4207 435.674 100.754 434.888 129 444C160 454 461.334 515 466.668 512C472.002 509 475.54 461.392 475.54 461.392C445.278 455.924 444.866 440.366 430 428.068Z"></path>
<path fill="#674447" d="M845.008 554.036C839.422 554.036 834.9 549.512 834.9 543.934V435.138C834.9 429.56 839.424 425.036 845.008 425.036C850.594 425.036 855.116 429.56 855.116 435.138V543.934C855.116 549.514 850.594 554.036 845.008 554.036Z"></path>
<path fill-opacity="0.469706" fill="#8588A6" d="M845.008 554.036C839.422 554.036 834.9 549.512 834.9 543.934V435.138C834.9 429.56 839.424 425.036 845.008 425.036C850.594 425.036 855.116 429.56 855.116 435.138V543.934C855.116 549.514 850.594 554.036 845.008 554.036Z"></path>
<path fill="#43AB5F" d="M908.672 425.87C908.672 461.032 880.168 489.536 845.006 489.536C809.844 489.536 781.34 461.032 781.34 425.87C781.34 390.708 809.844 282.62 845.006 282.62C880.168 282.622 908.672 390.708 908.672 425.87Z"></path>
<path fill-opacity="0.398585" fill="#A0A7C3" d="M908.672 425.87C908.672 461.032 880.168 489.536 845.006 489.536C809.844 489.536 781.34 461.032 781.34 425.87C781.34 390.708 809.844 282.62 845.006 282.62C880.168 282.622 908.672 390.708 908.672 425.87Z"></path>
<path fill="#71BE63" d="M845.006 282.62C836.18 282.62 827.774 289.442 820.132 300.202H820.134C852.316 300.202 878.404 399.13 878.404 431.312C878.404 459.306 858.648 482.646 832.328 488.258C836.426 489.086 840.662 489.536 845.004 489.536C880.166 489.536 908.67 461.032 908.67 425.87C908.672 390.708 880.166 282.62 845.006 282.62Z"></path>
<path fill-opacity="0.45" fill="#A0A7C3" d="M845.006 282.62C836.18 282.62 827.774 289.442 820.132 300.202H820.134C852.316 300.202 878.404 399.13 878.404 431.312C878.404 459.306 858.648 482.646 832.328 488.258C836.426 489.086 840.662 489.536 845.004 489.536C880.166 489.536 908.67 461.032 908.67 425.87C908.672 390.708 880.166 282.62 845.006 282.62Z"></path>
<path fill="white" d="M328.59 130C328.59 111.116 343.898 95.8078 362.782 95.8078C365.632 95.8078 368.358 96.2578 371.004 96.9158C379.926 87.2798 392.576 81.1538 406.744 81.1538C433.72 81.1538 455.59 103.024 455.59 130H328.59Z" opacity="0.299991"></path>
<path fill="#59928E" d="M527.756 496C514.296 496 512.052 482.69 510.732 480C496 450 478.166 464 448.906 464C426.03 464 421.354 430.666 408.586 432C395.818 433.334 375.248 454.666 357.514 448C332.066 438.432 331.268 424 306.44 416C284.532 408.94 266.008 414 255.366 400C234.648 372.74 219.722 402.5 187.268 384C154.262 365.184 143.998 400 119.172 400C93.0899 400 102.146 368 68.0979 368C48.8099 368 17.3684 393.35 -7.02759 400C-15.4676 436.624 -0.000127905 472.856 -0.000127905 512C-0.000127905 532.184 1.31587 552.054 3.61987 571.626C11.4499 578.892 19.9159 585.282 28.4059 588.928C58.8439 602 698 613.23 698 613.23V560C651.182 560 651.182 528 612.878 528C561.272 528 566.06 496 527.756 496Z"></path>
<path fill="#739A8F" d="M214 867.096L688 613.228L676 587.332C561.23 587.332 362.068 470.664 0.00017193 511.998C0.00017193 639.532 -32.4655 751.654 44.6745 841.286C93.1265 852.86 214 867.096 214 867.096Z"></path>
<path fill="#87ADA2" d="M676 587.334C570.754 587.334 394.438 489.316 86.7139 504.908C360.304 505.144 528.084 627.614 614 627.614L638 618.662L676.714 588.878L676 587.334Z"></path>
<path fill="url(#paint2_linear_609_3765)" d="M457.316 115.332C461.594 115.332 465.686 116.008 469.66 116.996C483.054 102.53 490.684 93.332 523.316 93.332C555.947 93.332 586.038 120.507 587.429 150.526C588.82 180.545 576.993 192.67 475.429 192.67C411.027 192.67 411.027 172.322 411.027 150.526C411.027 128.73 435.566 115.332 457.316 115.332Z" opacity="0.9"></path>
<path fill="#71BE63" d="M-14.5565 706.259C-29.6155 884.957 2.63793 1084.24 210.322 1084.24C1488.31 1084.24 1024 794.77 1024 512C1024 506.656 1023.76 501.372 1023.6 496.068C665.487 497.71 358.352 791.818 -14.5565 706.259Z"></path>
<path fill="#477468" d="M-14.5565 706.259C-29.6155 884.957 2.63793 1084.24 210.322 1084.24C1488.31 1084.24 1024 794.77 1024 512C1024 506.656 1023.76 501.372 1023.6 496.068C665.487 497.71 358.352 791.818 -14.5565 706.259Z"></path>
<path fill="#674447" d="M698.004 618.66C691.666 618.66 686.532 613.528 686.532 607.198V483.738C686.532 477.408 691.664 472.276 698.004 472.276C704.344 472.276 709.474 477.408 709.474 483.738V607.198C709.474 613.528 704.342 618.66 698.004 618.66Z"></path>
<path fill-opacity="0.469706" fill="#8588A6" d="M698.004 618.66C691.666 618.66 686.532 613.528 686.532 607.198V483.738C686.532 477.408 691.664 472.276 698.004 472.276C704.344 472.276 709.474 477.408 709.474 483.738V607.198C709.474 613.528 704.342 618.66 698.004 618.66Z"></path>
<path fill="#43AB5F" d="M770.246 473.222C770.246 513.122 737.9 545.468 698 545.468C658.1 545.468 625.754 513.122 625.754 473.222C625.754 433.322 658.1 310.666 698 310.666C737.9 310.666 770.246 433.32 770.246 473.222Z"></path>
<path fill-opacity="0.398585" fill="#A0A7C3" d="M770.246 473.222C770.246 513.122 737.9 545.468 698 545.468C658.1 545.468 625.754 513.122 625.754 473.222C625.754 433.322 658.1 310.666 698 310.666C737.9 310.666 770.246 433.32 770.246 473.222Z"></path>
<path fill="#71BE63" d="M698 310.666C687.984 310.666 678.446 318.408 669.774 330.618H669.776C706.296 330.618 735.9 442.878 735.9 479.398C735.9 511.164 713.482 537.65 683.614 544.02C688.264 544.96 693.072 545.47 697.998 545.47C737.898 545.47 770.246 513.124 770.246 473.224C770.248 433.32 737.9 310.666 698 310.666Z"></path>
<path fill-opacity="0.45" fill="#A0A7C3" d="M698 310.666C687.984 310.666 678.446 318.408 669.774 330.618H669.776C706.296 330.618 735.9 442.878 735.9 479.398C735.9 511.164 713.482 537.65 683.614 544.02C688.264 544.96 693.072 545.47 697.998 545.47C737.898 545.47 770.246 513.124 770.246 473.224C770.248 433.32 737.9 310.666 698 310.666Z"></path>
<path fill="url(#paint3_linear_609_3765)" d="M297.216 4.10321C296.97 2.09848 298.395 0.273785 300.4 0.0276348C302.405 -0.218515 304.23 1.2071 304.476 3.21182L319.332 124.208C319.578 126.213 318.153 128.037 316.148 128.284C314.143 128.53 312.319 127.104 312.072 125.099L297.216 4.10321ZM721.387 33.5881C719.382 33.8342 717.956 35.6589 718.202 37.6637L730.088 134.461C730.334 136.465 732.158 137.891 734.163 137.645C736.168 137.399 737.593 135.574 737.347 133.569L725.462 36.7723C725.216 34.7675 723.391 33.3419 721.387 33.5881ZM732.887 480.906C730.882 481.153 729.456 482.977 729.703 484.982L741.588 581.779C741.834 583.784 743.659 585.209 745.663 584.963C747.668 584.717 749.094 582.892 748.848 580.887L736.962 484.091C736.716 482.086 734.892 480.66 732.887 480.906ZM386.028 90.8375C385.782 88.8327 387.207 87.008 389.212 86.7619C391.217 86.5157 393.042 87.9414 393.288 89.9461L397.745 126.245C397.991 128.25 396.565 130.074 394.56 130.32C392.556 130.567 390.731 129.141 390.485 127.136L386.028 90.8375ZM408.286 271.958C408.247 270.105 409.617 268.487 411.497 268.256C413.502 268.01 415.326 269.436 415.572 271.44L420.029 307.739C420.275 309.744 418.85 311.568 416.845 311.815L416.845 311.815C414.84 312.061 413.016 310.635 412.77 308.63L408.313 272.332C408.297 272.206 408.288 272.082 408.286 271.958ZM456.066 631.244C454.187 631.475 452.816 633.093 452.855 634.947C452.858 635.07 452.867 635.195 452.882 635.32L457.339 671.619C457.585 673.624 459.41 675.049 461.414 674.803C463.419 674.557 464.845 672.732 464.599 670.727L460.142 634.429C459.911 632.549 458.293 631.179 456.44 631.218C456.316 631.22 456.191 631.229 456.066 631.244ZM478.35 812.739L478.351 812.739C480.355 812.492 482.18 813.918 482.426 815.922L482.426 815.923L486.883 852.222C487.13 854.226 485.704 856.051 483.699 856.297C483.574 856.312 483.449 856.321 483.326 856.324C481.472 856.363 479.854 854.992 479.624 853.113L475.167 816.814C475.161 816.77 475.157 816.725 475.153 816.681C475.15 816.645 475.147 816.609 475.145 816.574C475.144 816.555 475.143 816.537 475.142 816.518C475.141 816.492 475.14 816.467 475.14 816.441C475.101 814.588 476.471 812.97 478.35 812.739ZM500.635 994.233C498.756 994.464 497.386 996.082 497.424 997.935C497.426 997.993 497.428 998.051 497.432 998.11C497.434 998.137 497.436 998.165 497.439 998.193C497.442 998.231 497.447 998.27 497.451 998.308L501.908 1034.61C502.154 1036.61 503.979 1038.04 505.984 1037.79C507.989 1037.55 509.414 1035.72 509.168 1033.72L504.711 997.417L504.711 997.416C504.48 995.537 502.862 994.167 501.009 994.206C500.885 994.208 500.761 994.217 500.635 994.233ZM708.208 326.527C706.203 326.773 704.778 328.598 705.024 330.603L709.481 366.902C709.727 368.906 711.551 370.332 713.556 370.086C713.807 370.055 714.048 370 714.279 369.922C715.891 369.381 716.956 367.765 716.74 366.01L712.283 329.712C712.037 327.707 710.213 326.281 708.208 326.527ZM613.127 283.581C611.122 283.827 609.696 285.652 609.942 287.656L614.399 323.955C614.645 325.96 616.47 327.386 618.475 327.139C620.48 326.893 621.905 325.069 621.659 323.064L617.202 286.765C616.956 284.761 615.132 283.335 613.127 283.581L613.127 283.581ZM443.681 493.727C441.676 493.973 440.251 495.798 440.497 497.802L444.954 534.101C445.2 536.106 447.025 537.531 449.029 537.285C451.034 537.039 452.46 535.214 452.214 533.21L447.757 496.911C447.526 495.031 445.908 493.661 444.055 493.7C443.931 493.702 443.806 493.711 443.681 493.727ZM633.713 481.25C633.467 479.245 634.892 477.421 636.897 477.175L636.931 477.171L636.953 477.168L636.981 477.165C637.016 477.162 637.051 477.159 637.086 477.156C637.147 477.152 637.209 477.149 637.27 477.148C639.124 477.109 640.742 478.479 640.972 480.359L645.429 516.658C645.676 518.662 644.25 520.487 642.245 520.733C640.24 520.979 638.416 519.554 638.17 517.549L633.713 481.25ZM660.667 670.768C658.788 670.999 657.417 672.617 657.456 674.471C657.459 674.594 657.468 674.719 657.483 674.844L661.94 711.143C662.186 713.148 664.011 714.573 666.016 714.327C668.02 714.081 669.446 712.256 669.2 710.251L664.743 673.953L664.743 673.952C664.512 672.073 662.894 670.703 661.041 670.742C660.917 670.744 660.792 670.753 660.667 670.768ZM681.253 868.438C681.007 866.433 682.433 864.608 684.438 864.362C686.442 864.116 688.267 865.542 688.513 867.546L692.97 903.845C693.216 905.85 691.791 907.675 689.786 907.921C687.781 908.167 685.956 906.741 685.71 904.737L681.253 868.438ZM972.604 597.34C972.357 595.335 973.783 593.51 975.788 593.264L975.788 593.264C977.793 593.018 979.617 594.444 979.863 596.448L984.32 632.747L984.32 632.748C984.535 634.502 983.471 636.117 981.859 636.659C981.628 636.736 981.387 636.792 981.136 636.823C979.131 637.069 977.307 635.643 977.06 633.638L972.604 597.34ZM578.186 107.541C577.94 105.536 579.366 103.712 581.37 103.465C583.375 103.219 585.2 104.645 585.446 106.65L589.903 142.948C590.149 144.953 588.723 146.778 586.719 147.024C584.714 147.27 582.889 145.845 582.643 143.84L578.186 107.541ZM559.3 759.131C559.054 757.126 560.479 755.302 562.484 755.055C564.489 754.809 566.314 756.235 566.56 758.24L571.017 794.538C571.263 796.543 569.837 798.368 567.833 798.614C565.828 798.86 564.003 797.435 563.757 795.43L559.3 759.131ZM803.996 211.273C801.992 211.519 800.566 213.343 800.812 215.348L805.269 251.647C805.515 253.652 807.34 255.077 809.345 254.831C811.349 254.585 812.775 252.76 812.529 250.756L808.072 214.457C807.826 212.452 806.001 211.026 803.996 211.273ZM827.767 404.866C825.762 405.112 824.336 406.937 824.583 408.942L829.039 445.241C829.286 447.245 831.11 448.671 833.115 448.425C835.12 448.179 836.545 446.354 836.299 444.349L831.842 408.051C831.596 406.046 829.771 404.62 827.767 404.866ZM848.353 602.536C848.107 600.531 849.532 598.706 851.537 598.46C853.542 598.214 855.366 599.64 855.613 601.644L860.07 637.943C860.316 639.948 858.89 641.773 856.885 642.019C854.881 642.265 853.056 640.839 852.81 638.835L848.353 602.536ZM215.125 113.567C214.879 111.563 216.304 109.738 218.309 109.492C220.314 109.246 222.138 110.671 222.385 112.676L226.841 148.975C227.057 150.729 225.992 152.345 224.38 152.887C224.149 152.964 223.908 153.02 223.657 153.05C221.653 153.297 219.828 151.871 219.582 149.866L215.125 113.567ZM313.259 395.402C313.013 393.398 314.439 391.573 316.443 391.327L316.476 391.323L316.49 391.321L316.527 391.317L316.55 391.315L316.581 391.312C316.66 391.306 316.739 391.302 316.817 391.3C318.67 391.261 320.288 392.631 320.519 394.511L324.976 430.81C325.222 432.814 323.797 434.639 321.792 434.885L321.792 434.885C319.787 435.131 317.962 433.706 317.716 431.701L313.259 395.402ZM241.357 303.249C239.744 303.791 238.68 305.407 238.895 307.161L243.352 343.46C243.383 343.711 243.438 343.952 243.516 344.183C244.057 345.795 245.673 346.859 247.427 346.644L247.428 346.644C249.432 346.398 250.858 344.574 250.612 342.569L250.612 342.569L246.155 306.27C245.909 304.265 244.084 302.84 242.079 303.086C241.829 303.116 241.587 303.172 241.357 303.249ZM262.665 500.755C262.45 499.001 263.515 497.385 265.127 496.843C265.357 496.766 265.599 496.71 265.85 496.679C267.854 496.433 269.679 497.859 269.925 499.864L274.382 536.162C274.628 538.167 273.203 539.992 271.198 540.238L271.197 540.238C269.443 540.453 267.827 539.389 267.286 537.776C267.209 537.546 267.153 537.304 267.122 537.054L262.665 500.755ZM286.436 694.348L286.436 694.349L290.893 730.648C291.139 732.652 292.964 734.078 294.968 733.832C296.973 733.586 298.398 731.761 298.152 729.757L298.152 729.756L293.695 693.457C293.449 691.453 291.625 690.027 289.621 690.273L289.62 690.273C287.615 690.519 286.19 692.344 286.436 694.348ZM337.16 272.889L337.161 272.889C339.165 272.643 340.99 274.069 341.236 276.073L345.693 312.372C345.939 314.377 344.514 316.202 342.509 316.448C340.504 316.694 338.679 315.268 338.433 313.264L333.976 276.965C333.73 274.96 335.156 273.136 337.16 272.889ZM507.217 539.626C505.212 539.872 503.786 541.697 504.032 543.701L508.489 580L508.489 580.001C508.736 582.005 510.56 583.431 512.565 583.185C514.57 582.938 515.995 581.114 515.749 579.109L511.292 542.81C511.046 540.805 509.221 539.38 507.217 539.626ZM323.007 828.444C322.761 826.439 324.187 824.615 326.191 824.368C328.196 824.122 330.021 825.548 330.267 827.553L334.724 863.851C334.97 865.856 333.544 867.681 331.54 867.927C329.535 868.173 327.71 866.748 327.464 864.743L323.007 828.444ZM143.334 787.797C141.329 788.043 139.904 789.868 140.15 791.873L144.607 828.171C144.853 830.176 146.678 831.602 148.683 831.356C150.687 831.109 152.113 829.285 151.867 827.28L147.41 790.981C147.164 788.976 145.339 787.551 143.334 787.797ZM627.769 986.92C627.523 984.915 628.948 983.091 630.953 982.845C632.958 982.598 634.783 984.024 635.029 986.029L639.486 1022.33C639.732 1024.33 638.306 1026.16 636.302 1026.4C634.297 1026.65 632.472 1025.22 632.226 1023.22L627.769 986.92ZM374.953 982.845C372.949 983.091 371.523 984.915 371.769 986.92L376.226 1023.22C376.472 1025.22 378.297 1026.65 380.302 1026.4C382.306 1026.16 383.732 1024.33 383.486 1022.33L379.029 986.029C378.783 984.024 376.958 982.598 374.953 982.845ZM579.007 596.825C578.761 594.82 580.187 592.996 582.191 592.749C584.196 592.503 586.021 593.929 586.267 595.934L590.724 632.232C590.97 634.237 589.544 636.062 587.54 636.308C585.535 636.554 583.71 635.129 583.464 633.124L579.007 596.825ZM826.001 836.559C823.996 836.805 822.57 838.63 822.817 840.634L827.274 876.933C827.52 878.938 829.344 880.364 831.349 880.117C833.354 879.871 834.779 878.047 834.533 876.042L830.076 839.743C829.83 837.738 828.006 836.313 826.001 836.559ZM932.531 779.682C932.285 777.677 933.71 775.853 935.715 775.607C937.72 775.36 939.545 776.786 939.791 778.791L944.248 815.09C944.494 817.094 943.068 818.919 941.063 819.165C939.059 819.411 937.234 817.986 936.988 815.981L932.531 779.682ZM813.81 714.654C811.806 714.9 810.38 716.725 810.626 718.73L815.083 755.029C815.329 757.033 817.154 758.459 819.159 758.213C821.163 757.967 822.589 756.142 822.343 754.137L817.886 717.838C817.64 715.834 815.815 714.408 813.81 714.654ZM79.1976 718.73C78.9515 716.725 80.3771 714.9 82.3818 714.654C84.3865 714.408 86.2112 715.834 86.4574 717.838L90.9143 754.137C91.1605 756.142 89.7349 757.967 87.7301 758.213C85.7254 758.459 83.9007 757.033 83.6546 755.029L79.1976 718.73ZM192.096 617.13C190.091 617.376 188.666 619.201 188.912 621.206L193.369 657.505C193.615 659.509 195.44 660.935 197.444 660.689C199.449 660.443 200.875 658.618 200.629 656.613L196.172 620.315C195.926 618.31 194.101 616.884 192.096 617.13ZM237.674 877.206C237.428 875.201 238.853 873.376 240.858 873.13C242.863 872.884 244.687 874.31 244.934 876.315L252.193 919.405C252.439 921.409 251.014 923.234 249.009 923.48C247.004 923.726 245.18 922.301 244.934 920.296L237.674 877.206ZM81.5167 298.579C81.2705 296.574 82.6961 294.75 84.7009 294.504C86.7056 294.257 88.5303 295.683 88.7764 297.688L96.2047 358.186C96.4508 360.191 95.0252 362.015 93.0205 362.261C91.0157 362.508 89.191 361.082 88.9449 359.077L81.5167 298.579ZM106.773 504.273C106.526 502.268 107.952 500.443 109.957 500.197C110.082 500.182 110.207 500.173 110.33 500.17C112.183 500.131 113.802 501.502 114.032 503.381L121.461 563.879C121.707 565.884 120.281 567.709 118.276 567.955C116.272 568.201 114.447 566.776 114.201 564.771L114.201 564.771L106.773 504.273ZM157.284 915.659L157.285 915.659L164.713 976.157C164.959 978.162 166.783 979.587 168.788 979.342L168.788 979.342C170.793 979.095 172.219 977.271 171.973 975.266L164.544 914.768C164.514 914.517 164.458 914.276 164.381 914.045C163.839 912.433 162.223 911.368 160.469 911.584C160.218 911.615 159.977 911.67 159.746 911.747C158.134 912.289 157.069 913.905 157.284 915.659ZM354.082 595.617L354.082 595.617C353.867 593.863 354.932 592.247 356.544 591.706C356.774 591.628 357.016 591.573 357.266 591.542C359.021 591.327 360.637 592.391 361.178 594.004C361.256 594.234 361.311 594.475 361.342 594.726L368.77 655.224C369.016 657.229 367.591 659.054 365.586 659.3L365.585 659.3C363.581 659.545 361.757 658.12 361.51 656.116L354.082 595.617ZM9.24883 589.606C9.00268 587.601 10.4283 585.776 12.433 585.53C14.4377 585.284 16.2624 586.71 16.5086 588.714L23.9368 649.213C24.183 651.217 22.7574 653.042 20.7526 653.288C18.7479 653.534 16.9232 652.109 16.6771 650.104L9.24883 589.606ZM32.5441 439.419C30.5394 439.665 29.1138 441.489 29.3599 443.494L35.3025 491.893C35.5486 493.897 37.3733 495.323 39.3781 495.077C41.3828 494.831 42.8084 493.006 42.5623 491.001L36.6197 442.603C36.3735 440.598 34.5488 439.172 32.5441 439.419ZM853.3 289.173C853.054 287.168 854.48 285.344 856.484 285.097C858.489 284.851 860.314 286.277 860.56 288.282L862.046 300.381C862.292 302.386 860.866 304.211 858.862 304.457C856.857 304.703 855.032 303.277 854.786 301.273L853.3 289.173ZM881.528 519.066C881.281 517.061 882.707 515.236 884.712 514.99C886.716 514.744 888.541 516.169 888.787 518.174L890.273 530.274C890.519 532.279 889.094 534.103 887.089 534.349C885.084 534.596 883.259 533.17 883.013 531.165L881.528 519.066ZM490.77 138.812C488.765 139.058 487.34 140.883 487.586 142.887L489.072 154.987C489.318 156.992 491.143 158.417 493.147 158.171C495.152 157.925 496.578 156.1 496.331 154.096L494.846 141.996C494.6 139.991 492.775 138.566 490.77 138.812ZM518.997 368.704C516.993 368.95 515.567 370.775 515.813 372.78L517.299 384.879C517.545 386.884 519.37 388.31 521.375 388.064C523.379 387.818 524.805 385.993 524.559 383.988L523.073 371.888C522.827 369.884 521.002 368.458 518.997 368.704ZM119.677 171.449C117.672 171.695 116.246 173.52 116.492 175.525L131.349 296.521C131.595 298.526 133.42 299.951 135.424 299.705C137.429 299.459 138.855 297.634 138.609 295.63L123.752 174.633C123.506 172.629 121.681 171.203 119.677 171.449ZM560.664 438.637C558.659 438.883 557.234 440.708 557.48 442.712L561.937 479.011C562.183 481.016 564.008 482.441 566.013 482.195C568.017 481.949 569.443 480.124 569.197 478.12L564.74 441.821C564.494 439.816 562.669 438.391 560.664 438.637ZM681.452 162.739C681.205 160.735 682.631 158.91 684.636 158.664C686.64 158.418 688.465 159.843 688.711 161.848L693.168 198.147C693.414 200.151 691.989 201.976 689.984 202.222C687.979 202.468 686.155 201.043 685.908 199.038L681.452 162.739ZM917.989 180.684C917.743 178.679 919.168 176.854 921.173 176.608C923.178 176.362 925.003 177.788 925.249 179.792L932.677 240.291C932.923 242.295 931.497 244.12 929.493 244.366C927.488 244.612 925.663 243.187 925.417 241.182L917.989 180.684ZM943.245 386.377C942.999 384.373 944.424 382.548 946.429 382.302C948.434 382.056 950.258 383.481 950.505 385.486L957.933 445.984C958.179 447.989 956.753 449.813 954.749 450.06C952.744 450.306 950.919 448.88 950.673 446.875L943.245 386.377ZM996.941 793.688C994.936 793.935 993.511 795.759 993.757 797.764L1001.19 858.262C1001.43 860.267 1003.26 861.692 1005.26 861.446C1007.27 861.2 1008.69 859.375 1008.44 857.371L1001.02 796.873C1000.77 794.868 998.946 793.442 996.941 793.688ZM775.203 966.886C774.957 964.881 776.383 963.057 778.387 962.81C780.392 962.564 782.217 963.99 782.463 965.995L789.891 1026.49C790.137 1028.5 788.712 1030.32 786.707 1030.57C784.702 1030.81 782.878 1029.39 782.631 1027.38L775.203 966.886Z" clip-rule="evenodd" fill-rule="evenodd" opacity="0.800059"></path>
<path fill="url(#paint4_linear_609_3765)" d="M265.694 254.763H349.836C375.757 254.763 396.77 233.669 396.77 207.648C396.77 181.628 375.757 160.534 349.836 160.534C342.014 160.534 334.639 162.455 328.153 165.852C319.122 139.557 294.255 120.667 264.993 120.667C228.106 120.667 198.202 150.686 198.202 187.715C198.202 188.474 198.215 189.23 198.24 189.983C187.472 195.79 180.151 207.203 180.151 220.333C180.151 239.348 195.507 254.763 214.449 254.763H264.993C265.099 254.763 265.694 254.763 265.694 254.763H264.993H265.694Z" opacity="0.9"></path>
</g>
<defs>
<linearGradient gradientUnits="userSpaceOnUse" y2="556.173" x2="623.435" y1="222.871" x1="462.808" id="paint0_linear_609_3765">
<stop stop-color="#A0A6C3"></stop>
<stop stop-color="#A09EC4" offset="1"></stop>
</linearGradient>
<linearGradient gradientUnits="userSpaceOnUse" y2="-158.983" x2="1024" y1="865.017" x1="1341.97" id="paint1_linear_609_3765">
<stop stop-color="#A098C5"></stop>
<stop stop-color="#A0A7C3" offset="1"></stop>
</linearGradient>
<linearGradient gradientUnits="userSpaceOnUse" y2="227.909" x2="349.477" y1="3.92859" x1="461.454" id="paint2_linear_609_3765">
<stop stop-color="white"></stop>
<stop stop-opacity="0.01" stop-color="white" offset="1"></stop>
</linearGradient>
<linearGradient gradientUnits="userSpaceOnUse" y2="598.724" x2="292.903" y1="7.23787" x1="223.814" id="paint3_linear_609_3765">
<stop stop-color="#BAC1F7"></stop>
<stop stop-opacity="0.501584" stop-color="#F1F1F1" offset="1"></stop>
</linearGradient>
<linearGradient gradientUnits="userSpaceOnUse" y2="234.892" x2="432.92" y1="-152.243" x1="220.116" id="paint4_linear_609_3765">
<stop stop-color="white"></stop>
<stop stop-opacity="0.01" stop-color="white" offset="1"></stop>
</linearGradient>
<clipPath id="clip0_609_3765">
<rect fill="white" rx="160" height="1024" width="1024"></rect>
</clipPath>
</defs>
</svg>
