<svg xml:space="preserve" style="enable-background:new 0 0 1024 1024;" viewBox="0 0 1024 1024" y="0px" x="0px" xmlns:xlink="http://www.w3.org/1999/xlink" xmlns="http://www.w3.org/2000/svg" id="图层_1" version="1.1">
<style type="text/css">
	.st0{fill:#F2F2F2;}
	.st1{fill:url(#SVGID_1_);}
	.st2{fill:#FFFFFF;}
	.st3{fill:#CCCCCC;}
	.st4{fill:url(#SVGID_2_);}
</style>
<rect height="1024" width="1024" class="st0"></rect>
<g>
	<linearGradient y2="544.1011" x2="688.6627" y1="564.7115" x1="688.6627" gradientUnits="userSpaceOnUse" id="SVGID_1_">
		<stop style="stop-color:#768DA8" offset="0"></stop>
		<stop style="stop-color:#334B68" offset="1"></stop>
	</linearGradient>
	<path d="M660.7,555.8c-0.2,0.2-0.4,0.5-0.7,0.7l8.2,8.2c0.2-0.2,0.4-0.5,0.7-0.7c11.1-11.1,29-11.1,40.2-0.2l8.2-8.2
		C701.6,540.2,676.3,540.3,660.7,555.8z" class="st1"></path>
	<path d="M593.6,150.7h4.4v-4.4c0-1.5,1.2-2.7,2.7-2.7c1.5,0,2.7,1.2,2.7,2.7v4.4h4.4c1.5,0,2.7,1.2,2.7,2.7
		c0,1.5-1.2,2.7-2.7,2.7h-4.4v4.4c0,1.5-1.2,2.7-2.7,2.7c-1.5,0-2.7-1.2-2.7-2.7V156h-4.4c-1.5,0-2.7-1.2-2.7-2.7
		C591,151.9,592.2,150.7,593.6,150.7z" class="st2"></path>
	<polygon points="582.4,235.5 586.9,217.5 591.4,235.5 605.9,240 591.4,244.5 586.9,262.5 582.4,244.5 567.9,240" class="st2"></polygon>
	<polygon points="131.6,476.5 137.3,453.6 143,476.5 161.5,482.2 143,488 137.3,510.9 131.6,488 113.1,482.2" class="st2"></polygon>
	<polygon points="532,306.9 522.8,309.8 519.9,321.3 517,309.8 507.8,306.9 517,304.1 519.9,292.6 522.8,304.1" class="st2"></polygon>
	<path d="M424.5,736.2c0,3.2-2.6,5.7-5.7,5.7h-10c-3.2,0-5.7-2.6-5.7-5.7c0-3.2,2.6-5.7,5.7-5.7h10
		C421.9,730.4,424.5,733,424.5,736.2z" class="st2"></path>
	<path d="M415.3,760.4c-1.6,2.7-5.1,3.7-7.8,2.1l-8.7-5c-2.7-1.6-3.7-5.1-2.1-7.8c1.6-2.7,5.1-3.7,7.8-2.1l8.7,5
		C415.9,754.2,416.9,757.7,415.3,760.4z" class="st2"></path>
	<path d="M415.3,711.9c1.6,2.7,0.6,6.2-2.1,7.8l-8.7,5c-2.7,1.6-6.2,0.6-7.8-2.1c-1.6-2.7-0.6-6.2,2.1-7.8l8.7-5
		C410.2,708.3,413.7,709.2,415.3,711.9z" class="st2"></path>
	<path d="M798.6,273.8h7v-7c0-2.4,1.9-4.3,4.3-4.3c2.4,0,4.3,1.9,4.3,4.3v7h7c2.4,0,4.3,1.9,4.3,4.3
		c0,2.4-1.9,4.3-4.3,4.3h-7v7c0,2.4-1.9,4.3-4.3,4.3c-2.4,0-4.3-1.9-4.3-4.3v-7h-7c-2.4,0-4.3-1.9-4.3-4.3
		C794.3,275.7,796.2,273.8,798.6,273.8z" class="st2"></path>
	<polygon points="407.6,384.7 413.3,361.9 419,384.7 437.3,390.3 419,396 413.3,418.7 407.6,396 389.3,390.3" class="st2"></polygon>
	<path d="M311.6,569.9l8.7,5c2.7,1.6,3.7,5.1,2.1,7.8c-1.6,2.7-5.1,3.7-7.8,2.1l-8.7-5c-2.7-1.6-3.7-5.1-2.1-7.8
		C305.3,569.3,308.8,568.4,311.6,569.9z" class="st2"></path>
	<path d="M305.8,612.7l8.7-5c2.7-1.6,6.2-0.6,7.8,2.1c1.6,2.7,0.6,6.2-2.1,7.8l-8.7,5c-2.7,1.6-6.2,0.6-7.8-2.1
		C302.2,617.7,303.1,614.2,305.8,612.7z" class="st2"></path>
	<path d="M300.3,602c-3.2,0-5.7-2.6-5.7-5.7c0-3.2,2.6-5.7,5.7-5.7h10c3.2,0,5.7,2.6,5.7,5.7c0,3.2-2.6,5.7-5.7,5.7
		H300.3z" class="st2"></path>
	<polygon points="330.1,353.9 338.6,319.9 347,353.9 374.4,362.3 347,370.8 338.6,404.7 330.1,370.8 302.7,362.3" class="st2"></polygon>
	<polygon points="864,339.2 868.8,320.1 873.6,339.2 889,344 873.6,348.7 868.8,367.9 864,348.7 848.6,344" class="st2"></polygon>
	<path d="M447.7,331.8h7.6v-7.6c0-2.6,2.1-4.6,4.6-4.6c2.6,0,4.6,2.1,4.6,4.6v7.6h7.6c2.6,0,4.6,2.1,4.6,4.6
		c0,2.6-2.1,4.6-4.6,4.6h-7.6v7.6c0,2.6-2.1,4.6-4.6,4.6c-2.6,0-4.6-2.1-4.6-4.6v-7.6h-7.6c-2.6,0-4.6-2.1-4.6-4.6
		C443,333.9,445.1,331.8,447.7,331.8z" class="st2"></path>
	<g>
		<path d="M166.5,583.6c3.4,0,6.1-2.1,6.1-4.6v-14.8c0-2.5-2.7-4.6-6.1-4.6c-3.4,0-6.1,2.1-6.1,4.6V579
			C160.4,581.5,163.1,583.6,166.5,583.6z" class="st3"></path>
		<path d="M137.1,583.6c3.4,0,6.1-2.1,6.1-4.6v-14.8c0-2.5-2.7-4.6-6.1-4.6c-3.4,0-6.1,2.1-6.1,4.6V579
			C130.9,581.5,133.7,583.6,137.1,583.6z" class="st3"></path>
		<path d="M166.5,625.7v-5c0-0.2,0-0.5-0.1-0.7c9.2-1.9,16-8.7,16-16.9v-11.9c0-2.1-2.1-3.9-4.7-3.9h-52
			c-2.6,0-4.7,1.7-4.7,3.9v11.9c0,8.1,6.8,15,16,16.9c-0.1,0.2-0.1,0.4-0.1,0.7v5c0,2,2,3.6,4.5,3.6h20.5
			C164.5,629.3,166.5,627.7,166.5,625.7z" class="st3"></path>
		<path d="M331.1,626.6c-4.1,0-7.5,3.3-7.5,7.5v151.9c0,4-3.8,7.5-8.1,7.5h-28.6c-4.3,0-8.1-3.5-8.1-7.5v-97.1
			c0-12.2-10.6-22.4-23.1-22.4h-28.6c-12.5,0-22.7,10.1-22.7,22.4v24.9v44.8v27.4c0,3.8-4.1,7.5-8.4,7.5h-28.6
			c-4.3,0-8.1-3.5-8.1-7.5V639c0-4.1-3.3-7.5-7.5-7.5c-4.1,0-7.5,3.3-7.5,7.5v146.9c0,12.2,10.6,22.4,23.1,22.4H196
			c12.7,0,23.4-10.3,23.4-22.4v-27.4v-44.8v-24.9c0-4,3.6-7.5,7.8-7.5h28.6c4.3,0,8.1,3.5,8.1,7.5v97.1c0,12.2,10.6,22.4,23.1,22.4
			h28.6c12.5,0,23.1-10.3,23.1-22.4V634.1C338.6,629.9,335.2,626.6,331.1,626.6z" class="st3"></path>
		<path d="M383.4,698.8c0,4.1,3.3,7.5,7.5,7.5c4.1,0,7.5-3.3,7.5-7.5V504.5c0-12.2-10.6-22.4-23.1-22.4h-28.6
			c-12.5,0-23.1,10.3-23.1,22.4v52.2c0,4.1,3.3,7.5,7.5,7.5c4.1,0,7.5-3.3,7.5-7.5v-52.2c0-4,3.8-7.5,8.1-7.5h28.6
			c4.3,0,8.1,3.5,8.1,7.5V698.8z" class="st3"></path>
		<path d="M745,689.2H632.4c-4.1,0-7.3,3.3-7.3,7.3c0,15.6,12.6,28.3,28.3,28.3h8.1v10c0,2.8,2.3,5.1,5.1,5.1h15.8v46
			c0,4-3.8,7.5-8.1,7.5h-28.6c-4.3,0-8.1-3.5-8.1-7.5v-5v-2.4V771c0-12.2-10.6-22.4-23.1-22.4h-28.6c-12.5,0-23.1,10.3-23.1,22.4
			v4.9c0,0,0,0,0,0c0,0,0,0,0,0v9.9c0,4-3.8,7.5-8.1,7.5H526c-4.3,0-8.1-3.5-8.1-7.5v-12.5v-84.6V579.3c0-12.2-10.6-22.4-23.1-22.4
			h-28.6c-12.5,0-23.1,10.3-23.1,22.4v10v62.2v134.5c0,4-3.8,7.5-8.1,7.5h-28.6c-4.3,0-8.1-3.5-8.1-7.5v-17.4c0-4.1-3.3-7.5-7.5-7.5
			c-4.1,0-7.5,3.3-7.5,7.5v17.4c0,12.2,10.6,22.4,23.1,22.4h28.6c12.5,0,23.1-10.3,23.1-22.4V651.4v-62.2v-10c0-4,3.8-7.5,8.1-7.5
			h28.6c4.3,0,8.1,3.5,8.1,7.5v109.6v84.6v12.5c0,12.2,10.6,22.4,23.1,22.4h28.6c12.5,0,23.1-10.3,23.1-22.4V776c0,0,0,0,0,0
			c0,0,0,0,0,0V771c0-4,3.8-7.5,8.1-7.5h28.6c4.3,0,8.1,3.5,8.1,7.5v7.5v2.4v5c0,12.2,10.6,22.4,23.1,22.4h28.6
			c12.5,0,23.1-10.3,23.1-22.4v-46h13.6c2.8,0,5.1-2.3,5.1-5.1v-10h8.1c15.6,0,28.3-12.6,28.3-28.3
			C752.3,692.5,749.1,689.2,745,689.2z" class="st3"></path>
	</g>
	<path d="M752.3,667.4c0,6.6-5.3,11.9-11.9,11.9H636.9c-6.6,0-11.9-5.3-11.9-11.9v-17.6c0-6.6,5.3-11.9,11.9-11.9h103.6
		c6.6,0,11.9,5.3,11.9,11.9V667.4z" class="st3"></path>
	<linearGradient y2="292.1874" x2="688.6776" y1="626.2409" x1="688.6776" gradientUnits="userSpaceOnUse" id="SVGID_2_">
		<stop style="stop-color:#F2F2F2" offset="0"></stop>
		<stop style="stop-color:#D8D8D8" offset="1"></stop>
	</linearGradient>
	<path d="M823.3,501.4l-60.1,106.4c-6.3,11.1-18.3,18.4-31.6,18.4c-0.1,0-0.2,0-0.3,0h-85.2c-0.1,0-0.2,0-0.3,0
		c-13.2-0.1-25.3-7.3-31.6-18.4l-60.1-106.4c-33.4-59.1-19.6-133.4,34.6-176c26.1-20.5,60.2-33.2,100-33.2h0
		c39.8,0,74,12.7,100,33.2C842.9,368,856.7,442.3,823.3,501.4z" class="st4"></path>
	<path d="M638.1,526.9c-0.4,0.4-0.8,0.8-1.2,1.3l14.8,14.8c0.4-0.4,0.8-0.9,1.2-1.3c20.1-20.1,52.5-20.2,72.8-0.4
		l14.8-14.8C712,498.5,666.3,498.6,638.1,526.9z" class="st2"></path>
	<path d="M612.2,483.5c-0.6,0.6-1.2,1.3-1.8,1.9l22.4,22.4c0.6-0.6,1.2-1.3,1.8-1.9c30.4-30.4,79.4-30.6,110.1-0.6
		l22.4-22.4C724,440.6,654.9,440.8,612.2,483.5z" class="st2"></path>
	<polygon points="471,192.4 476.6,170.3 482.1,192.4 499.9,197.9 482.1,203.4 476.6,225.6 471,203.4 453.2,197.9" class="st2"></polygon>
	<path d="M200.7,520.4h6.1v-6.1c0-2,1.7-3.7,3.7-3.7c2,0,3.7,1.7,3.7,3.7v6.1h6.1c2,0,3.7,1.7,3.7,3.7
		c0,2-1.7,3.7-3.7,3.7h-6.1v6.1c0,2-1.7,3.7-3.7,3.7c-2,0-3.7-1.7-3.7-3.7v-6.1h-6.1c-2,0-3.7-1.7-3.7-3.7
		C197,522.1,198.7,520.4,200.7,520.4z" class="st2"></path>
</g>
</svg>
