<svg xml:space="preserve" style="enable-background:new 0 0 1200 1200;" viewBox="0 0 1200 1200" y="0px" x="0px" xmlns:xlink="http://www.w3.org/1999/xlink" xmlns="http://www.w3.org/2000/svg" id="图层_1" version="1.1">
<style type="text/css">
	.st0{fill-rule:evenodd;clip-rule:evenodd;fill:url(#SVGID_1_);}
	.st1{fill-rule:evenodd;clip-rule:evenodd;fill:url(#SVGID_00000084504919816076152170000002164631524131141279_);}
	.st2{fill-rule:evenodd;clip-rule:evenodd;fill:url(#SVGID_00000156560285885339062490000014341072195691596725_);}
	.st3{fill-rule:evenodd;clip-rule:evenodd;fill:url(#SVGID_00000017499498009846570120000010675556071284710040_);}
	.st4{fill-rule:evenodd;clip-rule:evenodd;fill:url(#SVGID_00000089559067921700694970000013386335803369290129_);}
	.st5{fill-rule:evenodd;clip-rule:evenodd;fill:url(#SVGID_00000026162955054506073650000018089094189364996798_);}
	.st6{fill-rule:evenodd;clip-rule:evenodd;fill:url(#SVGID_00000047752542467561745190000012325859334047256492_);}
	.st7{fill-rule:evenodd;clip-rule:evenodd;fill:#32333F;}
	.st8{fill-rule:evenodd;clip-rule:evenodd;fill:#373E54;}
	.st9{fill-rule:evenodd;clip-rule:evenodd;fill:url(#SVGID_00000105409368689750485150000017192482353488997788_);}
	.st10{fill-rule:evenodd;clip-rule:evenodd;fill:url(#SVGID_00000099635760578296552750000008204041640720739461_);}
	.st11{fill-rule:evenodd;clip-rule:evenodd;fill:url(#SVGID_00000018944222359822622630000006389766698365365427_);}
	.st12{fill-rule:evenodd;clip-rule:evenodd;fill:url(#SVGID_00000118356546154549002710000008197238046720506281_);}
	.st13{fill-rule:evenodd;clip-rule:evenodd;fill:url(#SVGID_00000113318557706543019850000006321864929413078431_);}
	.st14{fill-rule:evenodd;clip-rule:evenodd;fill:#3A302E;}
	.st15{fill:#FFCBBB;}
	.st16{fill-rule:evenodd;clip-rule:evenodd;fill:#FFF9F8;}
	.st17{fill-rule:evenodd;clip-rule:evenodd;fill:#FFC2C2;}
	.st18{fill-rule:evenodd;clip-rule:evenodd;fill:#2E3444;}
	.st19{fill-rule:evenodd;clip-rule:evenodd;fill:#3D3F47;}
	.st20{fill:#32333F;}
	.st21{fill-rule:evenodd;clip-rule:evenodd;fill:url(#SVGID_00000176760889525687780790000008014224610942297996_);}
	.st22{fill-rule:evenodd;clip-rule:evenodd;fill:url(#SVGID_00000090292759733629262260000010314028678163901850_);}
	.st23{fill-rule:evenodd;clip-rule:evenodd;fill:url(#SVGID_00000080909523393517071610000004860864049373690277_);}
	.st24{fill-rule:evenodd;clip-rule:evenodd;fill:url(#SVGID_00000022531526124014689410000010062784650631438258_);}
	.st25{fill-rule:evenodd;clip-rule:evenodd;fill:url(#SVGID_00000006690281044001426030000005990171670746937503_);}
	.st26{fill-rule:evenodd;clip-rule:evenodd;fill:url(#SVGID_00000120538376471467335640000008923148144364849070_);}
	.st27{fill-rule:evenodd;clip-rule:evenodd;fill:url(#SVGID_00000150099505082205189280000017670190980064726144_);}
	.st28{fill-rule:evenodd;clip-rule:evenodd;fill:url(#SVGID_00000039827400644660566920000014727636909932340910_);}
	.st29{fill:#FFB094;}
	.st30{fill-rule:evenodd;clip-rule:evenodd;fill:#FCC9BB;}
</style>
<g>
	<g>
		<g>
			<linearGradient y2="529.6378" x2="874.9727" y1="673.578" x1="813.6246" gradientUnits="userSpaceOnUse" id="SVGID_1_">
				<stop style="stop-color:#FFDBD4" offset="4.984026e-07"></stop>
				<stop style="stop-color:#FFD1BF" offset="1"></stop>
			</linearGradient>
			<path d="M804.76,536.45c0,0,86.73-46.44,108.73-4.56c22,41.87-31.54,182.26-108.73,152.86V536.45z" class="st0"></path>
			
				<linearGradient y2="672.067" x2="859.395" y1="540.1668" x1="861.934" gradientUnits="userSpaceOnUse" id="SVGID_00000041274022241000022620000001933288027525682096_">
				<stop style="stop-color:#FAC1B6" offset="2.587860e-07"></stop>
				<stop style="stop-color:#FFDED1" offset="1"></stop>
			</linearGradient>
			<path d="M860.47,540.19c0,0,45.81-12.62,42.94,22.46c-2.87,35.09-23.41,106.52-86.01,109L860.47,540.19z" style="fill-rule:evenodd;clip-rule:evenodd;fill:url(#SVGID_00000041274022241000022620000001933288027525682096_);"></path>
			
				<linearGradient y2="672.0751" x2="859.395" y1="540.1749" x1="861.934" gradientUnits="userSpaceOnUse" id="SVGID_00000150804302278633141610000003417703795747858832_">
				<stop style="stop-color:#FAC1B6" offset="2.587860e-07"></stop>
				<stop style="stop-color:#FFDED1" offset="1"></stop>
			</linearGradient>
			<path d="M860.47,540.2c0,0,45.81-12.62,42.94,22.46c-2.87,35.09-23.41,106.52-86.01,109L860.47,540.2z" style="fill-rule:evenodd;clip-rule:evenodd;fill:url(#SVGID_00000150804302278633141610000003417703795747858832_);"></path>
		</g>
		<g>
			
				<linearGradient gradientTransform="matrix(-1 0 0 1 1717.3657 0)" y2="527.2284" x2="1389.6003" y1="671.1686" x1="1328.2522" gradientUnits="userSpaceOnUse" id="SVGID_00000072278543650831315320000001575281256619272080_">
				<stop style="stop-color:#FFDBD4" offset="4.984026e-07"></stop>
				<stop style="stop-color:#FFD1BF" offset="1"></stop>
			</linearGradient>
			<path d="M397.97,682.34c-77.19,29.4-130.72-110.98-108.73-152.86c22-41.87,108.73,4.56,108.73,4.56V682.34z" style="fill-rule:evenodd;clip-rule:evenodd;fill:url(#SVGID_00000072278543650831315320000001575281256619272080_);"></path>
			
				<linearGradient gradientTransform="matrix(-1 0 0 1 1717.3657 0)" y2="669.6576" x2="1374.0226" y1="537.7574" x1="1376.5616" gradientUnits="userSpaceOnUse" id="SVGID_00000139272615429369587990000003549842631772055719_">
				<stop style="stop-color:#FAC1B6" offset="2.587860e-07"></stop>
				<stop style="stop-color:#FFDED1" offset="1"></stop>
			</linearGradient>
			<path d="M342.26,537.78c0,0-45.81-12.62-42.94,22.46s23.41,106.52,86.01,109L342.26,537.78z" style="fill-rule:evenodd;clip-rule:evenodd;fill:url(#SVGID_00000139272615429369587990000003549842631772055719_);"></path>
		</g>
	</g>
	
		<linearGradient y2="826.2807" x2="602.6993" y1="959.7693" x1="600.7541" gradientUnits="userSpaceOnUse" id="SVGID_00000045586139749866657110000011143173278952908708_">
		<stop style="stop-color:#FFDBD4" offset="9.920130e-07"></stop>
		<stop style="stop-color:#FFBFAA" offset="1"></stop>
	</linearGradient>
	<path d="M697.81,825.17l-96.25,1.38l-96.25-1.38c0,0-6.05,55.98-16.79,97.63c-5.51,21.37,10.58,42.19,32.64,42.19h77.73h5.34h74.43
		c23.62,0,40.91-22.19,35.2-45.11C703.58,878.59,697.81,825.17,697.81,825.17z" style="fill-rule:evenodd;clip-rule:evenodd;fill:url(#SVGID_00000045586139749866657110000011143173278952908708_);"></path>
	
		<linearGradient y2="856.4008" x2="596.0104" y1="222.9075" x1="608.2046" gradientUnits="userSpaceOnUse" id="SVGID_00000086669369228773790540000012782718091505511868_">
		<stop style="stop-color:#FFDBD4" offset="4.984026e-07"></stop>
		<stop style="stop-color:#FFD1BF" offset="1"></stop>
	</linearGradient>
	<path d="M841.33,595.02c0,24.6-5.19,54.74-10.68,79.78c-6.77,30.84-20.94,59.57-41.32,83.7l-17.52,20.74
		c-25.28,29.93-59.02,51.51-96.79,61.91l-52.23,14.38c-14.01,3.86-28.81,3.84-42.81-0.04l-53.78-14.91
		c-36.26-10.05-68.92-30.21-94.18-58.11l-17-18.79c-17.11-18.9-29.52-39.55-36.31-64.12c-8.1-29.33-17.28-71.78-17.28-104.54
		c0-212.17,10.1-384.17,239.96-384.17C806.29,210.85,841.33,382.85,841.33,595.02z" style="fill-rule:evenodd;clip-rule:evenodd;fill:url(#SVGID_00000086669369228773790540000012782718091505511868_);"></path>
	<path d="M870.07,563.17c0,0,14.02-97.89-14.17-185.64l36.95,36.36c0,0-34.3-186.51-118.07-214.44l35.56,5.29
		c0,0-27.32-50.34-126.54-40.96l31.37-26.43c0,0-81.91,16.95-94.12,13.21c0,0-55.01-45.36-137-59.46l53.34,58.14
		c0,0-24.82-18.54-95.17-5.29l54.38,15.86c0,0-87.68-11.09-122.36,26.43l69.02,3.96c0,0-26.2-7.65-59.17,25.64
		c-28.19,28.47-61.32,78.17-87.25,164.63c0,0,18.48-32.38,28.24-33.03c0,0-12.7,226.08,47.97,328.57l-7.46-116.11l6.54-16.9
		c0,0,8.75-82.71,10.46-89.85c1.71-7.14,3.03-71.71,96.22-80.6c31.61-3.02,77.8-7.55,126.12-7.62
		c94.13-0.13,196.38,16.71,214.82,94.83c0,0,5.95,18.45,11.48,47.7c0.37,1.94,9.67,11.22,10.97,24.96
		c3.28,34.73-1.31,108.46-6.77,143.59C831.39,703.23,868.5,579.04,870.07,563.17z" class="st7"></path>
	<path d="M450.25,897.82c-43.98,23.7-65.22,33.21-86.59,38.87c-72.03,19.09-143.11,73.59-192.15,263.31l857.97,0
		c0,0-62.61-203.64-174.81-259.32c-32.23-14.71-58.7-13.46-96.15-39.44c-29.73-16.3-101.28,29.55-164.04,33.46
		C540.6,938.06,469.69,904.55,450.25,897.82z" class="st8"></path>
	
		<linearGradient y2="885.2014" x2="598.7593" y1="947.8961" x1="597.8458" gradientUnits="userSpaceOnUse" id="SVGID_00000146474297880935928800000012491445944009596066_">
		<stop style="stop-color:#E3D6D3" offset="8.769970e-07"></stop>
		<stop style="stop-color:#FFFFFF" offset="1"></stop>
	</linearGradient>
	<path d="M497.94,889.34c0,0,49.06,25.54,100.57,25.54s104.8-28.15,104.8-28.15s18.21,27.04-18.87,37.7
		c-37.08,10.66-86.15,38.41-153.43,12.66C463.72,911.32,497.94,889.34,497.94,889.34z" style="fill-rule:evenodd;clip-rule:evenodd;fill:url(#SVGID_00000146474297880935928800000012491445944009596066_);"></path>
	
		<linearGradient y2="881.2466" x2="518.7401" y1="942.464" x1="508.3549" gradientUnits="userSpaceOnUse" id="SVGID_00000091721142755053566610000010279438530775361446_">
		<stop style="stop-color:#384358" offset="1.116614e-06"></stop>
		<stop style="stop-color:#373E54" offset="1"></stop>
	</linearGradient>
	<path d="M434.51,938.57c26.69,35.69,69.56,31.19,122.76,32.95c35.78,1.18,36.88-2.67,37.57-3.8c6.08-9.99-13.91-42.56-22.38-42.41
		c-20.97,0.38-85.17-7.95-72.9-57.98c0.79-3.21,2.25-15.95,3.07-20.84c-54.89,1.99-73.06,29.75-76.77,44.28
		c-0.27,1.06,2.62,4.31,2.62,4.31s-4,4.12-4.15,5.41C422.68,914.81,426.62,928.01,434.51,938.57z" style="fill-rule:evenodd;clip-rule:evenodd;fill:url(#SVGID_00000091721142755053566610000010279438530775361446_);"></path>
	
		<linearGradient y2="962.7249" x2="569.7275" y1="887.0946" x1="750.03" gradientUnits="userSpaceOnUse" id="SVGID_00000129169645491619736230000011917498069850919608_">
		<stop style="stop-color:#384358" offset="7.523963e-07"></stop>
		<stop style="stop-color:#373E54" offset="1"></stop>
	</linearGradient>
	<path d="M700.48,846.5c1.5,6.91,1.16,12.7,2.9,19.78c11.23,45.53-76.36,61.62-96.22,61.26c-7.99-0.14-17.76,19.32-25.31,32.42
		c-1.27,2.2-4.38,7.5-4.88,9.99c-0.72,3.54,14.48,0.76,52.44,1.58c53.22,1.14,129.81-4.37,142.74-64.47
		c0.82-3.81-3.54-8.33-3.54-8.33s3.08-0.97,2.52-4.34C767.85,874.65,740.96,849.3,700.48,846.5z" style="fill-rule:evenodd;clip-rule:evenodd;fill:url(#SVGID_00000129169645491619736230000011917498069850919608_);"></path>
	
		<linearGradient y2="905.9071" x2="450.522" y1="896.67" x1="427.2899" gradientUnits="userSpaceOnUse" id="SVGID_00000048484206238763367500000015608915690128445884_">
		<stop style="stop-color:#2E3240" offset="0"></stop>
		<stop style="stop-color:#394254" offset="1"></stop>
	</linearGradient>
	<path d="M460.7,905.22c-16.51,1.1-34.85-14.1-34.88-14.13c-0.03,1.2,2.65,4,2.65,4s-4,4.12-4.15,5.41
		C434.34,904.61,460.7,905.22,460.7,905.22z" style="fill-rule:evenodd;clip-rule:evenodd;fill:url(#SVGID_00000048484206238763367500000015608915690128445884_);"></path>
	
		<linearGradient gradientTransform="matrix(-1 0 0 1 1438.7026 0)" y2="910.8696" x2="692.0577" y1="901.531" x1="668.5703" gradientUnits="userSpaceOnUse" id="SVGID_00000126283849308588609740000008910364652512579006_">
		<stop style="stop-color:#333847" offset="4.792333e-09"></stop>
		<stop style="stop-color:#394254" offset="1"></stop>
	</linearGradient>
	<path d="M735.86,908.92c16.51,1.1,35.29-14.1,35.32-14.13c0.18,2.97-2.57,3.94-2.57,3.94s3.62,2.72,3.62,7.6
		C763.39,914.04,735.86,908.92,735.86,908.92z" style="fill-rule:evenodd;clip-rule:evenodd;fill:url(#SVGID_00000126283849308588609740000008910364652512579006_);"></path>
	<path d="M482.96,864.8" class="st8"></path>
	<path d="M674.41,505.79c1.42-21.52,22.4-18.65,35.31-17.79c16.06,1.06,46.52,7.63,73.56,28.81
		c11.97,9.38,13.26,18.25-7.4,12.81c-27.65-7.28-46.39-9.17-58.31-10.98C698.82,515.8,673.66,517.08,674.41,505.79z" class="st14"></path>
	<path d="M483.52,517.96c-11.66,1.76-29.98,3.62-57.03,10.74c-20.21,5.32-18.95-3.36-7.24-12.53
		c26.44-20.71,56.24-27.13,71.95-28.18c12.62-0.84,33.15-3.65,34.54,17.4C526.45,516.44,501.85,515.18,483.52,517.96z" class="st14"></path>
	<path d="M621.28,696.4c0,6.54-10.21,11.84-22.8,11.84c-12.59,0-22.8-5.3-22.8-11.84c0-6.54,10.21-19.94,22.8-19.94
		C611.08,676.46,621.28,689.86,621.28,696.4z" class="st15"></path>
	<g>
		<g>
			<path d="M484.83,537.07c-10.97,0-20.72,7.31-26.98,18.67l5.42,5.48h-8.03c-2.92,7.13-4.6,15.4-4.6,24.24
				c0,26.73,15.31,48.4,34.2,48.4c18.89,0,34.2-21.67,34.2-48.4C519.03,558.74,503.71,537.07,484.83,537.07z" class="st14"></path>
			<ellipse ry="14.19" rx="7.94" cy="576.43" cx="496.02" class="st16"></ellipse>
		</g>
		<g>
			<path d="M717.91,537.07c10.97,0,20.72,7.31,26.98,18.67l-5.42,5.48l9.82,5.02c2.92,7.13,2.81,10.39,2.81,19.22
				c0,26.73-15.31,48.4-34.2,48.4c-18.89,0-34.2-21.67-34.2-48.4C683.71,558.74,699.02,537.07,717.91,537.07z" class="st14"></path>
			<ellipse ry="14.19" rx="7.94" cy="576.43" cx="702.03" class="st16"></ellipse>
		</g>
	</g>
	<ellipse ry="19.22" rx="41.75" cy="693.19" cx="460.7" class="st17"></ellipse>
	<ellipse ry="19.22" rx="41.75" cy="693.19" cx="749.53" class="st17"></ellipse>
	<path d="M370.61,1059.89c0,0-71.19,24.58-84.18,140.11h40.4C326.82,1200,333.64,1129.97,370.61,1059.89z" class="st18"></path>
	<path d="M818.25,1066.56c0,0,66.02,72.41,78.01,133.44h-46.46C849.79,1200,855.22,1136.64,818.25,1066.56z" class="st18"></path>
	<path d="M366.53,559.89l7.23-16.9c0,0,11.36-94.84,14.6-116.91l-66.94,16.47c4.28,96.12,17.15,178.14,53.35,233.46
		L366.53,559.89z" class="st19"></path>
	<path d="M874.11,563.17c0,0,13.54-85.6-10.17-168.45l-49.12,46.98c2.1,4.6,2.35,12.94,3.68,18.05
		c0,0,6.57,18.45,12.69,47.7c0.4,1.94,10.69,11.22,12.13,24.96c3.62,34.73-1.45,108.46-7.48,143.59c-0.37,2.26-0.42,3.46-0.22,3.78
		l30.46-86.16C870.46,579.11,873.66,567.36,874.11,563.17z" class="st19"></path>
	<path d="M329.8,497.75c0,0,10.94-75.98,10.85-65.73c-0.16,19.55,1.18,53.88,10.39,88.21c0,0,5.34-69.93,13.64-85.05
		c2.15-3.91,10.65,59.97,10.65,59.97s-0.62-56.46,12.36-59.97c-2.77,16.49-1.49,21.98,2.34,38.23c4.26-31.3,34.21-77.6,39.8-81.16
		c0,0-10.02,55.42,0,76.92c0,0,17.04-79.3,33.08-76.92c0,0-10.23,21.43,6.07,61.93c0,0,3.84-55.91,22.99-75.32
		c0,0-17.38,25.86,0.66,60.98c0,0,1.6-48.02,21.39-56.68c0,0-5.93,33.39,6.1,50.59c0,0-0.09-53.46,16.95-53.46
		c0,0,6.64,40.49,10.64,49.81c0,0-0.62-49.81,13.41-49.1c0,0-4.89,26.22,2.36,69.1c0,0,13.24-71.55,27.28-71.55
		c0,0-4.49,42.42,16.96,64.2c0,0,0.14-45.78,10.14-59.29c20.29-2.72,9.12,60.92,9.12,60.92s20.28-42.14,19.28-63.64
		c0,0,17.8,22.07,22.49,64.12c0,0,7.62-45.15,5.54-64.51c0,0,18.97,6.33,28.99,50.05c0,0,20.05-31.54-5.01-58.77
		c0,0,41.42,32.73,37.92,80.75c0,0,26.96-41.45,7.99-81.11c0,0,19.82,19.83,37.08,102.26c0,0,14.11-20.79,5.09-81.71
		c0,0,34.55-9.32,29.51,103.21c0,0,36.34-64.39,1.92-115.28c0,0,37.85,33.93,37.42,90.79c0,0,16.63-46.81,0-85.04
		c0,0,20.88,38.22,23.44,70.23c19.47-76.84-18.02-200.41-177.53-185.4C680.47,268.07,257.15,258.48,329.8,497.75z" class="st20"></path>
	
		<linearGradient y2="876.7828" x2="476.0143" y1="931.054" x1="572.1055" gradientUnits="userSpaceOnUse" id="SVGID_00000062879009962358100970000014843989571511000218_">
		<stop style="stop-color:#3A455C" offset="1.121406e-06"></stop>
		<stop style="stop-color:#2D3647" offset="1"></stop>
	</linearGradient>
	<path d="M586.06,937.77c-0.03-0.05-0.06-0.09-0.09-0.14l-0.01-0.02c-4.72-7.03-10.06-12.36-13.5-12.3c-20.97,0.38-85.17-7.95-72.9-57.98
		c0.36-1.48,0.77-4.3,1.19-7.38l0.06-1.69c0,0-41.47,8.49-29.7,33.81C482.87,917.37,519.45,945.12,586.06,937.77z" style="fill-rule:evenodd;clip-rule:evenodd;fill:url(#SVGID_00000062879009962358100970000014843989571511000218_);"></path>
	
		<linearGradient gradientTransform="matrix(-1 0 0 1 1118.3904 0)" y2="872.163" x2="393.4873" y1="936.6823" x1="507.7234" gradientUnits="userSpaceOnUse" id="SVGID_00000022550787414942818450000017384847863263193257_">
		<stop style="stop-color:#3A455C" offset="1.121406e-06"></stop>
		<stop style="stop-color:#2D3647" offset="1"></stop>
	</linearGradient>
	<path d="M592.41,941.73c4.25-6.86,8.02-10.57,8.05-10.62l3.17-2.5c4.86-2.19,7.23-1.03,10.63-1.52c18.36-2.67,100.61-14.04,88.33-64.07
		c-0.36-1.48-0.77-4.3-1.19-7.38l-0.06-1.69c0,0,41.47,8.49,29.7,33.81C719.28,913.06,659.02,949.08,592.41,941.73z" style="fill-rule:evenodd;clip-rule:evenodd;fill:url(#SVGID_00000022550787414942818450000017384847863263193257_);"></path>
	<g>
		<g>
			
				<linearGradient y2="959.6879" x2="533.5169" y1="968.6423" x1="533.5169" gradientUnits="userSpaceOnUse" id="SVGID_00000097465367921521291410000015196406162422161037_">
				<stop style="stop-color:#3A455C" offset="1.121406e-06"></stop>
				<stop style="stop-color:#2D3647" offset="1"></stop>
			</linearGradient>
			
				<ellipse ry="4.93" rx="6.96" cy="964.14" cx="533.52" style="fill-rule:evenodd;clip-rule:evenodd;fill:url(#SVGID_00000097465367921521291410000015196406162422161037_);"></ellipse>
			<g>
				
					<linearGradient y2="1097.0376" x2="534.6826" y1="1097.0376" x1="532.3512" gradientUnits="userSpaceOnUse" id="SVGID_00000015347144571186729260000000595596604917379741_">
					<stop style="stop-color:#374057" offset="1.365815e-06"></stop>
					<stop style="stop-color:#2A2F40" offset="1"></stop>
				</linearGradient>
				<path d="M533.62,1105.56h-0.21c-0.58,0-1.06-0.47-1.06-1.06v-14.92c0-0.58,0.47-1.06,1.06-1.06h0.21c0.58,0,1.06,0.47,1.06,1.06v14.92
					C534.68,1105.08,534.21,1105.56,533.62,1105.56z" style="fill-rule:evenodd;clip-rule:evenodd;fill:url(#SVGID_00000015347144571186729260000000595596604917379741_);"></path>
				
					<linearGradient y2="1097.0385" x2="533.5169" y1="961.4545" x1="533.5169" gradientUnits="userSpaceOnUse" id="SVGID_00000066496069555437837350000007353230116101699725_">
					<stop style="stop-color:#374057" offset="1.365815e-06"></stop>
					<stop style="stop-color:#384259" offset="0.0286"></stop>
					<stop style="stop-color:#2B3142" offset="1"></stop>
				</linearGradient>
				<path d="M533.9,1097.04h-0.77c-2.12,0-3.83-1.72-3.83-3.83V966.09c0-2.12,1.72-3.83,3.83-3.83h0.77c2.12,0,3.83,1.72,3.83,3.83v127.12
					C537.74,1095.32,536.02,1097.04,533.9,1097.04z" style="fill-rule:evenodd;clip-rule:evenodd;fill:url(#SVGID_00000066496069555437837350000007353230116101699725_);"></path>
			</g>
		</g>
		<g>
			
				<linearGradient y2="959.6879" x2="667.4077" y1="968.6423" x1="667.4077" gradientUnits="userSpaceOnUse" id="SVGID_00000018202970010821522180000001644865853782534054_">
				<stop style="stop-color:#3A455C" offset="1.121406e-06"></stop>
				<stop style="stop-color:#2D3647" offset="1"></stop>
			</linearGradient>
			
				<ellipse ry="4.93" rx="6.96" cy="964.14" cx="667.41" style="fill-rule:evenodd;clip-rule:evenodd;fill:url(#SVGID_00000018202970010821522180000001644865853782534054_);"></ellipse>
			<g>
				
					<linearGradient y2="1097.0376" x2="668.5735" y1="1097.0376" x1="666.242" gradientUnits="userSpaceOnUse" id="SVGID_00000179634784073871277410000005177971953739867048_">
					<stop style="stop-color:#374057" offset="1.365815e-06"></stop>
					<stop style="stop-color:#2A2F40" offset="1"></stop>
				</linearGradient>
				<path d="M667.51,1105.56h-0.21c-0.58,0-1.06-0.47-1.06-1.06v-14.92c0-0.58,0.47-1.06,1.06-1.06h0.21c0.58,0,1.06,0.47,1.06,1.06v14.92
					C668.57,1105.08,668.1,1105.56,667.51,1105.56z" style="fill-rule:evenodd;clip-rule:evenodd;fill:url(#SVGID_00000179634784073871277410000005177971953739867048_);"></path>
				
					<linearGradient y2="1097.0385" x2="667.4077" y1="961.4545" x1="667.4077" gradientUnits="userSpaceOnUse" id="SVGID_00000130629832915011491520000011632878094479347584_">
					<stop style="stop-color:#374057" offset="1.365815e-06"></stop>
					<stop style="stop-color:#384259" offset="0.0286"></stop>
					<stop style="stop-color:#2B3142" offset="1"></stop>
				</linearGradient>
				<path d="M667.79,1097.04h-0.77c-2.12,0-3.83-1.72-3.83-3.83V966.09c0-2.12,1.72-3.83,3.83-3.83h0.77c2.12,0,3.83,1.72,3.83,3.83v127.12
					C671.63,1095.32,669.91,1097.04,667.79,1097.04z" style="fill-rule:evenodd;clip-rule:evenodd;fill:url(#SVGID_00000130629832915011491520000011632878094479347584_);"></path>
			</g>
		</g>
	</g>
	<g>
		<path d="M603.44,768.97c-21,0-35.04-7.65-35.91-8.14c-2.41-1.35-3.27-4.39-1.92-6.8c1.35-2.41,4.39-3.27,6.8-1.93
			c1.21,0.67,28.5,15.29,63.71-0.21c2.53-1.11,5.48,0.04,6.59,2.56c1.11,2.53-0.04,5.48-2.56,6.59
			C626.65,766.98,614.14,768.97,603.44,768.97z" class="st29"></path>
	</g>
	<path d="M583.95,776.3c8.79,1.15,24.43,2.56,38.66,0.47c2-0.29,3.02,2.3,1.34,3.42c-4.76,3.16-11.73,6.73-19.39,7.14
		c-8.41,0.45-16.66-3.99-21.93-7.62C581.01,778.58,581.99,776.04,583.95,776.3z" class="st30"></path>
</g>
</svg>
